<svg width="19" height="19" viewBox="0 0 19 19" fill="none" xmlns="http://www.w3.org/2000/svg">
<path d="M1.1664 4.30717H4.44762C4.58754 4.30717 4.72669 4.34211 4.8497 4.40897C4.97271 4.47506 5.0765 4.57079 5.15261 4.68854L6.81628 7.24499C6.97696 7.4919 7.24681 7.62561 7.52281 7.62561C7.6781 7.62561 7.83571 7.58306 7.9764 7.49342C8.36618 7.24575 8.47919 6.73218 8.22856 6.347L6.56565 3.79208C6.33886 3.44185 6.02288 3.15088 5.65309 2.95184C5.28407 2.75279 4.86662 2.64795 4.44685 2.64795H1.16563C0.702051 2.64795 0.326111 3.01945 0.326111 3.47756C0.326111 3.93567 0.702051 4.30717 1.16563 4.30717H1.1664Z" fill="white"/>
<path d="M13.4363 4.40748C13.557 4.34215 13.6961 4.3072 13.8353 4.30644H15.9295L14.8447 5.3784C14.5172 5.70204 14.5172 6.22776 14.8447 6.5514C15.0085 6.71322 15.2237 6.79451 15.4382 6.79451C15.6527 6.79451 15.868 6.71322 16.0317 6.5514L18.5426 4.07017C18.5857 4.02838 18.6241 3.9828 18.6579 3.93266C18.6595 3.93038 18.661 3.9281 18.6625 3.92582C18.6756 3.90531 18.6887 3.8848 18.7002 3.86353C18.7033 3.85821 18.7048 3.85289 18.7079 3.84757C18.7171 3.82858 18.7271 3.80959 18.7348 3.78983C18.7371 3.78376 18.7394 3.77692 18.7417 3.77084C18.7487 3.75185 18.7556 3.73362 18.7617 3.71386C18.764 3.70627 18.7656 3.69867 18.7679 3.69107C18.7725 3.67284 18.7779 3.6546 18.7817 3.63561C18.784 3.62498 18.7848 3.61434 18.7863 3.6037C18.7886 3.58775 18.7917 3.5718 18.7932 3.55584C18.7955 3.53077 18.7971 3.5057 18.7971 3.48139C18.7971 3.47911 18.7971 3.47759 18.7971 3.47531C18.7971 3.44796 18.7956 3.41985 18.7925 3.3925C18.7925 3.38566 18.7902 3.37959 18.7894 3.37275C18.7871 3.35224 18.784 3.33173 18.7802 3.31121C18.7786 3.30362 18.7763 3.29602 18.7748 3.28842C18.7702 3.26943 18.7656 3.25044 18.7602 3.2322C18.7579 3.22612 18.7556 3.21929 18.7533 3.21321C18.7463 3.19346 18.7394 3.1737 18.7317 3.15471C18.7302 3.15091 18.7279 3.14711 18.7264 3.14332C18.7171 3.12204 18.7071 3.10077 18.6956 3.08026C18.6956 3.08026 18.6956 3.0795 18.6956 3.07874C18.6579 3.01037 18.6103 2.94579 18.5518 2.88805L16.0333 0.399223C15.7058 0.0755844 15.1738 0.0755844 14.8462 0.399223C14.5187 0.722862 14.5187 1.24859 14.8462 1.57222L15.9326 2.6457H13.8345C13.4124 2.64646 12.9958 2.75282 12.6313 2.95035C12.2616 3.14939 11.9464 3.4396 11.7196 3.78831L5.15327 13.8796C5.07793 13.9951 4.97337 14.0923 4.85113 14.1584C4.72736 14.2253 4.58821 14.2602 4.44906 14.2602H1.16784C0.704253 14.2602 0.328308 14.6317 0.328308 15.0898C0.328308 15.548 0.704253 15.9195 1.16784 15.9195H4.44906C4.86882 15.9195 5.2855 15.8146 5.65683 15.6148C6.02662 15.4142 6.34183 15.124 6.56632 14.7761L13.1326 4.68554C13.2079 4.57006 13.3125 4.47358 13.4378 4.40596L13.4363 4.40748Z" fill="white"/>
<path d="M18.6988 15.4788C18.7011 15.4743 18.7034 15.469 18.7057 15.4644C18.7157 15.4454 18.7249 15.4256 18.7334 15.4059C18.7357 15.3998 18.738 15.3937 18.7403 15.3877C18.748 15.3687 18.7549 15.3497 18.7603 15.3299C18.7626 15.3223 18.7641 15.3155 18.7664 15.3079C18.7718 15.2897 18.7764 15.2714 18.7803 15.2524C18.7826 15.2418 18.7834 15.2312 18.7849 15.2213C18.7872 15.2053 18.7903 15.1894 18.7918 15.1734C18.7941 15.1484 18.7957 15.1225 18.7957 15.0967C18.7957 15.0952 18.7957 15.0937 18.7957 15.0921C18.7957 15.064 18.7941 15.0367 18.791 15.0086C18.791 15.0025 18.7887 14.9964 18.788 14.9903C18.7857 14.9691 18.7826 14.9485 18.778 14.928C18.7764 14.9204 18.7741 14.9128 18.7726 14.906C18.768 14.887 18.7634 14.868 18.758 14.849C18.7557 14.8429 18.7534 14.8369 18.7518 14.8308C18.7449 14.811 18.738 14.7913 18.7303 14.7715C18.7288 14.7677 18.7272 14.7647 18.7257 14.7617C18.6849 14.669 18.6265 14.5816 18.5504 14.5056L16.0318 12.0168C15.7036 11.6932 15.1723 11.6932 14.8448 12.0168C14.5173 12.3404 14.5173 12.8662 14.8448 13.1898L15.9311 14.2633H13.8362C13.6962 14.2633 13.5571 14.2283 13.4356 14.1622C13.3118 14.0954 13.2065 13.9989 13.1304 13.8811L11.466 11.3255C11.2153 10.9403 10.6956 10.8286 10.3058 11.077C9.91607 11.3247 9.80305 11.8383 10.0544 12.2234L11.7174 14.7769C11.9434 15.1263 12.2586 15.4165 12.6299 15.6186C12.9989 15.8177 13.4164 15.9225 13.8362 15.9225H15.9296L14.8448 16.9945C14.5173 17.3181 14.5173 17.8438 14.8448 18.1675C15.0086 18.3293 15.2238 18.4106 15.4383 18.4106C15.6528 18.4106 15.8681 18.3293 16.0318 18.1675L18.542 15.687C18.585 15.6452 18.6242 15.5996 18.6573 15.5495C18.6588 15.548 18.6596 15.5457 18.6603 15.5442C18.6742 15.5237 18.6865 15.5024 18.6988 15.4803V15.4788Z" fill="white"/>
</svg>
