<svg width="25" height="14" viewBox="0 0 25 14" fill="none" xmlns="http://www.w3.org/2000/svg">
<path d="M11.0261 13.8982C11.7949 13.8982 12.4407 13.3201 12.4407 12.2679V7.29859C12.5544 7.71263 12.8681 8.06666 13.3924 8.36827L22.3404 13.5617C22.7164 13.7858 23.0477 13.8982 23.4321 13.8982C24.2002 13.8982 24.8459 13.3201 24.8459 12.2679V1.63035C24.8459 0.578144 24.2002 0 23.4321 0C23.0477 0 22.7164 0.112439 22.3404 0.336555L13.3924 5.52997C12.8681 5.83234 12.5544 6.17725 12.4407 6.59129V1.63035C12.4407 0.578144 11.8033 0 11.0353 0C10.6424 0 10.3195 0.112439 9.93515 0.336555L0.986371 5.52997C0.3229 5.91819 0 6.35806 0 6.94456C0 7.53106 0.332126 7.98841 0.986371 8.36827L9.93515 13.5617C10.3103 13.7858 10.6424 13.8982 11.0261 13.8982Z" fill="white"/>
</svg>
