<svg width="25" height="15" viewBox="0 0 25 15" fill="none" xmlns="http://www.w3.org/2000/svg">
<path d="M13.8199 14.4236C13.0511 14.4236 12.4053 13.8455 12.4053 12.7933V7.82398C12.2915 8.23802 11.9778 8.59205 11.4535 8.89366L2.50549 14.0871C2.12955 14.3112 1.7982 14.4236 1.41381 14.4236C0.64578 14.4236 0 13.8455 0 12.7933V2.15574C0 1.10353 0.64578 0.525391 1.41381 0.525391C1.7982 0.525391 2.12955 0.637829 2.50549 0.861945L11.4535 6.05536C11.9778 6.35773 12.2915 6.70264 12.4053 7.11668V2.15574C12.4053 1.10353 13.0426 0.525391 13.8106 0.525391C14.2035 0.525391 14.5264 0.637829 14.9108 0.861945L23.8596 6.05536C24.523 6.44358 24.8459 6.88345 24.8459 7.46995C24.8459 8.05645 24.5138 8.5138 23.8596 8.89366L14.9108 14.0871C14.5356 14.3112 14.2035 14.4236 13.8199 14.4236Z" fill="white"/>
</svg>
