<svg width="333" height="119" viewBox="0 0 333 119" fill="none" xmlns="http://www.w3.org/2000/svg">
<g clip-path="url(#clip0_7_2)">
<mask id="mask0_7_2" style="mask-type:alpha" maskUnits="userSpaceOnUse" x="0" y="0" width="333" height="119">
<path d="M308 0H25C11.1929 0 0 11.1929 0 25V94C0 107.807 11.1929 119 25 119H308C321.807 119 333 107.807 333 94V25C333 11.1929 321.807 0 308 0Z" fill="#B2D14B"/>
</mask>
<g mask="url(#mask0_7_2)">
<path d="M308 -13H25C11.1929 -13 0 -1.80712 0 12V107C0 120.807 11.1929 132 25 132H308C321.807 132 333 120.807 333 107V12C333 -1.80712 321.807 -13 308 -13Z" fill="#069A5C"/>
<path opacity="0.4" d="M440.989 117.494C440.989 79.967 426.38 44.688 399.835 18.1536C373.301 -8.39108 338.022 -23 300.494 -23C262.967 -23 227.688 -8.39108 201.154 18.1536C174.609 44.688 160 79.967 160 117.494C160 155.022 174.609 190.301 201.154 216.835C209.391 225.072 218.467 232.159 228.196 238.013C230.154 239.194 232.661 238.904 234.298 237.308L238.349 233.381C240.732 231.071 240.266 227.123 237.396 225.435C199.568 203.241 174.371 161.746 175.448 114.562C177.013 46.3147 233.708 -8.39108 301.966 -7.60365C370.265 -6.81622 425.582 48.9878 425.582 117.474C425.582 177.764 382.698 228.232 325.827 239.981C321.755 240.821 317.611 241.463 313.404 241.898C313.383 241.898 313.363 241.898 313.342 241.898C312.389 241.991 311.435 242.074 310.482 242.157C310.368 242.157 310.265 242.178 310.151 242.188C309.26 242.261 308.369 242.313 307.478 242.364C307.301 242.364 307.125 242.385 306.949 242.395C306.058 242.437 305.157 242.468 304.255 242.499C304.079 242.499 303.903 242.52 303.727 242.52C302.649 242.551 301.572 242.561 300.484 242.561C295.842 242.561 291.056 242.292 286.538 241.794C286.466 241.794 286.611 241.784 286.538 241.774L306.97 221.943L379.082 151.924C399.421 132.31 400.001 99.8186 380.398 79.48C360.785 59.1519 328.293 58.5613 307.954 78.1642L300.505 85.3547L293.055 78.1642C283.43 68.8808 270.852 63.8039 257.517 63.8039C257.196 63.8039 256.885 63.8039 256.564 63.8039C241.468 64.0733 227.481 70.8183 217.773 82.6609C211.048 90.8564 207.039 101.031 206.365 111.609C205.391 126.923 211.038 141.407 221.907 151.893L270.686 199.325C273.204 201.781 277.234 201.718 279.69 199.201L281.555 197.284C284.01 194.766 283.948 190.736 281.43 188.28L232.63 140.827C224.663 133.139 220.705 122.395 221.876 111.143C222.539 104.813 224.922 98.7307 228.755 93.6434C235.562 84.6087 245.778 79.4282 256.844 79.2314C266.417 79.0656 275.473 82.6194 282.363 89.2608L295.832 102.243C298.443 104.761 302.587 104.761 305.209 102.243L318.678 89.2608C332.893 75.5532 355.615 75.9573 369.332 90.1725C383.04 104.388 382.636 127.109 368.4 140.838L268.054 238.261C268.054 238.261 268.054 238.261 268.044 238.261L263.848 242.323C259.983 246.074 261.713 252.653 266.946 253.938C266.987 253.938 271.743 255.005 271.784 255.015L273.027 255.295C273.027 255.295 273.027 255.295 273.038 255.295H273.059C275.918 256.155 282.383 256.87 286.31 257.253C286.58 257.284 286.859 257.305 287.129 257.336C288.579 257.471 289.522 257.543 289.522 257.543H289.501C293.148 257.823 296.816 257.968 300.505 257.968C301.717 257.968 302.929 257.947 304.131 257.916C304.421 257.916 304.701 257.895 304.991 257.885C305.923 257.854 306.846 257.823 307.778 257.781C308.047 257.771 308.327 257.75 308.597 257.73C309.55 257.678 310.493 257.616 311.446 257.543C311.663 257.522 311.881 257.502 312.088 257.491C313.104 257.408 314.109 257.315 315.114 257.212C315.269 257.191 315.414 257.18 315.569 257.16C316.647 257.046 317.714 256.921 318.792 256.787C318.885 256.776 318.968 256.766 319.061 256.745C320.19 256.6 321.32 256.435 322.449 256.258C322.491 256.258 322.532 256.248 322.563 256.238C323.734 256.051 324.905 255.854 326.075 255.637C326.075 255.637 326.086 255.637 326.096 255.637C327.288 255.419 328.469 255.191 329.65 254.943C356.06 249.399 380.325 236.334 399.856 216.814C426.39 190.28 441.009 155.001 441.009 117.474L440.989 117.494Z" fill="#02844E"/>
<path opacity="0.3" d="M304.823 56.529C317.207 54.1441 325.313 42.1715 322.928 29.7873C320.544 17.4032 308.571 9.29709 296.187 11.6819C283.803 14.0667 275.696 26.0394 278.081 38.4235C280.466 50.8077 292.439 58.9138 304.823 56.529Z" fill="#02844E"/>
</g>
</g>
<defs>
<clipPath id="clip0_7_2">
<rect width="333" height="119" fill="white"/>
</clipPath>
</defs>
</svg>
