<svg width="37" height="38" viewBox="0 0 37 38" fill="none" xmlns="http://www.w3.org/2000/svg">
<path d="M18.3101 0.280294C8.16 0.173475 0.10671 8.40459 0.00093151 18.9965C-0.100146 29.0544 8.03776 37.4067 18.015 37.4859C27.95 37.5639 36.2395 29.3184 36.3206 19.2786C36.4053 8.71784 28.5095 0.388314 18.3101 0.280294ZM22.2391 11.0019C23.2393 11.0019 24.0491 11.83 24.0491 12.8502C24.0491 13.8704 23.2382 14.6985 22.2391 14.6985C21.2401 14.6985 20.4292 13.8704 20.4292 12.8502C20.4292 11.83 21.2401 11.0019 22.2391 11.0019ZM14.3716 11.0019C15.3718 11.0019 16.1816 11.83 16.1816 12.8502C16.1816 13.8704 15.3706 14.6985 14.3716 14.6985C13.3725 14.6985 12.5616 13.8704 12.5616 12.8502C12.5616 11.83 13.3725 11.0019 14.3716 11.0019ZM24.7849 18.8321C24.2172 21.5398 21.172 23.843 18.2031 23.8262C15.3247 23.8106 12.6003 21.7846 11.6319 18.9401C11.4062 18.2764 11.2487 17.5755 12.0973 17.2982C12.92 17.0294 13.0646 17.7243 13.2715 18.3268C14.1118 20.7681 15.7737 21.9863 18.2078 21.9863C20.6231 21.9863 22.2768 20.7609 23.1242 18.3112C23.3169 17.7555 23.4544 17.1086 24.2066 17.3114C24.9847 17.5215 24.9142 18.2092 24.7837 18.8321H24.7849Z" fill="#CFE2BC"/>
</svg>
