<svg width="21" height="21" viewBox="0 0 21 21" fill="none" xmlns="http://www.w3.org/2000/svg">
<path d="M13.6668 8.38886L9.44453 12.6112L7.33338 10.5M11.8154 1.48429L13.1043 2.58262C13.429 2.85933 13.8321 3.02662 14.2574 3.06055L15.9453 3.19507C16.9377 3.27427 17.7259 4.06202 17.8051 5.05441L17.9393 6.7426C17.9732 7.16786 18.1411 7.57161 18.4178 7.89631L19.5157 9.18478C20.1614 9.9425 20.1615 11.0571 19.5158 11.8148L18.4179 13.1035C18.1412 13.4282 17.9736 13.8321 17.9396 14.2573L17.8046 15.9452C17.7254 16.9376 16.9384 17.7259 15.946 17.8051L14.2575 17.9398C13.8322 17.9737 13.4287 18.1406 13.104 18.4173L11.8154 19.5156C11.0577 20.1614 9.94247 20.1615 9.18476 19.5158L7.89622 18.4174C7.57152 18.1407 7.16797 17.9735 6.74272 17.9396L5.05421 17.8051C4.06184 17.7259 3.27482 16.9378 3.19562 15.9454L3.06058 14.2574C3.02665 13.8322 2.85898 13.4286 2.58228 13.1039L1.48444 11.8149C0.838722 11.0571 0.838419 9.9429 1.48414 9.18518L2.58296 7.89612C2.85967 7.57142 3.02572 7.16787 3.05966 6.74261L3.19469 5.05461C3.27389 4.06222 4.06318 3.27416 5.05556 3.19497L6.7422 3.06045C7.16746 3.02651 7.5712 2.85936 7.8959 2.58265L9.18487 1.48429C9.94258 0.838569 11.0577 0.838569 11.8154 1.48429Z" stroke="#35716E" stroke-width="2" stroke-linecap="round" stroke-linejoin="round"/>
</svg>
