<svg width="23" height="22" viewBox="0 0 23 22" fill="none" xmlns="http://www.w3.org/2000/svg">
<path d="M1.17217 9.15622C0.837459 8.84708 1.01928 8.28821 1.47201 8.2346L7.88696 7.47469C8.07147 7.45284 8.23175 7.33712 8.30957 7.16861L11.0153 1.31013C11.2063 0.896676 11.7948 0.896596 11.9857 1.31005L14.6915 7.16849C14.7693 7.33699 14.9285 7.45303 15.1131 7.47488L21.5284 8.2346C21.9811 8.28821 22.1624 8.84724 21.8277 9.15638L17.0855 13.5371C16.9491 13.663 16.8883 13.8506 16.9245 14.0326L18.1831 20.3605C18.272 20.8071 17.7961 21.1531 17.3982 20.9307L11.7614 17.7787C11.5993 17.6881 11.4023 17.6885 11.2402 17.7791L5.60278 20.9299C5.20496 21.1523 4.7282 20.8071 4.81705 20.3605L6.07582 14.033C6.11203 13.851 6.05145 13.663 5.91503 13.537L1.17217 9.15622Z" stroke="#B2D14B" stroke-width="2" stroke-linecap="round" stroke-linejoin="round"/>
</svg>
