<svg width="33" height="29" viewBox="0 0 33 29" fill="none" xmlns="http://www.w3.org/2000/svg">
<path d="M15.9655 27.2678L16.1921 27.3609L16.4177 27.27L16.4275 27.2659C16.6511 27.1736 19.5141 25.9908 20.7905 25.1394C28.1452 20.2319 30.0147 16.6542 30.8718 13.8029C31.4902 11.7489 31.5486 9.53509 31.038 7.571C30.4845 5.43821 29.3105 3.70525 27.6445 2.55724C27.2693 2.29763 26.8655 2.0643 26.4474 1.86384C24.6296 0.992977 22.551 0.771702 20.5935 1.24054C18.9012 1.64585 17.3618 2.54848 16.191 3.81041C15.0203 2.54848 13.4809 1.64585 11.7886 1.24054C9.83215 0.771702 7.7536 0.992977 5.93473 1.86274C5.5166 2.06321 5.11388 2.29653 4.73756 2.55615C3.07164 3.70415 1.89867 5.43711 1.3441 7.5699C0.833537 9.53509 0.892956 11.7478 1.51025 13.8018C2.36742 16.6542 4.2369 20.2308 11.5916 25.1383C12.89 26.0048 15.9655 27.2678 15.9655 27.2678Z" stroke="#CDE9DD" stroke-width="2" stroke-miterlimit="10"/>
</svg>
