<svg width="20" height="22" viewBox="0 0 20 22" fill="none" xmlns="http://www.w3.org/2000/svg">
<path d="M1 7.66667H19M1 7.66667V17.4447C1 18.6892 1 19.3112 1.24524 19.7865C1.46095 20.2047 1.80491 20.545 2.22827 20.758C2.7091 21 3.33887 21 4.59652 21H15.4035C16.6611 21 17.29 21 17.7708 20.758C18.1942 20.545 18.5393 20.2047 18.755 19.7865C19 19.3116 19 18.6905 19 17.4484V7.66667M1 7.66667V6.778C1 5.53343 1 4.91069 1.24524 4.43533C1.46095 4.01719 1.80491 3.67748 2.22827 3.46443C2.70957 3.22222 3.3401 3.22222 4.60022 3.22222H5.5M19 7.66667V6.77434C19 5.53222 19 4.91022 18.755 4.43533C18.5393 4.01719 18.1942 3.67748 17.7708 3.46443C17.2895 3.22222 16.6603 3.22222 15.4002 3.22222H14.5M5.5 3.22222H14.5M5.5 3.22222V1M14.5 3.22222V1M13.375 12.1111L8.875 16.5556L6.625 14.3333" stroke="#B2D14B" stroke-width="2" stroke-linecap="round" stroke-linejoin="round"/>
</svg>
