<svg width="24" height="24" viewBox="0 0 24 24" fill="none" xmlns="http://www.w3.org/2000/svg">
<mask id="mask0_632_1510" style="mask-type:alpha" maskUnits="userSpaceOnUse" x="1" y="1" width="23" height="22">
<ellipse cx="12.0002" cy="12" rx="11.0002" ry="11" fill="#D9D9D9"/>
</mask>
<g mask="url(#mask0_632_1510)">
<rect width="24.0004" height="24" fill="#FF616D"/>
</g>
<path d="M11.4477 6.06006C11.622 5.98331 11.8104 5.94375 12.0008 5.94391C12.1911 5.94396 12.3793 5.98367 12.5534 6.06051C12.7275 6.13735 12.8837 6.24964 13.012 6.39021C13.1403 6.53079 13.2379 6.69655 13.2986 6.87694C13.3592 7.05733 13.3816 7.24838 13.3643 7.43791L12.8183 13.4469C12.7971 13.6489 12.7018 13.8359 12.5508 13.9719C12.3999 14.1078 12.2039 14.183 12.0008 14.183C11.7977 14.183 11.6017 14.1078 11.4508 13.9719C11.2998 13.8359 11.2045 13.6489 11.1833 13.4469L10.6358 7.43791C10.6185 7.24826 10.6409 7.05708 10.7017 6.87659C10.7624 6.69609 10.8601 6.53026 10.9886 6.38966C11.117 6.24907 11.2734 6.13681 11.4477 6.06006Z" fill="white"/>
<path d="M13.3093 16.7477C13.3093 17.4703 12.7235 18.0562 12.0009 18.0562C11.2782 18.0562 10.6924 17.4703 10.6924 16.7477C10.6924 16.025 11.2782 15.4392 12.0009 15.4392C12.7235 15.4392 13.3093 16.025 13.3093 16.7477Z" fill="white"/>
</svg>
