<svg width="89" height="91" viewBox="0 0 89 91" fill="none" xmlns="http://www.w3.org/2000/svg">
<path d="M44.8687 0.00292245C19.9955 -0.257182 0.263181 19.8732 0.00226275 45.7784C-0.244319 70.3773 19.6944 90.8057 44.1433 90.9986C68.4861 91.1915 88.8005 71.0232 88.9983 46.4652C89.2076 20.6359 69.8567 0.263027 44.8658 0L44.8687 0.00292245ZM26.9686 21.6325C27.0948 20.0777 27.8345 18.7889 28.9126 17.7368C30.1541 16.5239 31.7167 16.0154 33.1589 15.9161C36.2269 15.957 38.9364 17.8771 39.7966 20.6038C40.0059 21.2672 39.9887 22.1878 39.6934 22.7986C39.0913 24.0611 37.5257 24.0582 36.7315 22.8863C36.4477 22.4684 36.3215 21.9452 36.1036 21.4805C35.0399 19.2127 32.4507 18.9993 31.0716 21.0802C30.7562 21.5565 30.5727 22.1264 30.3146 22.6437C29.8989 23.4796 29.2796 23.953 28.3133 23.7104C27.4445 23.4912 26.8826 22.6759 26.9686 21.6296V21.6325ZM60.7905 35.8857C59.5289 42.3181 54.2646 47.6839 47.5438 49.1276C39.7966 50.7905 30.5354 45.8632 28.0237 36.8209C27.8861 36.327 27.7714 35.8126 27.7341 35.3012C27.5478 32.6972 28.4051 31.5983 30.8164 31.4785H30.8336C30.9598 31.4727 31.0888 31.4697 31.2207 31.4668C33.8241 31.4522 36.4276 31.4522 39.031 31.4551L44.1921 31.4405C48.5158 31.4405 52.8396 31.4259 57.1634 31.4464C60.1339 31.461 61.3668 32.9368 60.7905 35.8827V35.8857ZM60.7217 23.6841C59.7554 24.0144 58.8895 23.6345 58.511 22.4538C58.0064 20.8844 57.2609 19.7943 55.4574 19.8469C54.3306 19.879 53.4933 20.2911 53.0633 21.4016C52.9715 21.6413 52.8741 21.8809 52.7737 22.1177C52.2203 23.4123 51.4232 23.9296 50.5028 23.5877C49.4678 23.2048 48.9517 22.144 49.1897 20.8873C49.6914 18.2453 52.5013 15.9453 55.2797 15.9073C58.3619 15.8635 61.2607 18.1664 61.9689 21.2292C62.2327 22.3719 61.7424 23.3393 60.7188 23.6871L60.7217 23.6841Z" fill="#B2D14B"/>
</svg>
