<svg width="87" height="91" viewBox="0 0 87 91" fill="none" xmlns="http://www.w3.org/2000/svg">
<path d="M43.8584 0.00248551C19.5455 -0.257267 0.257019 19.8736 0.00225543 45.778C-0.241185 70.3778 19.2539 90.8068 43.1507 90.9986C66.9457 91.1905 86.8031 71.0213 86.9984 46.4658C87.2022 20.6351 68.2874 0.262238 43.8612 0.00248551H43.8584ZM27.9866 45.778C27.9866 42.965 30.1719 40.6863 32.8696 40.6863C35.5673 40.6863 37.7526 42.965 37.7526 45.778C37.7526 48.591 35.5673 50.8698 32.8696 50.8698C30.1719 50.8698 27.9866 48.591 27.9866 45.778ZM57.1542 65.5663C57.1542 67.0924 55.9682 68.3262 54.5075 68.3262L32.8696 74.7115C31.4061 74.7115 30.2229 73.4747 30.2229 71.9516V71.745C30.2229 70.2189 31.4089 68.9851 32.8696 68.9851L54.5075 62.5998C55.971 62.5998 57.1542 63.8366 57.1542 65.3597V65.5663ZM54.0886 50.8698C51.3909 50.8698 49.2056 48.591 49.2056 45.778C49.2056 42.965 51.3909 40.6863 54.0886 40.6863C56.7862 40.6863 58.9715 42.965 58.9715 45.778C58.9715 48.591 56.7862 50.8698 54.0886 50.8698Z" fill="#B2D14B"/>
</svg>
