<svg width="89" height="91" viewBox="0 0 89 91" fill="none" xmlns="http://www.w3.org/2000/svg">
<path d="M44.8662 0.00247965C19.9945 -0.256962 0.262617 19.8733 0.00230193 45.7792C-0.246444 70.379 19.6966 90.807 44.1431 90.9986C68.4855 91.1903 88.8017 71.0217 88.9984 46.4661C89.2037 20.634 69.8565 0.261921 44.8662 0.00247965ZM28.6283 44.1901C28.6283 41.3775 30.8641 39.0986 33.6235 39.0986C36.3828 39.0986 38.6187 41.3775 38.6187 44.1901C38.6187 47.0027 36.3828 49.2816 33.6235 49.2816C30.8641 49.2816 28.6283 47.0027 28.6283 44.1901ZM59.0737 66.8323C58.3968 67.5811 57.6304 67.9614 56.6585 67.4307C56.3288 67.2509 56.0048 67.0386 55.7214 66.791C50.6857 62.3775 39.1537 62.4277 34.2627 66.9413C34.04 67.1448 33.7797 67.3158 33.5194 67.4661C32.6603 67.9644 31.7839 68.1295 31.055 67.2745C30.3377 66.4343 30.1497 65.3729 30.8381 64.515C31.5901 63.5804 32.5157 62.7254 33.5107 62.068C36.9642 59.789 40.7822 58.7218 44.4989 58.8485C49.5837 58.7984 53.8789 60.0042 57.639 62.9112C58.2291 63.3681 58.7873 63.9106 59.2298 64.515C59.7852 65.2756 59.736 66.0982 59.0737 66.8293V66.8323ZM55.3338 49.2787C52.5745 49.2787 50.3386 46.9997 50.3386 44.1871C50.3386 41.3746 52.5745 39.0956 55.3338 39.0956C58.0931 39.0956 60.329 41.3746 60.329 44.1871C60.329 46.9997 58.0931 49.2787 55.3338 49.2787Z" fill="#B2D14B"/>
</svg>
