<svg width="87" height="91" viewBox="0 0 87 91" fill="none" xmlns="http://www.w3.org/2000/svg">
<path d="M43.8584 0.00248551C19.5455 -0.257267 0.257019 19.8736 0.00225543 45.778C-0.241185 70.3778 19.2539 90.8068 43.1507 90.9986C66.9457 91.1905 86.8031 71.0213 86.9984 46.4658C87.2022 20.6351 68.2874 0.262238 43.8612 0.00248551H43.8584ZM27.9866 36.7929C27.9866 33.9799 30.1719 31.7012 32.8696 31.7012C35.5673 31.7012 37.7526 33.9799 37.7526 36.7929C37.7526 39.6059 35.5673 41.8847 32.8696 41.8847C30.1719 41.8847 27.9866 39.6059 27.9866 36.7929ZM57.1542 59.8549C57.1542 61.3809 55.9682 62.6147 54.5075 62.6147H32.7733C31.3099 62.6147 30.1266 61.378 30.1266 59.8549V59.6482C30.1266 58.1222 31.3127 56.8884 32.7733 56.8884H54.5075C55.971 56.8884 57.1542 58.1251 57.1542 59.6482V59.8549ZM54.0886 41.8847C51.3909 41.8847 49.2056 39.6059 49.2056 36.7929C49.2056 33.9799 51.3909 31.7012 54.0886 31.7012C56.7862 31.7012 58.9716 33.9799 58.9716 36.7929C58.9716 39.6059 56.7862 41.8847 54.0886 41.8847Z" fill="#B2D14B"/>
</svg>
