<svg width="91" height="93" viewBox="0 0 91 93" fill="none" xmlns="http://www.w3.org/2000/svg">
<path d="M45.8743 0.00256937C20.4442 -0.264428 0.267353 20.3094 0.00233382 46.7841C-0.250907 71.9238 20.1379 92.8006 45.1352 92.9986C70.0264 93.1936 90.7951 72.5838 90.9983 47.4891C91.2103 21.0924 71.4281 0.272567 45.8743 0.00256937ZM55.7183 26.8013C58.2242 26.8013 60.2531 28.8713 60.2531 31.4213C60.2531 33.9712 58.2212 36.0412 55.7183 36.0412C53.2153 36.0412 51.1835 33.9712 51.1835 31.4213C51.1835 28.8713 53.2153 26.8013 55.7183 26.8013ZM36.0067 26.8013C38.5126 26.8013 40.5415 28.8713 40.5415 31.4213C40.5415 33.9712 38.5097 36.0412 36.0067 36.0412C33.5038 36.0412 31.4719 33.9712 31.4719 31.4213C31.4719 28.8713 33.5038 26.8013 36.0067 26.8013ZM62.0964 46.3731C60.6742 53.141 53.0445 58.898 45.6063 58.856C38.3948 58.817 31.5691 53.753 29.1427 46.6431C28.5773 44.9841 28.1828 43.2321 30.3088 42.5391C32.3701 41.8671 32.7323 43.6041 33.2505 45.1101C35.356 51.212 39.5197 54.257 45.6181 54.257C51.6694 54.257 55.8125 51.194 57.9356 45.0711C58.4185 43.6821 58.7631 42.0651 60.6477 42.5721C62.597 43.0971 62.4203 44.8161 62.0935 46.3731H62.0964Z" fill="#B7D456"/>
</svg>
