<svg width="53" height="53" viewBox="0 0 53 53" fill="none" xmlns="http://www.w3.org/2000/svg">
<path d="M52.9566 26.4783C52.9566 19.4057 50.2034 12.7568 45.2006 7.75604C40.1998 2.75328 33.5509 0 26.4783 0C19.4057 0 12.7568 2.75328 7.75604 7.75604C2.75328 12.7568 0 19.4057 0 26.4783C0 33.5509 2.75328 40.1998 7.75604 45.2006C9.30842 46.753 11.019 48.0886 12.8525 49.1919C13.2216 49.4145 13.6941 49.3598 14.0027 49.0591L14.7662 48.319C15.2153 47.8836 15.1274 47.1396 14.5865 46.8213C7.45728 42.6387 2.70837 34.8182 2.91144 25.9257C3.2063 13.0634 13.8914 2.75328 26.7556 2.90168C39.6277 3.05008 50.053 13.5672 50.053 26.4744C50.053 37.8371 41.9709 47.3486 31.2526 49.5629C30.4852 49.7211 29.7041 49.8421 28.9114 49.9241C28.9075 49.9241 28.9035 49.9241 28.8996 49.9241C28.72 49.9417 28.5404 49.9573 28.3607 49.9729C28.3392 49.9729 28.3197 49.9769 28.2982 49.9788C28.1303 49.9925 27.9624 50.0022 27.7944 50.012C27.7612 50.012 27.728 50.0159 27.6948 50.0179C27.5269 50.0257 27.357 50.0315 27.1871 50.0374C27.1539 50.0374 27.1208 50.0413 27.0876 50.0413C26.8845 50.0471 26.6814 50.0491 26.4764 50.0491C25.6016 50.0491 24.6994 49.9983 23.8481 49.9046C23.8344 49.9046 23.8617 49.9027 23.8481 49.9007L27.6987 46.1633L41.2894 32.9671C45.1225 29.2707 45.2318 23.1471 41.5374 19.3139C37.841 15.4828 31.7174 15.3715 27.8843 19.066L26.4803 20.4211L25.0763 19.066C23.2623 17.3164 20.8917 16.3595 18.3786 16.3595C18.3181 16.3595 18.2595 16.3595 18.199 16.3595C15.3539 16.4103 12.7178 17.6815 10.8881 19.9134C9.62085 21.458 8.86516 23.3755 8.73824 25.3692C8.55468 28.2553 9.61889 30.9851 11.6673 32.9612L20.8605 41.9006C21.335 42.3634 22.0946 42.3516 22.5573 41.8771L22.9088 41.5159C23.3716 41.0414 23.3599 40.2818 22.8854 39.819L13.6883 30.8758C12.1867 29.4269 11.4407 27.4019 11.6614 25.2813C11.7864 24.0882 12.2355 22.942 12.958 21.9833C14.2409 20.2805 16.1662 19.3042 18.2517 19.2671C20.056 19.2358 21.7626 19.9056 23.0611 21.1573L25.5996 23.604C26.0917 24.0785 26.8728 24.0785 27.3668 23.604L29.9053 21.1573C32.5843 18.5739 36.8666 18.65 39.4519 21.3291C42.0353 24.0082 41.9592 28.2904 39.2762 30.8777L20.3645 49.2387C20.3645 49.2387 20.3645 49.2387 20.3625 49.2387L19.5717 50.0042C18.8433 50.7111 19.1694 51.951 20.1555 52.1931C20.1634 52.1931 21.0596 52.3943 21.0674 52.3962L21.3018 52.4489C21.3018 52.4489 21.3018 52.4489 21.3037 52.4489H21.3076C21.8466 52.611 23.065 52.7458 23.8051 52.818C23.8559 52.8239 23.9086 52.8278 23.9594 52.8336C24.2327 52.859 24.4104 52.8727 24.4104 52.8727H24.4065C25.0939 52.9254 25.7851 52.9527 26.4803 52.9527C26.7087 52.9527 26.9372 52.9488 27.1637 52.943C27.2184 52.943 27.2711 52.9391 27.3258 52.9371C27.5015 52.9313 27.6753 52.9254 27.8511 52.9176C27.9018 52.9156 27.9545 52.9117 28.0053 52.9078C28.185 52.8981 28.3627 52.8863 28.5423 52.8727C28.5833 52.8688 28.6243 52.8649 28.6634 52.8629C28.8547 52.8473 29.0441 52.8297 29.2336 52.8102C29.2628 52.8063 29.2902 52.8043 29.3195 52.8004C29.5225 52.7789 29.7237 52.7555 29.9268 52.7301C29.9443 52.7282 29.9599 52.7262 29.9775 52.7223C30.1904 52.695 30.4032 52.6637 30.616 52.6305C30.6239 52.6305 30.6317 52.6286 30.6375 52.6266C30.8582 52.5915 31.0788 52.5544 31.2995 52.5134C31.2995 52.5134 31.3014 52.5134 31.3034 52.5134C31.5279 52.4724 31.7506 52.4294 31.9732 52.3826C36.9505 51.3379 41.5237 48.8755 45.2045 45.1967C50.2053 40.1959 52.9605 33.547 52.9605 26.4744L52.9566 26.4783Z" fill="#B2D14B"/>
<path d="M27.2941 14.9207C29.6281 14.4712 31.1558 12.2148 30.7064 9.88079C30.2569 7.5468 28.0005 6.01908 25.6665 6.46854C23.3325 6.91799 21.8048 9.17442 22.2542 11.5084C22.7037 13.8424 24.9601 15.3701 27.2941 14.9207Z" fill="#B2D14B"/>
</svg>
