<svg width="23" height="20" viewBox="0 0 23 20" fill="none" xmlns="http://www.w3.org/2000/svg">
<path d="M11.664 19.816C11.2435 19.816 10.8222 19.6587 10.4939 19.3434L3.23801 12.3723L2.16478 11.3079C0.966993 10.1516 0.307373 8.61322 0.307373 6.97604C0.307373 5.33657 0.968534 3.79587 2.16862 2.63882C4.63261 0.26167 8.64265 0.26167 11.1082 2.63882L11.6556 3.16682L12.1983 2.64338C14.6631 0.266228 18.6739 0.266228 21.1387 2.64338C22.3388 3.80118 22.9999 5.34113 22.9999 6.97983C22.9999 8.61854 22.3388 10.1592 21.1387 11.3163L20.0508 12.3655L12.8387 19.3389C12.5097 19.6572 12.0869 19.816 11.664 19.816ZM4.33893 11.2806L11.581 18.2381C11.6271 18.2821 11.7025 18.2821 11.7486 18.2381L18.9614 11.2639L20.05 10.2139C20.9472 9.34863 21.4408 8.2007 21.4408 6.97983C21.4408 5.75897 20.9472 4.61104 20.05 3.74573C18.1857 1.94824 15.1521 1.94824 13.2877 3.74573L11.6563 5.31986L10.0188 3.74041C8.15448 1.94216 5.12156 1.94216 3.258 3.74041C2.36082 4.60572 1.86726 5.75441 1.86726 6.97528C1.86726 8.19538 2.36159 9.34407 3.258 10.2086L3.2657 10.2162L4.33816 11.2798L4.33893 11.2806Z" fill="#B2D14B"/>
</svg>
