<svg width="37" height="38" viewBox="0 0 37 38" fill="none" xmlns="http://www.w3.org/2000/svg">
<path d="M18.7245 0.28028C8.57429 0.174202 0.521604 8.40489 0.415368 18.997C0.313854 29.0551 8.45271 37.4076 18.4294 37.4859C28.3637 37.5643 36.6548 29.3179 36.7351 19.2779C36.8189 8.71589 28.9232 0.386358 18.7245 0.28028ZM12.0978 18.3473C12.0978 17.1973 13.0102 16.2655 14.1363 16.2655C15.2624 16.2655 16.1749 17.1973 16.1749 18.3473C16.1749 19.4973 15.2624 20.4291 14.1363 20.4291C13.0102 20.4291 12.0978 19.4973 12.0978 18.3473ZM24.5227 27.605C24.2465 27.9112 23.9337 28.0667 23.537 27.8497C23.4025 27.7762 23.2703 27.6894 23.1546 27.5881C21.0995 25.7836 16.3933 25.8041 14.3972 27.6496C14.3063 27.7328 14.2001 27.8027 14.0938 27.8642C13.7433 28.0679 13.3856 28.1354 13.0881 27.7858C12.7954 27.4423 12.7187 27.0083 12.9996 26.6575C13.3065 26.2754 13.6842 25.9258 14.0903 25.657C15.4997 24.7252 17.0578 24.2889 18.5746 24.3407C20.6498 24.3202 22.4027 24.8132 23.9372 26.0018C24.178 26.1886 24.4058 26.4104 24.5864 26.6575C24.813 26.9685 24.793 27.3048 24.5227 27.6038V27.605ZM22.9964 20.4279C21.8703 20.4279 20.9579 19.4961 20.9579 18.3461C20.9579 17.1961 21.8703 16.2643 22.9964 16.2643C24.1225 16.2643 25.035 17.1961 25.035 18.3461C25.035 19.4961 24.1225 20.4279 22.9964 20.4279Z" fill="#F0CECE"/>
</svg>
