<svg width="37" height="38" viewBox="0 0 37 38" fill="none" xmlns="http://www.w3.org/2000/svg">
<path d="M18.4132 0.166356C8.26236 0.060007 0.209517 8.29071 0.103035 18.8826C0.00240397 28.9404 8.13949 37.2929 18.1172 37.3718C28.0516 37.4507 36.342 29.2044 36.4227 19.1634C36.5082 8.60259 28.6109 0.272705 18.4121 0.165161L18.4132 0.166356ZM11.1081 9.01006C11.1596 8.37435 11.4615 7.84739 11.9015 7.41721C12.4081 6.92131 13.0459 6.7134 13.6344 6.67277C14.8865 6.6895 15.9923 7.47457 16.3433 8.58944C16.4287 8.86069 16.4217 9.2371 16.3012 9.48684C16.0554 10.003 15.4165 10.0019 15.0924 9.52268C14.9766 9.35181 14.9251 9.13792 14.8362 8.94792C14.402 8.02065 13.3454 7.93342 12.7826 8.78421C12.6539 8.97899 12.579 9.212 12.4737 9.4235C12.304 9.76526 12.0512 9.95884 11.6569 9.85966C11.3024 9.77004 11.073 9.43665 11.1081 9.00886V9.01006ZM24.911 14.8377C24.3961 17.4678 22.2478 19.6617 19.505 20.252C16.3433 20.9319 12.5638 18.9173 11.5387 15.2201C11.4826 15.0182 11.4358 14.8079 11.4205 14.5988C11.3445 13.5341 11.6944 13.0848 12.6784 13.0358H12.6855C12.7369 13.0334 12.7896 13.0322 12.8434 13.031C13.9059 13.025 14.9684 13.025 16.0309 13.0262L18.1371 13.0203C19.9017 13.0203 21.6662 13.0143 23.4308 13.0226C24.643 13.0286 25.1462 13.6321 24.911 14.8366V14.8377ZM24.8829 9.8489C24.4886 9.98393 24.1352 9.82859 23.9807 9.34583C23.7748 8.70416 23.4706 8.25844 22.7345 8.27995C22.2747 8.2931 21.933 8.46158 21.7575 8.91566C21.72 9.01364 21.6803 9.11163 21.6393 9.20842C21.4135 9.73777 21.0882 9.94928 20.7126 9.80947C20.2901 9.65293 20.0795 9.21917 20.1766 8.70535C20.3814 7.62513 21.5281 6.68472 22.662 6.66918C23.9199 6.65126 25.1029 7.59287 25.3919 8.84516C25.4996 9.31238 25.2995 9.7079 24.8817 9.8501L24.8829 9.8489Z" fill="#B2D14B"/>
</svg>
