<svg width="37" height="37" viewBox="0 0 37 37" fill="none" xmlns="http://www.w3.org/2000/svg">
<path d="M18.3442 0.280278C8.19401 0.175545 0.141406 8.21143 0.0339588 18.5503C-0.0675195 28.3678 8.07104 36.5227 18.0482 36.6C27.9823 36.6762 36.2725 28.6272 36.3536 18.8252C36.4396 8.51492 28.5434 0.383821 18.3442 0.280278ZM11.4437 24.0999C11.1882 23.5429 11.4115 23.1276 11.9045 22.8634C12.4513 22.5706 13.0268 22.3314 13.8326 21.9565C12.9551 21.4875 12.3116 21.1769 11.7016 20.808C11.1118 20.4509 10.7202 19.9439 11.1512 19.2465C11.544 18.611 12.0967 18.8847 12.5707 19.1572C13.6213 19.763 14.6803 20.364 15.6867 21.0389C16.6788 21.7041 16.6585 22.5373 15.6091 23.1383C14.6767 23.6727 13.6703 24.0809 12.6841 24.5177C12.1684 24.7462 11.7052 24.6664 11.4437 24.0987V24.0999ZM24.0007 29.9019C23.5256 30.159 23.1459 29.8686 22.7544 29.6472C20.7236 28.5035 18.5842 28.0381 16.2741 28.6177C15.393 28.8391 14.5716 29.1866 13.8123 29.6781C13.3073 30.0054 12.7999 30.1447 12.4119 29.5437C12.0442 28.9748 12.3069 28.5416 12.7892 28.1655C15.4993 26.0529 21.0042 26.047 23.756 28.1607C24.0807 28.4094 24.3935 28.6641 24.4317 29.114C24.4198 29.4496 24.3004 29.7388 24.0007 29.9019ZM25.0657 20.4914C24.3756 20.971 23.6569 21.409 22.7472 21.9957C23.5435 22.3528 24.0831 22.5611 24.5893 22.8336C25.0215 23.0657 25.2639 23.4596 25.0633 23.9559C24.8365 24.5153 24.3649 24.6283 23.8384 24.4248C22.8343 24.038 21.8136 23.6762 20.8537 23.1978C19.8413 22.6932 19.7518 21.7101 20.6806 21.0698C21.7849 20.3093 22.9716 19.6666 24.138 18.9989C24.6084 18.73 25.1075 18.7062 25.4382 19.231C25.7724 19.763 25.5038 20.1879 25.0657 20.4938V20.4914Z" fill="#EAE3DA"/>
</svg>
