<svg width="36" height="38" viewBox="0 0 36 38" fill="none" xmlns="http://www.w3.org/2000/svg">
<path d="M18.4313 0.280283C8.52851 0.174077 0.672251 8.40499 0.568485 18.9965C0.46933 29.0547 8.40975 37.4075 18.143 37.4859C27.8348 37.5644 35.9228 29.3178 36.0023 19.2778C36.0854 8.71636 28.3813 0.386488 18.4324 0.280283H18.4313ZM11.9666 15.3228C11.9666 14.1727 12.8567 13.2409 13.9555 13.2409C15.0542 13.2409 15.9443 14.1727 15.9443 15.3228C15.9443 16.473 15.0542 17.4047 13.9555 17.4047C12.8567 17.4047 11.9666 16.473 11.9666 15.3228ZM23.8467 24.7521C23.8467 25.3761 23.3636 25.8806 22.7687 25.8806H13.9163C13.3202 25.8806 12.8383 25.3749 12.8383 24.7521V24.6677C12.8383 24.0437 13.3213 23.5392 13.9163 23.5392H22.7687C23.3648 23.5392 23.8467 24.0449 23.8467 24.6677V24.7521ZM22.5981 17.4047C21.4993 17.4047 20.6092 16.473 20.6092 15.3228C20.6092 14.1727 21.4993 13.2409 22.5981 13.2409C23.6968 13.2409 24.5869 14.1727 24.5869 15.3228C24.5869 16.473 23.6968 17.4047 22.5981 17.4047Z" fill="#FFE195"/>
</svg>
