<svg width="24" height="28" viewBox="0 0 24 28" fill="none" xmlns="http://www.w3.org/2000/svg">
<path d="M13.9412 12.7H6.17647M8.76471 17.9H6.17647M16.5294 7.5H6.17647M21.7059 11.4V7.24C21.7059 5.0558 21.7059 3.96369 21.2827 3.12944C20.9105 2.3956 20.3166 1.79898 19.5861 1.42507C18.7556 1 17.6684 1 15.4941 1H7.21177C5.03744 1 3.95028 1 3.1198 1.42507C2.38929 1.79898 1.79537 2.3956 1.42315 3.12944C1 3.96369 1 5.0558 1 7.24V20.76C1 22.9442 1 24.0363 1.42315 24.8706C1.79537 25.6044 2.38929 26.201 3.1198 26.5749C3.95028 27 5.03744 27 7.21177 27H12M19.1176 25.7C19.1176 25.7 23 23.8411 23 21.0528V17.7998L20.169 16.7836C19.4888 16.5388 18.7449 16.5388 18.0648 16.7836L15.2353 17.7998V21.0528C15.2353 23.8411 19.1176 25.7 19.1176 25.7Z" stroke="#069A5C" stroke-width="2" stroke-linecap="round" stroke-linejoin="round"/>
</svg>
