<svg width="23" height="21" viewBox="0 0 23 21" fill="none" xmlns="http://www.w3.org/2000/svg">
<path d="M11.344 18.9364L11.5006 19L11.6565 18.9379L11.6633 18.9352C11.8176 18.8722 13.7967 18.0645 14.679 17.4831C19.7624 14.1321 21.0546 11.6892 21.6471 9.74216C22.0745 8.33969 22.1148 6.82801 21.7619 5.48687C21.3794 4.03054 20.5679 2.84722 19.4164 2.06333C19.157 1.88606 18.8779 1.72674 18.5889 1.58985C17.3325 0.995205 15.8958 0.844111 14.5428 1.16425C13.3731 1.441 12.3091 2.05735 11.4999 2.91903C10.6907 2.05735 9.62665 1.441 8.45693 1.16425C7.10468 0.844111 5.66801 0.995205 4.41083 1.58911C4.12182 1.72599 3.84346 1.88531 3.58336 2.06258C2.43189 2.84647 1.62115 4.02979 1.23784 5.48612C0.884943 6.82801 0.926012 8.33894 1.35268 9.74142C1.94514 11.6892 3.23731 14.1314 8.32079 17.4823C9.21824 18.074 11.344 18.9364 11.344 18.9364Z" stroke="#D4D6DD" stroke-width="2" stroke-miterlimit="10"/>
</svg>
