<svg width="22" height="22" viewBox="0 0 22 22" fill="none" xmlns="http://www.w3.org/2000/svg">
<path d="M7.66667 5.44444H2.77778C2.1555 5.44444 1.84436 5.44444 1.60668 5.56555C1.39761 5.67207 1.22763 5.84205 1.1211 6.05112C1 6.2888 1 6.59994 1 7.22222V19.2222C1 19.8445 1 20.1556 1.1211 20.3933C1.22763 20.6024 1.39761 20.7724 1.60668 20.8789C1.84436 21 2.1555 21 2.77778 21H7.66667M7.66667 21H14.3333M7.66667 21L7.66667 2.77778C7.66667 2.1555 7.66667 1.84436 7.78777 1.60668C7.8943 1.39761 8.06428 1.22763 8.27334 1.1211C8.51102 1 8.82216 1 9.44444 1L12.5556 1C13.1778 1 13.489 1 13.7267 1.1211C13.9357 1.22763 14.1057 1.39761 14.2122 1.60668C14.3333 1.84436 14.3333 2.1555 14.3333 2.77778V21M14.3333 9.88889H19.2222C19.8445 9.88889 20.1556 9.88889 20.3933 10.01C20.6024 10.1165 20.7724 10.2865 20.8789 10.4956C21 10.7332 21 11.0444 21 11.6667V19.2222C21 19.8445 21 20.1556 20.8789 20.3933C20.7724 20.6024 20.6024 20.7724 20.3933 20.8789C20.1556 21 19.8445 21 19.2222 21H14.3333" stroke="#B2D14B" stroke-width="2" stroke-linecap="round" stroke-linejoin="round"/>
</svg>
