<svg width="18" height="19" viewBox="0 0 18 19" fill="none" xmlns="http://www.w3.org/2000/svg">
<path d="M1.4201 10.652C1.88368 10.652 2.25963 10.2805 2.25963 9.82237C2.25963 8.49287 2.78395 7.24314 3.73495 6.30261C4.68672 5.36208 5.95139 4.84472 7.29678 4.84472H14.5035L13.4187 5.91668C13.0912 6.24031 13.0912 6.76604 13.4187 7.08968C13.5824 7.2515 13.7977 7.33279 14.0122 7.33279C14.2267 7.33279 14.442 7.2515 14.6057 7.08968L17.1158 4.60921C17.1597 4.56742 17.1981 4.52108 17.2319 4.47094C17.2319 4.47018 17.2327 4.46942 17.2335 4.46866C17.2481 4.44739 17.2611 4.42459 17.2734 4.4018C17.2757 4.398 17.2773 4.39421 17.2788 4.39117C17.2896 4.37065 17.2996 4.35014 17.308 4.32887C17.3103 4.32431 17.3111 4.31975 17.3134 4.31444C17.3211 4.29392 17.3288 4.27341 17.3349 4.2529C17.3365 4.24758 17.338 4.2415 17.3396 4.23618C17.3449 4.21567 17.3503 4.19592 17.3549 4.17465C17.3565 4.16705 17.3572 4.15869 17.3588 4.1511C17.3618 4.13286 17.3649 4.11387 17.3672 4.09488C17.3688 4.0774 17.3695 4.05993 17.3695 4.04246C17.3695 4.03334 17.3711 4.02422 17.3711 4.01511C17.3711 4.01511 17.3711 4.01511 17.3711 4.01435C17.3711 3.987 17.3695 3.95965 17.3672 3.9323C17.3665 3.92394 17.3649 3.91559 17.3634 3.90647C17.3611 3.88748 17.3588 3.86924 17.3549 3.85101C17.3534 3.84189 17.3503 3.83354 17.3488 3.82518C17.3442 3.80695 17.3403 3.78947 17.3349 3.77124C17.3326 3.7644 17.3303 3.75756 17.328 3.75073C17.3219 3.73173 17.315 3.71274 17.3073 3.69375C17.3057 3.68995 17.3034 3.68615 17.3019 3.68235C17.2927 3.66108 17.2827 3.64057 17.2711 3.61929C17.2335 3.55016 17.1858 3.48559 17.1266 3.42785L14.608 0.939018C14.2797 0.615379 13.7485 0.615379 13.421 0.939018C13.0935 1.26266 13.0935 1.78838 13.421 2.11202L14.5073 3.1855H7.29907C5.50547 3.1855 3.81873 3.87608 2.55022 5.12961C1.28171 6.38314 0.582886 8.04996 0.582886 9.82237C0.582886 10.2805 0.958821 10.652 1.4224 10.652H1.4201Z" fill="white"/>
<path d="M16.5309 8.99273C16.0673 8.99273 15.6914 9.36423 15.6914 9.82234C15.6914 11.1518 15.1671 12.4016 14.2161 13.3421C13.2643 14.2826 11.9996 14.8 10.6542 14.8H3.44599L4.53229 13.7265C4.8598 13.4029 4.8598 12.8772 4.53229 12.5535C4.20402 12.2299 3.67278 12.2299 3.34527 12.5535L0.826699 15.0423C0.753664 15.1145 0.696005 15.1996 0.65449 15.2915C0.652183 15.2976 0.649119 15.3029 0.646044 15.3082C0.639124 15.3234 0.634494 15.3394 0.628344 15.3553C0.6245 15.3652 0.620664 15.3751 0.617589 15.385C0.612976 15.3994 0.609909 15.4146 0.606065 15.4298C0.60299 15.4412 0.599906 15.4526 0.5976 15.464C0.593756 15.483 0.59146 15.502 0.589153 15.5202C0.588385 15.5286 0.586075 15.5362 0.585306 15.5445C0.582231 15.5719 0.580688 15.6 0.580688 15.6281C0.580688 15.6456 0.582229 15.663 0.583767 15.6805C0.583767 15.6904 0.583768 15.6995 0.585306 15.7094C0.605294 15.9099 0.69755 16.0892 0.835164 16.2222L3.34527 18.7019C3.50903 18.8637 3.72429 18.945 3.93878 18.945C4.15328 18.945 4.36854 18.8637 4.53229 18.7019C4.8598 18.3775 4.8598 17.8525 4.53229 17.5289L3.4483 16.4577H10.6542C12.4478 16.4577 14.1346 15.7671 15.4031 14.5136C16.6716 13.2601 17.3704 11.5932 17.3704 9.82082C17.3704 9.36271 16.9945 8.99121 16.5309 8.99121V8.99273Z" fill="white"/>
</svg>
