<svg width="29" height="30" viewBox="0 0 29 30" fill="none" xmlns="http://www.w3.org/2000/svg">
<path d="M14.4263 18.6388C9.97721 18.6388 6.37052 15.0321 6.37052 10.583V3.12392C6.37052 2.56828 6.37052 2.29046 6.45149 2.06799C6.58723 1.69506 6.881 1.40128 7.25394 1.26554C7.47641 1.18457 7.75423 1.18457 8.30987 1.18457H20.5427C21.0984 1.18457 21.3762 1.18457 21.5986 1.26554C21.9716 1.40128 22.2654 1.69506 22.4011 2.06799C22.4821 2.29046 22.4821 2.56828 22.4821 3.12392V10.583C22.4821 15.0321 18.8754 18.6388 14.4263 18.6388ZM14.4263 18.6388V22.6666M22.4821 3.86983H25.8386C26.4642 3.86983 26.777 3.86983 27.0238 3.97203C27.3527 4.1083 27.6141 4.36967 27.7504 4.69866C27.8526 4.94539 27.8526 5.25819 27.8526 5.88377V6.55509C27.8526 7.8037 27.8526 8.428 27.7153 8.94021C27.3429 10.3302 26.2572 11.4159 24.8672 11.7884C24.355 11.9256 23.7307 11.9256 22.4821 11.9256M6.37052 3.86983H3.01394C2.38836 3.86983 2.07556 3.86983 1.82883 3.97203C1.49985 4.1083 1.23847 4.36967 1.1022 4.69866C1 4.94539 1 5.25819 1 5.88377V6.55509C1 7.8037 1 8.428 1.13725 8.94021C1.50969 10.3302 2.5954 11.4159 3.98539 11.7884C4.49761 11.9256 5.12191 11.9256 6.37052 11.9256M8.30987 28.0372H20.5427C20.8723 28.0372 21.1394 27.77 21.1394 27.4404C21.1394 24.8039 19.0021 22.6666 16.3656 22.6666H12.4869C9.85045 22.6666 7.71315 24.8039 7.71315 27.4404C7.71315 27.77 7.98031 28.0372 8.30987 28.0372Z" stroke="#069A5C" stroke-width="2" stroke-linecap="round" stroke-linejoin="round"/>
</svg>
