<svg width="45" height="46" viewBox="0 0 45 46" fill="none" xmlns="http://www.w3.org/2000/svg">
<g clip-path="url(#clip0_5_9)">
<path d="M22.6823 0.501445C10.3854 0.372822 0.630112 10.3274 0.501119 23.1377C0.379213 35.302 10.2366 45.4039 22.3237 45.4993C34.3583 45.5947 44.4014 35.6213 44.4992 23.4773C44.6026 10.7046 35.0359 0.630068 22.6809 0.5L22.6823 0.501445ZM13.8328 11.1974C13.8952 10.4286 14.2609 9.79122 14.7938 9.27094C15.4076 8.67118 16.1802 8.41972 16.8932 8.37058C18.4099 8.39081 19.7495 9.34031 20.1747 10.6887C20.2782 11.0167 20.2697 11.472 20.1237 11.774C19.826 12.3984 19.052 12.3969 18.6594 11.8174C18.5191 11.6107 18.4567 11.352 18.349 11.1222C17.8231 10.0008 16.5431 9.89527 15.8612 10.9243C15.7053 11.1598 15.6146 11.4416 15.487 11.6974C15.2815 12.1108 14.9753 12.3449 14.4976 12.2249C14.0681 12.1166 13.7903 11.7133 13.8328 11.196V11.1974ZM30.5537 18.2457C29.93 21.4266 27.3275 24.08 24.0048 24.7939C20.1747 25.6162 15.5962 23.1796 14.3544 18.7081C14.2864 18.4639 14.2297 18.2095 14.2113 17.9566C14.1191 16.6689 14.543 16.1255 15.7351 16.0663H15.7436C15.806 16.0634 15.8697 16.062 15.935 16.0605C17.222 16.0533 18.5091 16.0533 19.7962 16.0547L22.3478 16.0475C24.4854 16.0475 26.623 16.0403 28.7606 16.0504C30.2291 16.0576 30.8386 16.7875 30.5537 18.2442V18.2457ZM30.5197 12.2119C30.042 12.3752 29.6139 12.1874 29.4268 11.6035C29.1773 10.8274 28.8088 10.2884 27.9172 10.3144C27.3601 10.3303 26.9461 10.534 26.7335 11.0832C26.6882 11.2017 26.64 11.3202 26.5904 11.4373C26.3168 12.0775 25.9227 12.3333 25.4677 12.1642C24.956 11.9749 24.7008 11.4503 24.8185 10.8289C25.0665 9.52241 26.4557 8.38503 27.8293 8.36625C29.3531 8.34457 30.7862 9.48339 31.1363 10.998C31.2667 11.563 31.0243 12.0414 30.5183 12.2134L30.5197 12.2119Z" fill="#B2D14B"/>
</g>
<defs>
<clipPath id="clip0_5_9">
<rect width="44" height="45" fill="white" transform="translate(0.5 0.5)"/>
</clipPath>
</defs>
</svg>
