<svg width="45" height="45" viewBox="0 0 45 45" fill="none" xmlns="http://www.w3.org/2000/svg">
<g clip-path="url(#clip0_5_5)">
<path d="M22.6824 0.501226C10.3863 0.374351 0.6313 10.1091 0.501137 22.6336C0.378205 34.5267 10.2373 44.4056 22.3237 44.4993C34.358 44.5916 44.4008 34.841 44.4992 22.9667C44.6033 10.4767 35.0377 0.626659 22.6824 0.501226ZM14.323 29.3566C14.0135 28.6818 14.284 28.1786 14.8813 27.8586C15.5437 27.5039 16.2408 27.2141 17.217 26.76C16.154 26.1919 15.3744 25.8156 14.6354 25.3687C13.921 24.9361 13.4466 24.3219 13.9687 23.4771C14.4445 22.7072 15.1141 23.0388 15.6883 23.3689C16.961 24.1028 18.2438 24.8309 19.463 25.6484C20.6648 26.4543 20.6403 27.4635 19.369 28.1916C18.2395 28.839 17.0203 29.3335 15.8257 29.8626C15.2009 30.1394 14.6397 30.0428 14.323 29.3551V29.3566ZM29.5347 36.3851C28.9591 36.6966 28.4992 36.3448 28.0248 36.0766C25.5648 34.6911 22.9731 34.1273 20.1746 34.8295C19.1072 35.0976 18.1122 35.5186 17.1924 36.1141C16.5806 36.5106 15.966 36.6793 15.4959 35.9512C15.0505 35.262 15.3687 34.7372 15.9529 34.2816C19.2359 31.7225 25.9046 31.7153 29.2383 34.2758C29.6316 34.5772 30.0106 34.8857 30.0568 35.4307C30.0424 35.8373 29.8978 36.1876 29.5347 36.3851ZM30.8248 24.9852C29.9889 25.5662 29.1182 26.0968 28.0162 26.8075C28.9808 27.2401 29.6345 27.4924 30.2477 27.8225C30.7713 28.1037 31.0649 28.5809 30.8219 29.1821C30.5471 29.8597 29.9758 29.9967 29.3381 29.7502C28.1217 29.2816 26.8852 28.8433 25.7224 28.2637C24.496 27.6524 24.3875 26.4615 25.5127 25.6859C26.8505 24.7646 28.2881 23.986 29.7011 23.1772C30.2709 22.8514 30.8754 22.8225 31.276 23.4583C31.681 24.1028 31.3556 24.6175 30.8248 24.988V24.9852Z" fill="#F0CECE"/>
</g>
<defs>
<clipPath id="clip0_5_5">
<rect width="44" height="44" fill="white" transform="translate(0.5 0.5)"/>
</clipPath>
</defs>
</svg>
