<svg width="46" height="47" viewBox="0 0 46 47" fill="none" xmlns="http://www.w3.org/2000/svg">
<g clip-path="url(#clip0_5_11)">
<path d="M23.1852 0.501253C10.6096 0.370107 0.632784 10.5459 0.501164 23.6411C0.375393 36.0762 10.459 46.4024 22.8196 46.4993C35.1275 46.5962 45.3997 36.4011 45.4992 23.9884C45.603 10.9304 35.8207 0.6324 23.1852 0.501253ZM14.975 22.8379C14.975 21.4161 16.1055 20.2641 17.5006 20.2641C18.8958 20.2641 20.0263 21.4161 20.0263 22.8379C20.0263 24.2596 18.8958 25.4116 17.5006 25.4116C16.1055 25.4116 14.975 24.2596 14.975 22.8379ZM30.3687 34.2833C30.0265 34.6619 29.639 34.8541 29.1476 34.5859C28.9808 34.495 28.8171 34.3877 28.6737 34.2625C26.1276 32.0315 20.2968 32.0568 17.8238 34.3385C17.7112 34.4413 17.5796 34.5278 17.448 34.6038C17.0136 34.8556 16.5705 34.9391 16.202 34.5069C15.8393 34.0822 15.7442 33.5456 16.0923 33.112C16.4725 32.6395 16.9405 32.2074 17.4436 31.875C19.1898 30.723 21.1202 30.1835 22.9994 30.2476C25.5704 30.2223 27.7421 30.8318 29.6433 32.3012C29.9417 32.5322 30.2239 32.8065 30.4477 33.112C30.7285 33.4965 30.7036 33.9123 30.3687 34.2819V34.2833ZM28.4778 25.4101C27.0826 25.4101 25.9521 24.2581 25.9521 22.8364C25.9521 21.4146 27.0826 20.2626 28.4778 20.2626C29.8729 20.2626 31.0034 21.4146 31.0034 22.8364C31.0034 24.2581 29.8729 25.4101 28.4778 25.4101Z" fill="#EAE3DA"/>
</g>
<defs>
<clipPath id="clip0_5_11">
<rect width="45" height="46" fill="white" transform="translate(0.5 0.5)"/>
</clipPath>
</defs>
</svg>
