<svg width="45" height="46" viewBox="0 0 45 46" fill="none" xmlns="http://www.w3.org/2000/svg">
<g clip-path="url(#clip0_5_7)">
<path d="M22.681 0.501243C10.3851 0.372051 0.62927 10.3271 0.501128 23.1375C0.378682 35.3019 10.237 45.4035 22.3236 45.4993C34.3589 45.5937 44.4009 35.6212 44.4992 23.4786C44.6017 10.706 35.0367 0.631887 22.681 0.501243ZM27.4407 13.4684C28.6524 13.4684 29.6334 14.47 29.6334 15.7038C29.6334 16.9377 28.6509 17.9393 27.4407 17.9393C26.2305 17.9393 25.2481 16.9377 25.2481 15.7038C25.2481 14.47 26.2305 13.4684 27.4407 13.4684ZM17.9098 13.4684C19.1215 13.4684 20.1025 14.47 20.1025 15.7038C20.1025 16.9377 19.1201 17.9393 17.9098 17.9393C16.6996 17.9393 15.7172 16.9377 15.7172 15.7038C15.7172 14.47 16.6996 13.4684 17.9098 13.4684ZM30.5246 22.9386C29.837 26.2134 26.1479 28.999 22.5514 28.9787C19.0645 28.9598 15.7642 26.5095 14.591 23.0692C14.3176 22.2665 14.1268 21.4188 15.1548 21.0835C16.1515 20.7583 16.3266 21.5988 16.5772 22.3275C17.5952 25.28 19.6084 26.7534 22.5571 26.7534C25.483 26.7534 27.4863 25.2713 28.5128 22.3086C28.7463 21.6365 28.9129 20.8541 29.8242 21.0994C30.7667 21.3535 30.6813 22.1852 30.5232 22.9386H30.5246Z" fill="#CFE2BC"/>
</g>
<defs>
<clipPath id="clip0_5_7">
<rect width="44" height="45" fill="white" transform="translate(0.5 0.5)"/>
</clipPath>
</defs>
</svg>
