<svg width="44" height="46" viewBox="0 0 44 46" fill="none" xmlns="http://www.w3.org/2000/svg">
<g clip-path="url(#clip0_5_3)">
<path d="M22.1771 0.501229C10.1604 0.37278 0.627032 10.3276 0.501115 23.1375C0.380793 35.3022 10.0163 45.4044 21.8274 45.4993C33.5881 45.5942 43.4027 35.6204 43.4992 23.4776C43.5999 10.7042 34.2512 0.629678 22.1785 0.501229H22.1771ZM14.3325 18.6943C14.3325 17.3033 15.4126 16.1764 16.7459 16.1764C18.0792 16.1764 19.1593 17.3033 19.1593 18.6943C19.1593 20.0854 18.0792 21.2122 16.7459 21.2122C15.4126 21.2122 14.3325 20.0854 14.3325 18.6943ZM28.7486 30.0986C28.7486 30.8532 28.1624 31.4633 27.4405 31.4633H16.6983C15.975 31.4633 15.3902 30.8517 15.3902 30.0986V29.9964C15.3902 29.2417 15.9764 28.6316 16.6983 28.6316H27.4405C28.1638 28.6316 28.7486 29.2432 28.7486 29.9964V30.0986ZM27.2334 21.2122C25.9001 21.2122 24.82 20.0854 24.82 18.6943C24.82 17.3033 25.9001 16.1764 27.2334 16.1764C28.5668 16.1764 29.6469 17.3033 29.6469 18.6943C29.6469 20.0854 28.5668 21.2122 27.2334 21.2122Z" fill="#FFE195"/>
</g>
<defs>
<clipPath id="clip0_5_3">
<rect width="43" height="45" fill="white" transform="translate(0.5 0.5)"/>
</clipPath>
</defs>
</svg>
