<svg width="23" height="20" viewBox="0 0 23 20" fill="none" xmlns="http://www.w3.org/2000/svg">
<path d="M1.125 3.25V15.4C1.125 16.6601 1.125 17.2897 1.3672 17.771C1.58025 18.1944 1.91996 18.5393 2.33809 18.755C2.81298 19 3.43497 19 4.67708 19H17.5727C18.8148 19 19.4359 19 19.9108 18.755C20.3289 18.5393 20.6697 18.1946 20.8828 17.7713C21.125 17.29 21.125 16.6599 21.125 15.3998L21.125 6.84975C21.125 5.58963 21.125 4.95957 20.8828 4.47827C20.6697 4.05491 20.3291 3.71095 19.911 3.49524C19.4356 3.25 18.8138 3.25 17.5692 3.25H11.1249M1.125 3.25H11.1249M1.125 3.25C1.125 2.00736 2.11991 1 3.3472 1H7.42994C7.97347 1 8.24588 1 8.50162 1.06217C8.72837 1.11729 8.94474 1.20842 9.14357 1.33179C9.36775 1.47089 9.56025 1.66579 9.94434 2.05469L11.1249 3.25" stroke="#D4D6DD" stroke-width="2" stroke-linecap="round" stroke-linejoin="round"/>
</svg>
