<svg width="20" height="20" viewBox="0 0 20 20" fill="none" xmlns="http://www.w3.org/2000/svg">
<path d="M1.125 9.58512V15.4755C1.125 16.7092 1.125 17.3265 1.35661 17.7978C1.56034 18.2123 1.88519 18.5489 2.28503 18.7601C2.73915 19 3.33393 19 4.52172 19H14.7283C15.9161 19 16.51 19 16.9641 18.7601C17.364 18.5489 17.6899 18.2123 17.8936 17.7978C18.125 17.327 18.125 16.7107 18.125 15.4794V9.58512C18.125 8.99659 18.1245 8.70216 18.0555 8.4283C17.9943 8.1856 17.8939 7.95593 17.758 7.74839C17.6046 7.5142 17.3914 7.31999 16.9641 6.93244L11.8641 2.30642C11.0709 1.58687 10.6742 1.22728 10.2278 1.09043C9.83452 0.969855 9.41527 0.969855 9.02195 1.09043C8.5759 1.22718 8.17984 1.58643 7.38776 2.30489L2.28607 6.93244C1.85881 7.31999 1.64567 7.5142 1.49231 7.74839C1.3564 7.95593 1.25521 8.1856 1.19403 8.4283C1.125 8.70216 1.125 8.99658 1.125 9.58512Z" stroke="#D4D6DD" stroke-width="2" stroke-linecap="round" stroke-linejoin="round"/>
</svg>
