<svg width="21" height="20" viewBox="0 0 21 20" fill="none" xmlns="http://www.w3.org/2000/svg">
<path d="M15.5916 17.3323C14.3099 15.9008 12.4477 15 10.375 15C8.30234 15 6.43992 15.9008 5.1582 17.3323M10.375 19C5.40444 19 1.375 14.9706 1.375 10C1.375 5.02944 5.40444 1 10.375 1C15.3456 1 19.375 5.02944 19.375 10C19.375 14.9706 15.3456 19 10.375 19ZM10.375 12C8.71815 12 7.375 10.6569 7.375 9C7.375 7.34315 8.71815 6 10.375 6C12.0319 6 13.375 7.34315 13.375 9C13.375 10.6569 12.0319 12 10.375 12Z" stroke="#D4D6DD" stroke-width="2" stroke-linecap="round" stroke-linejoin="round"/>
</svg>
