<svg width="30" height="33" viewBox="0 0 30 33" fill="none" xmlns="http://www.w3.org/2000/svg">
<path d="M7.5746 15.0304L1.92554 4.80731C1.27598 3.63182 0.951207 3.04407 1.00594 2.56285C1.05369 2.143 1.27419 1.76295 1.6133 1.51598C2.00198 1.23291 2.66775 1.23291 3.99929 1.23291H7.31741C7.81227 1.23291 8.0597 1.23291 8.28163 1.30518C8.47802 1.36914 8.65907 1.47378 8.81323 1.61244C8.98746 1.76913 9.11305 1.98473 9.36423 2.41592L14.7978 11.7436L20.2314 2.41592C20.4825 1.98473 20.6081 1.76913 20.7823 1.61244C20.9365 1.47378 21.1176 1.36914 21.3139 1.30518C21.5359 1.23291 21.7833 1.23291 22.2782 1.23291H25.5963C26.9278 1.23291 27.5936 1.23291 27.9823 1.51598C28.3214 1.76295 28.5419 2.143 28.5896 2.56285C28.6444 3.04407 28.3196 3.63182 27.67 4.80731L22.021 15.0304M12.5707 19.2512L14.7978 17.7497V25.2573M12.9419 25.2573H16.6537M21.6219 14.6022C25.3908 18.4137 25.3908 24.5933 21.6219 28.4048C17.8531 32.2163 11.7425 32.2163 7.97363 28.4048C4.20477 24.5933 4.20477 18.4137 7.97363 14.6022C11.7425 10.7907 17.8531 10.7907 21.6219 14.6022Z" stroke="#069A5C" stroke-width="2" stroke-linecap="round" stroke-linejoin="round"/>
</svg>
