<svg width="52" height="52" viewBox="0 0 52 52" fill="none" xmlns="http://www.w3.org/2000/svg">
<ellipse cx="25.954" cy="26" rx="12.977" ry="13" fill="#FBCC04"/>
<path d="M27.5761 17.875H24.3319V24.375H17.8434V27.625H24.3319V34.125H27.5761V27.625H34.0646V24.375H27.5761V17.875ZM25.954 9.75C16.9999 9.75 9.73274 17.03 9.73274 26C9.73274 34.97 16.9999 42.25 25.954 42.25C34.9081 42.25 42.1752 34.97 42.1752 26C42.1752 17.03 34.9081 9.75 25.954 9.75ZM25.954 39C18.8004 39 12.977 33.1663 12.977 26C12.977 18.8337 18.8004 13 25.954 13C33.1075 13 38.931 18.8337 38.931 26C38.931 33.1663 33.1075 39 25.954 39Z" fill="#EA7F1F"/>
</svg>
