<svg width="359" height="641" viewBox="0 0 359 641" fill="none" xmlns="http://www.w3.org/2000/svg">
<g clip-path="url(#clip0_3_2)">
<g filter="url(#filter0_f_3_2)">
<path d="M267.475 221.566C249.795 197.565 221.429 182.803 183.373 182C182.374 182 181.475 182 180.477 182C180.377 182 180.377 182 180.277 182C180.177 182 180.177 182 180.077 182C179.078 182 178.179 182 177.18 182C139.225 182.803 110.858 197.565 93.2787 221.566C75.1 246.27 68.208 280.915 74.0013 320.782C74.8003 326.205 75.4995 331.828 76.1987 337.552C78.8955 358.44 81.6923 380.633 88.2845 398.207C97.1741 421.906 113.056 442.693 130.235 457.556C147.415 472.418 165.794 481.155 180.077 481.355C180.177 481.355 180.177 481.355 180.277 481.355C180.377 481.355 180.377 481.355 180.477 481.355C194.76 481.255 213.238 472.418 230.318 457.556C247.598 442.693 263.379 421.806 272.269 398.207C278.861 380.633 281.758 358.44 284.355 337.552C285.054 331.828 285.853 326.205 286.552 320.782C292.445 280.915 285.554 246.27 267.475 221.566Z" stroke="white" stroke-width="5"/>
</g>
<path d="M0 0V641H360V0H0ZM286.6 321.101C285.9 326.51 285.1 332.118 284.4 337.827C281.8 358.76 278.9 380.894 272.3 398.522C263.4 422.159 247.6 442.991 230.3 457.915C213.2 472.738 194.7 481.652 180.5 481.752C180.4 481.752 180.4 481.752 180.3 481.752C180.2 481.752 180.2 481.752 180.1 481.752C165.8 481.551 147.4 472.838 130.3 457.915C113.1 443.091 97.2 422.259 88.3 398.522C81.7 380.995 78.9 358.76 76.2 337.827C75.5 332.118 74.8 326.51 74 321.101C68.2 281.239 75.1 246.585 93.3 221.846C110.9 197.809 139.2 183.086 177.2 182.285C178.2 182.285 179.1 182.285 180.1 182.285C180.2 182.285 180.2 182.285 180.3 182.285C180.4 182.285 180.4 182.285 180.5 182.285C181.5 182.285 182.4 182.285 183.4 182.285C221.5 183.086 249.8 197.809 267.5 221.846C285.6 246.585 292.4 281.239 286.6 321.101Z" fill="black" fill-opacity="0.7"/>
</g>
<defs>
<filter id="filter0_f_3_2" x="67.5006" y="177.5" width="225.608" height="308.355" filterUnits="userSpaceOnUse" color-interpolation-filters="sRGB">
<feFlood flood-opacity="0" result="BackgroundImageFix"/>
<feBlend mode="normal" in="SourceGraphic" in2="BackgroundImageFix" result="shape"/>
<feGaussianBlur stdDeviation="1" result="effect1_foregroundBlur_3_2"/>
</filter>
<clipPath id="clip0_3_2">
<rect width="360" height="641" fill="white"/>
</clipPath>
</defs>
</svg>
