<svg width="223" height="305" viewBox="0 0 223 305" fill="none" xmlns="http://www.w3.org/2000/svg">
<path d="M198.475 42.566C180.795 18.565 152.429 3.803 114.373 3C113.374 3 112.475 3 111.477 3C111.377 3 111.377 3 111.277 3C111.177 3 111.177 3 111.077 3C110.078 3 109.179 3 108.18 3C70.225 3.803 41.858 18.565 24.2787 42.566C6.1 67.27 -0.792002 101.915 5.0013 141.782C5.8003 147.205 6.4995 152.828 7.1987 158.552C9.8955 179.44 12.6923 201.633 19.2845 219.207C28.1741 242.906 44.056 263.693 61.235 278.556C78.415 293.418 96.794 302.155 111.077 302.355C111.177 302.355 111.177 302.355 111.277 302.355C111.377 302.355 111.377 302.355 111.477 302.355C125.76 302.255 144.238 293.418 161.318 278.556C178.598 263.693 194.379 242.806 203.269 219.207C209.861 201.633 212.758 179.44 215.355 158.552C216.054 152.828 216.853 147.205 217.552 141.782C223.445 101.915 216.554 67.27 198.475 42.566Z" fill="#D9D9D9" stroke="white" stroke-width="5"/>
</svg>
