<svg width="881" height="271" viewBox="0 0 881 271" fill="none" xmlns="http://www.w3.org/2000/svg">
<g clip-path="url(#clip0_14_15)">
<path d="M0 12.81C0 10.98 1.6 9.38 3.43 9.38H44.59C46.42 9.38 48.02 10.98 48.02 12.81V105.2C48.02 122.35 56.25 132.87 75.01 132.87C93.77 132.87 101.77 122.35 101.77 105.2V12.81C101.77 10.98 103.37 9.38 105.2 9.38H146.36C148.19 9.38 149.79 10.98 149.79 12.81V102.46C149.79 142.71 129.67 171.75 75.01 171.75C20.35 171.75 0 142.7 0 102.45V12.81ZM172.66 166.03V51.68C172.66 49.85 174.26 48.25 176.09 48.25H214.97C216.8 48.25 218.4 49.85 218.4 51.68V72.49C223.89 56.03 242.18 45.96 261.62 45.96C284.49 45.96 298.9 57.85 298.9 89.41V166.02C298.9 167.85 297.3 169.45 295.47 169.45H256.59C254.76 169.45 253.16 167.85 253.16 166.02V98.33C253.16 87.35 249.5 80.72 236.24 80.72C222.98 80.72 218.4 83.24 218.4 87.35V166.02C218.4 167.85 216.8 169.45 214.97 169.45H176.09C174.26 169.45 172.66 167.85 172.66 166.02M343.26 0C363.16 0 368.65 1.83 368.65 18.07C368.65 34.31 363.16 36.36 343.26 36.36C323.36 36.36 317.65 34.76 317.65 18.07C317.65 1.38 323.37 0 343.26 0ZM320.62 51.68C320.62 49.85 322.22 48.25 324.05 48.25H362.93C364.76 48.25 366.36 49.85 366.36 51.68V166.02C366.36 167.85 364.76 169.45 362.93 169.45H324.05C322.22 169.45 320.62 167.85 320.62 166.02V51.68ZM389.23 51.68C389.23 49.85 390.83 48.25 392.66 48.25H431.54C433.37 48.25 434.97 49.85 434.97 51.68V72.49C440.46 56.03 458.53 45.96 476.59 45.96C494.65 45.96 506.78 53.51 511.35 71.12C517.52 55.34 535.82 45.96 553.89 45.96C576.53 45.96 591.4 57.85 591.4 87.12V166.02C591.4 167.85 589.8 169.45 587.97 169.45H549.09C547.26 169.45 545.66 167.85 545.66 166.02V98.33C545.66 87.35 542 80.72 529.88 80.72C517.76 80.72 513.18 83.24 513.18 87.35V166.02C513.18 167.85 511.58 169.45 509.75 169.45H470.87C469.04 169.45 467.44 167.85 467.44 166.02V98.33C467.44 87.35 463.78 80.72 451.66 80.72C439.54 80.72 434.96 83.24 434.96 87.35V166.02C434.96 167.85 433.36 169.45 431.53 169.45H392.65C390.82 169.45 389.22 167.85 389.22 166.02V51.68H389.23ZM675.09 45.96C717.4 45.96 735.92 69.29 735.92 105.42C735.92 113.2 736.15 120.74 727 120.74H656.33C658.62 135.15 666.85 140.41 694.06 140.41H728.82C731.11 140.41 732.94 142.47 732.48 144.75L728.82 163.27C728.59 164.41 728.13 165.1 727.45 165.33C716.47 169.9 700.24 171.73 681.25 171.73C631.4 171.73 608.98 147.72 608.98 108.38C608.98 69.04 630.71 45.95 675.07 45.95M693.82 98.32C693.82 84.14 689.7 75.22 675.75 75.22C664.09 75.22 657.46 80.71 655.85 98.32H693.82ZM795.82 45.95C814.34 45.95 826.92 54.87 834.24 69.73V12.88C834.24 11.05 835.84 9.45 837.67 9.45H876.55C878.38 9.45 879.98 11.05 879.98 12.88V166.03C879.98 167.86 878.38 169.46 876.55 169.46H837.67C835.84 169.46 834.24 167.86 834.24 166.03V147.96C826.92 162.82 814.34 171.74 795.82 171.74C764.26 171.74 751.91 145.67 751.91 108.85C751.91 72.03 764.26 45.96 795.82 45.95ZM818.92 138.58C829.67 138.58 834.24 133.78 834.24 127.6V88.72C834.24 82.32 828.29 79.12 818.92 79.12C805.43 79.12 799.94 88.5 799.94 108.85C799.94 129.2 805.43 138.58 818.92 138.58Z" fill="#00843D"/>
<path d="M476.64 256.58C476.64 265.7 471.44 270.5 462.88 270.5C460 270.5 457.6 270.26 454.08 269.62V260.74H459.28C463.92 260.74 466.24 259.06 466.24 254.26V213.46H476.64V256.58Z" fill="#00843D"/>
<path d="M485.44 250.02C485.44 236.58 492.88 228.42 505.68 228.42C518.48 228.42 525.28 235.78 525.28 249.22C525.28 262.66 517.68 270.5 505.28 270.5C492.88 270.5 485.44 262.9 485.44 250.02ZM515.12 249.62C515.12 242.34 511.6 237.46 505.68 237.46C499.28 237.46 495.6 242.34 495.6 249.62C495.6 256.9 499.12 261.46 505.28 261.46C511.44 261.46 515.12 256.58 515.12 249.62Z" fill="#00843D"/>
<path d="M564.4 242.18V269.46H558.24L556.8 266.98C553.92 269.22 550.48 270.5 545.84 270.5C536.48 270.5 531.04 265.22 531.04 258.1C531.04 250.58 536.32 245.54 546.48 245.54H554.4V244.1C554.4 239.7 551.04 237.3 544.88 237.3C541.44 237.3 537.36 237.94 533.76 238.98L532.08 230.66C537.04 229.22 542.56 228.42 547.2 228.42C559.68 228.42 564.4 234.1 564.4 242.18ZM539.92 224.74L531.84 223.86L532.24 221.22C533.04 216.1 535.84 212.82 540.16 212.82C544.72 212.82 549.36 215.3 552.4 215.3C554.48 215.3 555.2 214.66 555.6 212.66L563.84 213.54L563.28 216.98C562.48 221.86 559.68 224.1 555.6 224.1C550.16 224.1 546.32 222.02 542.8 222.02C540.8 222.02 540.16 223.06 539.92 224.74ZM547.68 262.42C550 262.42 552.32 261.94 554.4 260.9V253.14H547.44C543.12 253.14 541.28 255.06 541.28 257.7C541.28 260.66 543.76 262.42 547.68 262.42Z" fill="#00843D"/>
<path d="M572.08 250.02C572.08 236.58 579.52 228.42 592.32 228.42C605.12 228.42 611.92 235.78 611.92 249.22C611.92 262.66 604.32 270.5 591.92 270.5C579.52 270.5 572.08 262.9 572.08 250.02ZM601.76 249.62C601.76 242.34 598.24 237.46 592.32 237.46C585.92 237.46 582.24 242.34 582.24 249.62C582.24 256.9 585.76 261.46 591.92 261.46C598.08 261.46 601.76 256.58 601.76 249.62Z" fill="#00843D"/>
<path d="M678.39 231.94C678.39 244.18 670.39 251.22 657.51 251.22H649.43V269.46H639.27V213.46H657.75C670.63 213.46 678.39 220.02 678.39 231.94ZM667.75 231.94C667.75 226.5 663.99 223.06 657.27 223.06H649.43V241.62H657.27C663.99 241.62 667.75 237.7 667.75 231.94Z" fill="#00843D"/>
<path d="M719.92 267.06C715.28 269.54 710.16 270.5 704.64 270.5C690.64 270.5 682.64 262.02 682.64 249.3C682.64 236.58 690.4 228.42 702.72 228.42C713.44 228.42 719.76 234.58 719.76 245.14C719.76 246.74 719.44 250.02 718.88 252.18H692.96C694.08 258.82 698.8 261.46 706.56 261.46C710.56 261.46 713.44 260.9 717.44 259.3L719.92 267.06ZM693.2 244.18H710.16V243.86C710.16 239.7 706.88 236.42 702.24 236.42C697.6 236.42 694.48 239.62 693.2 244.18Z" fill="#00843D"/>
<path d="M757.11 230.66L754.87 238.34C750.47 236.9 747.03 236.42 743.99 236.42C739.35 236.42 736.79 238.02 736.79 240.5C736.79 246.02 758.47 242.34 758.47 257.54C758.47 265.22 752.55 270.5 741.11 270.5C735.91 270.5 731.11 269.46 726.31 267.62L729.03 259.22C733.03 260.58 737.11 261.62 741.11 261.62C746.07 261.62 748.71 260.34 748.71 258.1C748.71 252.26 726.87 255.54 726.87 241.14C726.87 233.38 733.91 228.42 743.59 228.42C747.83 228.42 752.63 229.14 757.11 230.66Z" fill="#00843D"/>
<path d="M793.68 230.66L791.44 238.34C787.04 236.9 783.6 236.42 780.56 236.42C775.92 236.42 773.36 238.02 773.36 240.5C773.36 246.02 795.04 242.34 795.04 257.54C795.04 265.22 789.12 270.5 777.68 270.5C772.48 270.5 767.68 269.46 762.88 267.62L765.6 259.22C769.6 260.58 773.68 261.62 777.68 261.62C782.64 261.62 785.28 260.34 785.28 258.1C785.28 252.26 763.44 255.54 763.44 241.14C763.44 233.38 770.48 228.42 780.16 228.42C784.4 228.42 789.2 229.14 793.68 230.66Z" fill="#00843D"/>
<path d="M801.35 250.02C801.35 236.58 808.79 228.42 821.59 228.42C834.39 228.42 841.19 235.78 841.19 249.22C841.19 262.66 833.59 270.5 821.19 270.5C808.79 270.5 801.35 262.9 801.35 250.02ZM831.03 249.62C831.03 242.34 827.51 237.46 821.59 237.46C815.19 237.46 811.51 242.34 811.51 249.62C811.51 256.9 815.03 261.46 821.19 261.46C827.35 261.46 831.03 256.58 831.03 249.62Z" fill="#00843D"/>
<path d="M880.31 242.18V269.46H874.15L872.71 266.98C869.83 269.22 866.39 270.5 861.75 270.5C852.39 270.5 846.95 265.22 846.95 258.1C846.95 250.58 852.23 245.54 862.39 245.54H870.31V244.1C870.31 239.7 866.95 237.3 860.79 237.3C857.35 237.3 853.27 237.94 849.67 238.98L847.99 230.66C852.95 229.22 858.47 228.42 863.11 228.42C875.59 228.42 880.31 234.1 880.31 242.18ZM863.59 262.42C865.91 262.42 868.23 261.94 870.31 260.9V253.14H863.35C859.03 253.14 857.19 255.06 857.19 257.7C857.19 260.66 859.67 262.42 863.59 262.42Z" fill="#00843D"/>
<path d="M0 12.81C0 10.98 1.6 9.38 3.43 9.38H44.59C46.42 9.38 48.02 10.98 48.02 12.81V105.2C48.02 122.35 56.25 132.87 75.01 132.87C93.77 132.87 101.77 122.35 101.77 105.2V12.81C101.77 10.98 103.37 9.38 105.2 9.38H146.36C148.19 9.38 149.79 10.98 149.79 12.81V102.46C149.79 142.71 129.67 171.75 75.01 171.75C20.35 171.75 0 142.7 0 102.45V12.81ZM172.66 166.03V51.68C172.66 49.85 174.26 48.25 176.09 48.25H214.97C216.8 48.25 218.4 49.85 218.4 51.68V72.49C223.89 56.02 242.18 45.96 261.62 45.96C284.49 45.96 298.9 57.85 298.9 89.41V166.02C298.9 167.85 297.3 169.45 295.47 169.45H256.59C254.76 169.45 253.16 167.85 253.16 166.02V98.33C253.16 87.35 249.5 80.72 236.24 80.72C222.98 80.72 218.4 83.24 218.4 87.35V166.02C218.4 167.85 216.8 169.45 214.97 169.45H176.09C174.26 169.45 172.66 167.85 172.66 166.02V166.03ZM343.26 0C363.16 0 368.64 1.83 368.64 18.07C368.64 34.31 363.15 36.37 343.26 36.37C323.37 36.37 317.65 34.77 317.65 18.07C317.65 1.37 323.37 0 343.26 0ZM320.62 51.68C320.62 49.85 322.22 48.25 324.05 48.25H362.93C364.76 48.25 366.36 49.85 366.36 51.68V166.03C366.36 167.86 364.76 169.46 362.93 169.46H324.05C322.22 169.46 320.62 167.86 320.62 166.03V51.68ZM389.23 51.68C389.23 49.85 390.83 48.25 392.66 48.25H431.54C433.37 48.25 434.97 49.85 434.97 51.68V72.49C440.46 56.02 458.53 45.96 476.59 45.96C494.65 45.96 506.78 53.51 511.35 71.12C517.52 55.34 535.82 45.96 553.89 45.96C576.53 45.96 591.4 57.85 591.4 87.12V166.02C591.4 167.85 589.8 169.45 587.97 169.45H549.09C547.26 169.45 545.66 167.85 545.66 166.02V98.33C545.66 87.35 542 80.72 529.88 80.72C517.76 80.72 513.19 83.24 513.19 87.35V166.02C513.19 167.85 511.59 169.45 509.76 169.45H470.88C469.05 169.45 467.45 167.85 467.45 166.02V98.33C467.45 87.35 463.79 80.72 451.67 80.72C439.55 80.72 434.98 83.24 434.98 87.35V166.02C434.98 167.85 433.38 169.45 431.55 169.45H392.67C390.84 169.45 389.24 167.85 389.24 166.02L389.23 51.68ZM675.09 45.96C717.4 45.96 735.92 69.29 735.92 105.42C735.92 113.2 736.15 120.74 727 120.74H656.33C658.62 135.15 666.85 140.41 694.06 140.41H728.82C731.11 140.41 732.94 142.47 732.48 144.76L728.82 163.28C728.59 164.42 728.13 165.11 727.45 165.34C716.47 169.91 700.24 171.74 681.25 171.74C631.4 171.74 608.98 147.73 608.98 108.39C608.98 69.05 630.71 45.96 675.07 45.96H675.09ZM693.84 98.33C693.84 84.15 689.72 75.23 675.77 75.23C664.11 75.23 657.47 80.72 655.87 98.33H693.84ZM795.84 45.96C814.36 45.96 826.94 54.88 834.26 69.74V12.88C834.26 11.05 835.86 9.45 837.69 9.45H876.57C878.4 9.45 880 11.05 880 12.88V166.03C880 167.86 878.4 169.46 876.57 169.46H837.69C835.86 169.46 834.26 167.86 834.26 166.03V147.96C826.94 162.82 814.36 171.74 795.84 171.74C764.28 171.74 751.93 145.67 751.93 108.85C751.93 72.03 764.28 45.96 795.84 45.96ZM818.94 138.58C829.69 138.58 834.26 133.78 834.26 127.6V88.72C834.26 82.32 828.31 79.12 818.94 79.12C805.45 79.12 799.96 88.5 799.96 108.85C799.96 129.2 805.45 138.58 818.94 138.58Z" fill="#00843D"/>
</g>
<defs>
<clipPath id="clip0_14_15">
<rect width="881" height="271" fill="white"/>
</clipPath>
</defs>
</svg>
