<?xml version="1.0" encoding="UTF-8" ?>
<!DOCTYPE svg PUBLIC "-//W3C//DTD SVG 1.1//EN" "http://www.w3.org/Graphics/SVG/1.1/DTD/svg11.dtd">
<svg width="136pt" height="82pt" viewBox="0 0 136 82" version="1.1" xmlns="http://www.w3.org/2000/svg">
<g id="#ffffffff">
<path fill="#ffffff" opacity="1.00" d=" M 40.56 0.00 L 95.55 0.00 C 108.96 18.03 122.49 35.97 135.99 53.93 C 127.01 54.12 118.02 53.89 109.04 54.06 C 115.26 62.47 121.66 70.74 127.76 79.24 C 128.46 80.02 128.78 80.95 128.73 82.00 L 129.08 82.00 C 120.30 81.60 102.74 80.80 93.97 80.40 C 88.07 71.28 80.76 63.12 74.67 54.12 C 79.07 54.03 83.47 54.12 87.87 54.06 C 81.36 45.03 74.54 36.23 67.91 27.30 C 61.40 36.31 54.57 45.09 48.00 54.06 C 52.44 54.12 56.89 54.03 61.34 54.14 C 54.70 63.37 47.56 72.24 40.94 81.46 C 33.08 81.60 17.35 81.87 9.48 82.00 L 7.69 82.00 C 7.53 81.69 7.20 81.06 7.04 80.75 C 13.49 71.75 20.41 63.09 26.81 54.07 C 17.88 53.92 8.94 54.04 0.01 54.00 C 13.46 35.95 26.91 17.89 40.56 0.00 M 47.71 27.00 C 61.12 26.98 74.53 27.05 87.93 26.96 C 81.42 17.89 74.32 9.23 68.03 0.01 C 61.26 9.01 54.66 18.15 47.71 27.00 Z" />
</g>
</svg>
