<?xml version="1.0" encoding="utf-8"?>
<!-- Generator: Adobe Illustrator 27.1.1, SVG Export Plug-In . SVG Version: 6.00 Build 0)  -->
<svg version="1.1" id="Camada_1" xmlns="http://www.w3.org/2000/svg" xmlns:xlink="http://www.w3.org/1999/xlink" x="0px" y="0px"
	 viewBox="0 0 880.31 270.5" style="enable-background:new 0 0 880.31 270.5;" xml:space="preserve">
<style type="text/css">
	.st0{fill:#00995D;}
</style>
<g>
	<path class="st0" d="M0,12.81c0-1.83,1.6-3.43,3.43-3.43h41.16c1.83,0,3.43,1.6,3.43,3.43v92.39c0,17.15,8.23,27.67,26.99,27.67
		s26.76-10.52,26.76-27.67V12.81c0-1.83,1.6-3.43,3.43-3.43h41.16c1.83,0,3.43,1.6,3.43,3.43v89.65c0,40.25-20.12,69.29-74.78,69.29
		S0,142.7,0,102.45V12.81z M172.66,166.03V51.68c0-1.83,1.6-3.43,3.43-3.43h38.88c1.83,0,3.43,1.6,3.43,3.43v20.81
		c5.49-16.46,23.78-26.53,43.22-26.53c22.87,0,37.28,11.89,37.28,43.45v76.61c0,1.83-1.6,3.43-3.43,3.43h-38.88
		c-1.83,0-3.43-1.6-3.43-3.43V98.33c0-10.98-3.66-17.61-16.92-17.61s-17.84,2.52-17.84,6.63v78.67c0,1.83-1.6,3.43-3.43,3.43h-38.88
		c-1.83,0-3.43-1.6-3.43-3.43 M343.26,0c19.9,0,25.39,1.83,25.39,18.07s-5.49,18.29-25.39,18.29s-25.61-1.6-25.61-18.29
		S323.37,0,343.26,0 M320.62,51.68c0-1.83,1.6-3.43,3.43-3.43h38.88c1.83,0,3.43,1.6,3.43,3.43v114.34c0,1.83-1.6,3.43-3.43,3.43
		h-38.88c-1.83,0-3.43-1.6-3.43-3.43V51.68z M389.23,51.68c0-1.83,1.6-3.43,3.43-3.43h38.88c1.83,0,3.43,1.6,3.43,3.43v20.81
		c5.49-16.46,23.56-26.53,41.62-26.53s30.19,7.55,34.76,25.16c6.17-15.78,24.47-25.16,42.54-25.16c22.64,0,37.51,11.89,37.51,41.16
		v78.9c0,1.83-1.6,3.43-3.43,3.43h-38.88c-1.83,0-3.43-1.6-3.43-3.43V98.33c0-10.98-3.66-17.61-15.78-17.61s-16.7,2.52-16.7,6.63
		v78.67c0,1.83-1.6,3.43-3.43,3.43h-38.88c-1.83,0-3.43-1.6-3.43-3.43V98.33c0-10.98-3.66-17.61-15.78-17.61s-16.7,2.52-16.7,6.63
		v78.67c0,1.83-1.6,3.43-3.43,3.43h-38.88c-1.83,0-3.43-1.6-3.43-3.43V51.68H389.23z M675.09,45.96c42.31,0,60.83,23.33,60.83,59.46
		c0,7.78,0.23,15.32-8.92,15.32h-70.67c2.29,14.41,10.52,19.67,37.73,19.67h34.76c2.29,0,4.12,2.06,3.66,4.34l-3.66,18.52
		c-0.23,1.14-0.69,1.83-1.37,2.06c-10.98,4.57-27.21,6.4-46.2,6.4c-49.85,0-72.27-24.01-72.27-63.35s21.73-62.43,66.09-62.43
		 M693.82,98.32c0-14.18-4.12-23.1-18.07-23.1c-11.66,0-18.29,5.49-19.9,23.1h37.96H693.82z M795.82,45.95
		c18.52,0,31.1,8.92,38.42,23.78V12.88c0-1.83,1.6-3.43,3.43-3.43h38.88c1.83,0,3.43,1.6,3.43,3.43v153.15
		c0,1.83-1.6,3.43-3.43,3.43h-38.88c-1.83,0-3.43-1.6-3.43-3.43v-18.07c-7.32,14.86-19.9,23.78-38.42,23.78
		c-31.56,0-43.91-26.07-43.91-62.89S764.26,45.96,795.82,45.95 M818.92,138.58c10.75,0,15.32-4.8,15.32-10.98V88.72
		c0-6.4-5.95-9.6-15.32-9.6c-13.49,0-18.98,9.38-18.98,29.73S805.43,138.58,818.92,138.58"/>
	<g>
		<g>
			<path class="st0" d="M476.64,256.58c0,9.12-5.2,13.92-13.76,13.92c-2.88,0-5.28-0.24-8.8-0.88v-8.88h5.2
				c4.64,0,6.96-1.68,6.96-6.48v-40.8h10.4V256.58z"/>
			<path class="st0" d="M485.44,250.02c0-13.44,7.44-21.6,20.24-21.6s19.6,7.36,19.6,20.8s-7.6,21.28-20,21.28
				S485.44,262.9,485.44,250.02L485.44,250.02z M515.12,249.62c0-7.28-3.52-12.16-9.44-12.16c-6.4,0-10.08,4.88-10.08,12.16
				c0,7.28,3.52,11.84,9.68,11.84S515.12,256.58,515.12,249.62L515.12,249.62z"/>
			<path class="st0" d="M564.4,242.18v27.28h-6.16l-1.44-2.48c-2.88,2.24-6.32,3.52-10.96,3.52c-9.36,0-14.8-5.28-14.8-12.4
				c0-7.52,5.28-12.56,15.44-12.56h7.92v-1.44c0-4.4-3.36-6.8-9.52-6.8c-3.44,0-7.52,0.64-11.12,1.68l-1.68-8.32
				c4.96-1.44,10.48-2.24,15.12-2.24C559.68,228.42,564.4,234.1,564.4,242.18L564.4,242.18z M539.92,224.74l-8.08-0.88l0.4-2.64
				c0.8-5.12,3.6-8.4,7.92-8.4c4.56,0,9.2,2.48,12.24,2.48c2.08,0,2.8-0.64,3.2-2.64l8.24,0.88l-0.56,3.44
				c-0.8,4.88-3.6,7.12-7.68,7.12c-5.44,0-9.28-2.08-12.8-2.08C540.8,222.02,540.16,223.06,539.92,224.74z M547.68,262.42
				c2.32,0,4.64-0.48,6.72-1.52v-7.76h-6.96c-4.32,0-6.16,1.92-6.16,4.56C541.28,260.66,543.76,262.42,547.68,262.42L547.68,262.42z
				"/>
			<path class="st0" d="M572.08,250.02c0-13.44,7.44-21.6,20.24-21.6s19.6,7.36,19.6,20.8s-7.6,21.28-20,21.28
				S572.08,262.9,572.08,250.02L572.08,250.02z M601.76,249.62c0-7.28-3.52-12.16-9.44-12.16c-6.4,0-10.08,4.88-10.08,12.16
				c0,7.28,3.52,11.84,9.68,11.84S601.76,256.58,601.76,249.62L601.76,249.62z"/>
			<path class="st0" d="M678.39,231.94c0,12.24-8,19.28-20.88,19.28h-8.08v18.24h-10.16v-56h18.48
				C670.63,213.46,678.39,220.02,678.39,231.94L678.39,231.94z M667.75,231.94c0-5.44-3.76-8.88-10.48-8.88h-7.84v18.56h7.84
				C663.99,241.62,667.75,237.7,667.75,231.94z"/>
			<path class="st0" d="M719.92,267.06c-4.64,2.48-9.76,3.44-15.28,3.44c-14,0-22-8.48-22-21.2s7.76-20.88,20.08-20.88
				c10.72,0,17.04,6.16,17.04,16.72c0,1.6-0.32,4.88-0.88,7.04h-25.92c1.12,6.64,5.84,9.28,13.6,9.28c4,0,6.88-0.56,10.88-2.16
				L719.92,267.06L719.92,267.06z M693.2,244.18h16.96v-0.32c0-4.16-3.28-7.44-7.92-7.44S694.48,239.62,693.2,244.18L693.2,244.18z"
				/>
			<path class="st0" d="M757.11,230.66l-2.24,7.68c-4.4-1.44-7.84-1.92-10.88-1.92c-4.64,0-7.2,1.6-7.2,4.08
				c0,5.52,21.68,1.84,21.68,17.04c0,7.68-5.92,12.96-17.36,12.96c-5.2,0-10-1.04-14.8-2.88l2.72-8.4c4,1.36,8.08,2.4,12.08,2.4
				c4.96,0,7.6-1.28,7.6-3.52c0-5.84-21.84-2.56-21.84-16.96c0-7.76,7.04-12.72,16.72-12.72
				C747.83,228.42,752.63,229.14,757.11,230.66L757.11,230.66z"/>
			<path class="st0" d="M793.68,230.66l-2.24,7.68c-4.4-1.44-7.84-1.92-10.88-1.92c-4.64,0-7.2,1.6-7.2,4.08
				c0,5.52,21.68,1.84,21.68,17.04c0,7.68-5.92,12.96-17.36,12.96c-5.2,0-10-1.04-14.8-2.88l2.72-8.4c4,1.36,8.08,2.4,12.08,2.4
				c4.96,0,7.6-1.28,7.6-3.52c0-5.84-21.84-2.56-21.84-16.96c0-7.76,7.04-12.72,16.72-12.72
				C784.4,228.42,789.2,229.14,793.68,230.66L793.68,230.66z"/>
			<path class="st0" d="M801.35,250.02c0-13.44,7.44-21.6,20.24-21.6s19.6,7.36,19.6,20.8s-7.6,21.28-20,21.28
				S801.35,262.9,801.35,250.02L801.35,250.02z M831.03,249.62c0-7.28-3.52-12.16-9.44-12.16c-6.4,0-10.08,4.88-10.08,12.16
				c0,7.28,3.52,11.84,9.68,11.84S831.03,256.58,831.03,249.62L831.03,249.62z"/>
			<path class="st0" d="M880.31,242.18v27.28h-6.16l-1.44-2.48c-2.88,2.24-6.32,3.52-10.96,3.52c-9.36,0-14.8-5.28-14.8-12.4
				c0-7.52,5.28-12.56,15.44-12.56h7.92v-1.44c0-4.4-3.36-6.8-9.52-6.8c-3.44,0-7.52,0.64-11.12,1.68l-1.68-8.32
				c4.96-1.44,10.48-2.24,15.12-2.24C875.59,228.42,880.31,234.1,880.31,242.18L880.31,242.18z M863.59,262.42
				c2.32,0,4.64-0.48,6.72-1.52v-7.76h-6.96c-4.32,0-6.16,1.92-6.16,4.56C857.19,260.66,859.67,262.42,863.59,262.42L863.59,262.42z
				"/>
		</g>
		<path class="st0" d="M0,12.81c0-1.83,1.6-3.43,3.43-3.43h41.16c1.83,0,3.43,1.6,3.43,3.43v92.39c0,17.15,8.23,27.67,26.99,27.67
			s26.76-10.52,26.76-27.67V12.81c0-1.83,1.6-3.43,3.43-3.43h41.16c1.83,0,3.43,1.6,3.43,3.43v89.65
			c0,40.25-20.12,69.29-74.78,69.29S0,142.7,0,102.45V12.81z M172.66,166.03V51.68c0-1.83,1.6-3.43,3.43-3.43h38.88
			c1.83,0,3.43,1.6,3.43,3.43v20.81c5.49-16.47,23.78-26.53,43.22-26.53c22.87,0,37.28,11.89,37.28,43.45v76.61
			c0,1.83-1.6,3.43-3.43,3.43h-38.88c-1.83,0-3.43-1.6-3.43-3.43V98.33c0-10.98-3.66-17.61-16.92-17.61s-17.84,2.52-17.84,6.63
			v78.67c0,1.83-1.6,3.43-3.43,3.43h-38.88c-1.83,0-3.43-1.6-3.43-3.43L172.66,166.03z M343.26,0c19.9,0,25.38,1.83,25.38,18.07
			s-5.49,18.3-25.38,18.3s-25.61-1.6-25.61-18.3S323.37,0,343.26,0z M320.62,51.68c0-1.83,1.6-3.43,3.43-3.43h38.88
			c1.83,0,3.43,1.6,3.43,3.43v114.35c0,1.83-1.6,3.43-3.43,3.43h-38.88c-1.83,0-3.43-1.6-3.43-3.43V51.68z M389.23,51.68
			c0-1.83,1.6-3.43,3.43-3.43h38.88c1.83,0,3.43,1.6,3.43,3.43v20.81c5.49-16.47,23.56-26.53,41.62-26.53s30.19,7.55,34.76,25.16
			c6.17-15.78,24.47-25.16,42.54-25.16c22.64,0,37.51,11.89,37.51,41.16v78.9c0,1.83-1.6,3.43-3.43,3.43h-38.88
			c-1.83,0-3.43-1.6-3.43-3.43V98.33c0-10.98-3.66-17.61-15.78-17.61s-16.69,2.52-16.69,6.63v78.67c0,1.83-1.6,3.43-3.43,3.43
			h-38.88c-1.83,0-3.43-1.6-3.43-3.43V98.33c0-10.98-3.66-17.61-15.78-17.61s-16.69,2.52-16.69,6.63v78.67
			c0,1.83-1.6,3.43-3.43,3.43h-38.88c-1.83,0-3.43-1.6-3.43-3.43L389.23,51.68L389.23,51.68z M675.09,45.96
			c42.31,0,60.83,23.33,60.83,59.46c0,7.78,0.23,15.32-8.92,15.32h-70.67c2.29,14.41,10.52,19.67,37.73,19.67h34.76
			c2.29,0,4.12,2.06,3.66,4.35l-3.66,18.52c-0.23,1.14-0.69,1.83-1.37,2.06c-10.98,4.57-27.21,6.4-46.2,6.4
			c-49.85,0-72.27-24.01-72.27-63.35s21.73-62.43,66.09-62.43L675.09,45.96z M693.84,98.33c0-14.18-4.12-23.1-18.07-23.1
			c-11.66,0-18.3,5.49-19.9,23.1h37.96H693.84z M795.84,45.96c18.52,0,31.1,8.92,38.42,23.78V12.88c0-1.83,1.6-3.43,3.43-3.43h38.88
			c1.83,0,3.43,1.6,3.43,3.43v153.15c0,1.83-1.6,3.43-3.43,3.43h-38.88c-1.83,0-3.43-1.6-3.43-3.43v-18.07
			c-7.32,14.86-19.9,23.78-38.42,23.78c-31.56,0-43.91-26.07-43.91-62.89S764.28,45.96,795.84,45.96L795.84,45.96z M818.94,138.58
			c10.75,0,15.32-4.8,15.32-10.98V88.72c0-6.4-5.95-9.6-15.32-9.6c-13.49,0-18.98,9.38-18.98,29.73S805.45,138.58,818.94,138.58z"/>
	</g>
</g>
</svg>
