<svg width="128" height="48" viewBox="0 0 128 48" fill="none" xmlns="http://www.w3.org/2000/svg">
<path d="M10.087 46.4737C4.83482 46.4737 0.560913 42.202 0.560913 36.9527V10.0791C0.560913 4.82977 4.83482 0.559387 10.087 0.559387H117.669C122.922 0.559387 127.195 4.83099 127.195 10.0791V46.4737H10.087Z" fill="#00985D"/>
<path d="M117.669 1.11881C122.62 1.11881 126.634 5.13034 126.634 10.0791V45.913H10.087C5.13557 45.913 1.12187 41.9015 1.12187 36.9527V10.0791C1.12187 5.13034 5.13557 1.11881 10.087 1.11881H117.67H117.669ZM117.669 0H10.0858C4.52431 0 0 4.52187 0 10.0804V36.9539C0 42.5124 4.52431 47.0343 10.0858 47.0343H127.755V10.0804C127.755 4.52187 123.23 0 117.669 0Z" fill="white"/>
<path d="M42.7563 35.5174C42.7563 36.5392 42.1733 37.0766 41.2146 37.0766C40.8918 37.0766 40.623 37.0496 40.2278 36.9784V35.9835H40.8108C41.3312 35.9835 41.5902 35.7958 41.5902 35.2573V30.6876H42.7563V35.5174Z" fill="white"/>
<path d="M43.7419 34.7825C43.7419 33.2773 44.5754 32.3633 46.0102 32.3633C47.4451 32.3633 48.2073 33.1877 48.2073 34.693C48.2073 36.1982 47.3555 37.0766 45.966 37.0766C44.5766 37.0766 43.7432 36.2252 43.7432 34.7825H43.7419ZM47.0683 34.7384C47.0683 33.9226 46.6743 33.3767 46.0102 33.3767C45.2934 33.3767 44.881 33.9238 44.881 34.7384C44.881 35.5529 45.275 36.0645 45.966 36.0645C46.6571 36.0645 47.0683 35.5174 47.0683 34.7384Z" fill="white"/>
<path d="M52.6445 33.9042V36.96H51.9546L51.7938 36.6828C51.471 36.9343 51.0856 37.0766 50.5652 37.0766C49.5157 37.0766 48.9069 36.4853 48.9069 35.6879C48.9069 34.8451 49.4985 34.2808 50.6376 34.2808H51.525V34.1188C51.525 33.6257 51.1482 33.357 50.4584 33.357C50.073 33.357 49.6151 33.4282 49.2126 33.5447L49.0248 32.6124C49.5808 32.4504 50.1994 32.3609 50.7198 32.3609C52.1179 32.3609 52.6469 32.9976 52.6469 33.9017L52.6445 33.9042ZM49.9011 31.9511L48.9953 31.853L49.0407 31.5574C49.1303 30.9845 49.4445 30.6164 49.9282 30.6164C50.4388 30.6164 50.9592 30.8937 51.3004 30.8937C51.5336 30.8937 51.6146 30.8225 51.6588 30.598L52.5819 30.6962L52.5193 31.0814C52.4297 31.6285 52.1154 31.8788 51.6588 31.8788C51.0488 31.8788 50.6192 31.6457 50.224 31.6457C49.9993 31.6457 49.9281 31.7622 49.9011 31.9499V31.9511ZM50.7714 36.1712C51.0316 36.1712 51.2918 36.1173 51.525 36.0007V35.1309H50.7456C50.262 35.1309 50.0558 35.3456 50.0558 35.6413C50.0558 35.9725 50.3332 36.17 50.7726 36.17L50.7714 36.1712Z" fill="white"/>
<path d="M53.5049 34.7825C53.5049 33.2773 54.3384 32.3633 55.7732 32.3633C57.2081 32.3633 57.9703 33.1877 57.9703 34.693C57.9703 36.1982 57.1185 37.0766 55.729 37.0766C54.3396 37.0766 53.5062 36.2252 53.5062 34.7825H53.5049ZM56.8313 34.7384C56.8313 33.9226 56.4373 33.3767 55.7732 33.3767C55.0564 33.3767 54.644 33.9238 54.644 34.7384C54.644 35.5529 55.038 36.0645 55.729 36.0645C56.4201 36.0645 56.8313 35.5174 56.8313 34.7384Z" fill="white"/>
<path d="M65.4196 32.7572C65.4196 34.1287 64.5236 34.9163 63.0801 34.9163H62.1743V36.9589H61.0352V30.6864H63.1059C64.5493 30.6864 65.4196 31.4212 65.4196 32.756V32.7572ZM64.2278 32.7572C64.2278 32.1475 63.8067 31.7623 63.0531 31.7623H62.1743V33.8417H63.0531C63.8067 33.8417 64.2278 33.4025 64.2278 32.7572Z" fill="white"/>
<path d="M70.3243 36.6914C69.8039 36.9686 69.2307 37.0766 68.6121 37.0766C67.0434 37.0766 66.1462 36.1271 66.1462 34.7016C66.1462 33.2761 67.0164 32.3633 68.3961 32.3633C69.5977 32.3633 70.3059 33.0528 70.3059 34.2366C70.3059 34.4157 70.2703 34.7838 70.2077 35.0254H67.3024C67.4276 35.7689 67.9566 36.0645 68.8269 36.0645C69.2749 36.0645 69.5977 36.0019 70.0457 35.8228L70.3231 36.6914H70.3243ZM67.3294 34.1287H69.2307V34.0931C69.2307 33.6269 68.8637 33.2601 68.3433 33.2601C67.8228 33.2601 67.473 33.6183 67.3306 34.1287H67.3294Z" fill="white"/>
<path d="M74.4927 32.6149L74.2423 33.4748C73.7489 33.3141 73.3635 33.2602 73.0235 33.2602C72.503 33.2602 72.2171 33.4393 72.2171 33.7177C72.2171 34.336 74.6462 33.9238 74.6462 35.6266C74.6462 36.4866 73.9821 37.0779 72.7007 37.0779C72.1176 37.0779 71.58 36.9613 71.0424 36.7552L71.3468 35.8143C71.7948 35.9664 72.2527 36.083 72.7007 36.083C73.2567 36.083 73.5525 35.9394 73.5525 35.6892C73.5525 35.0353 71.105 35.4021 71.105 33.7889C71.105 32.9203 71.8942 32.3646 72.9793 32.3646C73.4543 32.3646 73.9919 32.4456 74.494 32.6161L74.4927 32.6149Z" fill="white"/>
<path d="M78.7961 32.6149L78.5457 33.4748C78.0523 33.3141 77.6669 33.2602 77.3269 33.2602C76.8065 33.2602 76.5205 33.4393 76.5205 33.7177C76.5205 34.336 78.9496 33.9238 78.9496 35.6266C78.9496 36.4866 78.2855 37.0779 77.0041 37.0779C76.4211 37.0779 75.8834 36.9613 75.3458 36.7552L75.6502 35.8143C76.0982 35.9664 76.5561 36.083 77.0041 36.083C77.5601 36.083 77.8559 35.9394 77.8559 35.6892C77.8559 35.0353 75.4084 35.4021 75.4084 33.7889C75.4084 32.9203 76.1977 32.3646 77.2827 32.3646C77.7577 32.3646 78.2953 32.4456 78.7974 32.6161L78.7961 32.6149Z" fill="white"/>
<path d="M79.6209 34.7825C79.6209 33.2773 80.4543 32.3633 81.8892 32.3633C83.3241 32.3633 84.0863 33.1877 84.0863 34.693C84.0863 36.1982 83.2345 37.0766 81.845 37.0766C80.4556 37.0766 79.6209 36.2252 79.6209 34.7825ZM82.9473 34.7384C82.9473 33.9226 82.5533 33.3767 81.8892 33.3767C81.1724 33.3767 80.76 33.9238 80.76 34.7384C80.76 35.5529 81.154 36.0645 81.845 36.0645C82.5361 36.0645 82.9473 35.5174 82.9473 34.7384Z" fill="white"/>
<path d="M88.5235 33.9042V36.9601H87.8337L87.6716 36.6828C87.3488 36.9343 86.9634 37.0766 86.443 37.0766C85.3935 37.0766 84.7847 36.4853 84.7847 35.6879C84.7847 34.8451 85.3763 34.2808 86.5154 34.2808H87.4028V34.1189C87.4028 33.6257 87.026 33.357 86.3362 33.357C85.9508 33.357 85.493 33.4282 85.0904 33.5447L84.9026 32.6124C85.4586 32.4505 86.0772 32.3609 86.5976 32.3609C87.9957 32.3609 88.5247 32.9976 88.5247 33.9017L88.5235 33.9042ZM86.6492 36.1712C86.9094 36.1712 87.1696 36.1173 87.4028 36.0007V35.1309H86.6222C86.1386 35.1309 85.9324 35.3456 85.9324 35.6413C85.9324 35.9725 86.2098 36.17 86.6492 36.17V36.1712Z" fill="white"/>
<path d="M14.5696 12.61C14.5696 12.4566 14.7046 12.3229 14.858 12.3229H18.3145C18.4679 12.3229 18.6017 12.4579 18.6017 12.61V20.3644C18.6017 21.8034 19.2927 22.6867 20.8687 22.6867C22.4448 22.6867 23.1162 21.8034 23.1162 20.3644V12.61C23.1162 12.4566 23.2512 12.3229 23.4046 12.3229H26.8611C27.0145 12.3229 27.1495 12.4579 27.1495 12.61V20.135C27.1495 23.5135 25.4593 25.9511 20.87 25.9511C16.2806 25.9511 14.5708 23.5135 14.5708 20.135V12.61H14.5696ZM29.0692 25.4702V15.8732C29.0692 15.7198 29.2042 15.5861 29.3576 15.5861H32.6226C32.7761 15.5861 32.9111 15.7198 32.9111 15.8732V17.6201C33.3726 16.2375 34.9081 15.3935 36.5406 15.3935C38.4615 15.3935 39.6705 16.3909 39.6705 19.0407V25.4714C39.6705 25.6248 39.5367 25.7597 39.3833 25.7597H36.1183C35.9649 25.7597 35.8299 25.6248 35.8299 25.4714V19.7903C35.8299 18.869 35.523 18.312 34.4085 18.312C33.294 18.312 32.9111 18.523 32.9111 18.8677V25.4714C32.9111 25.6248 32.7761 25.7597 32.6226 25.7597H29.3576C29.2042 25.7597 29.0692 25.6248 29.0692 25.4714M43.3958 11.5353C45.0663 11.5353 45.5278 11.6887 45.5278 13.0516C45.5278 14.4146 45.0663 14.5875 43.3958 14.5875C41.7252 14.5875 41.2453 14.4526 41.2453 13.0516C41.2453 11.6507 41.7252 11.5353 43.3958 11.5353ZM41.4945 15.8732C41.4945 15.7198 41.6295 15.5861 41.7829 15.5861H45.0479C45.2013 15.5861 45.3363 15.7198 45.3363 15.8732V25.4702C45.3363 25.6235 45.2013 25.7585 45.0479 25.7585H41.7829C41.6295 25.7585 41.4945 25.6235 41.4945 25.4702V15.8732ZM47.256 15.8732C47.256 15.7198 47.3911 15.5861 47.5445 15.5861H50.8095C50.9629 15.5861 51.0979 15.7198 51.0979 15.8732V17.6201C51.5594 16.2375 53.0753 15.3935 54.5936 15.3935C56.112 15.3935 57.1283 16.0265 57.5124 17.5048C58.0304 16.1799 59.5672 15.3935 61.0843 15.3935C62.9856 15.3935 64.2339 16.3909 64.2339 18.8481V25.4702C64.2339 25.6235 64.0988 25.7585 63.9454 25.7585H60.6805C60.527 25.7585 60.392 25.6235 60.392 25.4702V19.789C60.392 18.8677 60.0851 18.3108 59.0664 18.3108C58.0476 18.3108 57.6646 18.5218 57.6646 18.8665V25.4702C57.6646 25.6235 57.5296 25.7585 57.3762 25.7585H54.1112C53.9578 25.7585 53.8228 25.6235 53.8228 25.4702V19.789C53.8228 18.8677 53.5159 18.3108 52.4972 18.3108C51.4784 18.3108 51.0955 18.5218 51.0955 18.8665V25.4702C51.0955 25.6235 50.9604 25.7585 50.807 25.7585H47.542C47.3886 25.7585 47.2536 25.6235 47.2536 25.4702V15.8732H47.256ZM71.2634 15.3935C74.8168 15.3935 76.3719 17.3514 76.3719 20.384C76.3719 21.0367 76.3916 21.6697 75.6232 21.6697H69.6886C69.88 22.8793 70.5711 23.3209 72.8566 23.3209H75.7766C75.9681 23.3209 76.1215 23.4939 76.0835 23.6853L75.7766 25.2396C75.757 25.3353 75.7189 25.3929 75.6612 25.4125C74.7394 25.7965 73.3758 25.9499 71.7813 25.9499C67.5946 25.9499 65.7129 23.9343 65.7129 20.6331C65.7129 17.3318 67.5369 15.3935 71.2634 15.3935ZM72.8369 19.789C72.8369 18.5991 72.492 17.8507 71.3198 17.8507C70.3403 17.8507 69.7843 18.312 69.6493 19.789H72.8369ZM81.4032 15.3935C82.9583 15.3935 84.0151 16.1419 84.6301 17.3895V12.6039C84.6301 12.4505 84.7651 12.3156 84.9173 12.3156H88.1822C88.3357 12.3156 88.4707 12.4505 88.4707 12.6039V25.4702C88.4707 25.6235 88.3357 25.7585 88.1822 25.7585H84.9173C84.7639 25.7585 84.6301 25.6235 84.6301 25.4702V23.9539C84.0151 25.2015 82.9583 25.9499 81.4032 25.9499C78.7531 25.9499 77.716 23.7613 77.716 20.6711C77.716 17.5809 78.7531 15.3923 81.4032 15.3923M83.3425 23.1676C84.2459 23.1676 84.6301 22.7639 84.6301 22.2463V18.983C84.6301 18.4457 84.1305 18.1771 83.3425 18.1771C82.2096 18.1771 81.7493 18.9634 81.7493 20.6723C81.7493 22.3812 82.2096 23.1676 83.3425 23.1676Z" fill="white"/>
<path d="M95.7113 25.7609H99.973C100.222 25.7609 100.357 25.6836 100.492 25.5119L103.259 21.7592C103.316 21.6819 103.374 21.5862 103.374 21.4905C103.374 21.3556 103.239 21.2795 103.01 21.2795H101.418C101.168 21.2795 101.033 21.1642 101.033 21.0109C101.033 20.9152 101.091 20.8182 101.149 20.7422L103.685 17.3404C103.742 17.2631 103.8 17.1674 103.8 17.0717C103.8 16.9183 103.665 16.803 103.416 16.803H101.531C101.28 16.803 101.146 16.7073 101.146 16.554C101.146 16.4583 101.204 16.343 101.262 16.2657L103.724 12.9951C103.859 12.8222 104.05 12.7645 104.224 12.7645C104.397 12.7645 104.588 12.8222 104.723 12.9951L107.185 16.2657C107.243 16.343 107.301 16.4583 107.301 16.554C107.301 16.7073 107.166 16.803 106.917 16.803H105.03C104.781 16.803 104.646 16.9183 104.646 17.0717C104.646 17.1674 104.703 17.2631 104.761 17.3404L107.297 20.7422C107.355 20.8195 107.412 20.9152 107.412 21.0109C107.412 21.1642 107.277 21.2795 107.028 21.2795H105.436C105.205 21.2795 105.072 21.3568 105.072 21.4905C105.072 21.5862 105.129 21.6819 105.187 21.7592L107.954 25.5119C108.089 25.6848 108.242 25.7609 108.473 25.7609H112.735C113.041 25.7609 113.214 25.6456 113.214 25.4542C113.214 25.3389 113.157 25.2236 113.099 25.1475L110.602 21.7592C110.545 21.6819 110.487 21.5862 110.487 21.4905C110.487 21.3556 110.622 21.2795 110.852 21.2795H113.849C114.156 21.2795 114.311 21.1642 114.311 20.9728C114.311 20.8575 114.253 20.7422 114.195 20.6661L108.067 12.5535C107.951 12.4002 107.836 12.3229 107.567 12.3229H100.69C100.517 12.3229 100.325 12.3609 100.19 12.5535L94.2544 20.6661C94.177 20.7814 94.139 20.8771 94.139 20.9728C94.139 21.1654 94.2924 21.2795 94.6005 21.2795H97.5967C97.8274 21.2795 97.9624 21.3568 97.9624 21.4905C97.9624 21.5862 97.9047 21.6819 97.8471 21.7592L95.3492 25.1475C95.2915 25.2248 95.2339 25.3389 95.2339 25.4542C95.2339 25.6468 95.4069 25.7609 95.7138 25.7609" fill="white"/>
</svg>
