<?xml version="1.0" encoding="utf-8"?>
<!-- Generator: Adobe Illustrator 16.0.0, SVG Export Plug-In . SVG Version: 6.00 Build 0)  -->
<!DOCTYPE svg PUBLIC "-//W3C//DTD SVG 1.1//EN" "http://www.w3.org/Graphics/SVG/1.1/DTD/svg11.dtd">
<svg version="1.1" id="Layer_1" xmlns="http://www.w3.org/2000/svg" xmlns:xlink="http://www.w3.org/1999/xlink" x="0px" y="0px"
	 width="113.386px" height="52.818px" viewBox="0 0 113.386 52.818" enable-background="new 0 0 113.386 52.818"
	 xml:space="preserve">
<g>
	<g>
		<g>
			<g>
				<path fill="#008C50" d="M8.727,52.162c-4.448,0-8.069-3.622-8.069-8.072V8.73c0-4.451,3.621-8.071,8.069-8.071h95.93
					c4.451,0,8.071,3.62,8.071,8.071v43.432H8.727z"/>
				<path fill="#FFFFFF" d="M104.656,1.316c4.095,0,7.412,3.319,7.412,7.414v42.773H8.727c-4.095,0-7.41-3.318-7.41-7.414V8.73
					c0-4.095,3.315-7.414,7.41-7.414H104.656 M104.656,0H8.727C3.915,0,0,3.917,0,8.73v35.359c0,4.814,3.915,8.729,8.727,8.729
					h103.342h1.317v-1.314V8.73C113.386,3.917,109.474,0,104.656,0L104.656,0z"/>
			</g>
			<g>
				<polygon fill-rule="evenodd" clip-rule="evenodd" fill="#FFFFFF" points="91.321,14.366 95.242,14.366 101.112,22.201 
					97.196,22.201 100.138,26.118 95.242,26.118 92.3,22.202 94.258,22.202 91.325,18.282 94.258,18.282 				"/>
				<polygon fill-rule="evenodd" clip-rule="evenodd" fill="#FFFFFF" points="91.321,14.366 87.403,14.366 81.531,22.201 
					85.444,22.201 82.508,26.118 87.406,26.118 90.343,22.202 88.384,22.202 91.321,18.282 88.388,18.282 				"/>
			</g>
			<rect x="78.757" y="12.277" fill-rule="evenodd" clip-rule="evenodd" fill="#FFFFFF" width="0.684" height="28.266"/>
			<g>
				<path fill-rule="evenodd" clip-rule="evenodd" fill="#FFFFFF" d="M16.483,15.147h-4.21v6.658c0,3.234,2.403,4.489,5.464,4.489
					c3.314,0,5.496-1.161,5.496-4.711v-6.437H19.12v6.516c0,1.067-0.236,1.807-1.332,1.807c-1.008,0-1.305-0.786-1.305-1.822V15.147
					z"/>
				<path fill-rule="evenodd" clip-rule="evenodd" fill="#FFFFFF" d="M24.41,26.108h3.956v-4.712c0-0.471,0-1.114,0.705-1.114
					c0.691,0,0.691,0.644,0.691,1.114v4.712h3.956v-5.684c0-1.588-0.769-2.687-2.872-2.687c-1.115,0-2.199,0.455-2.67,1.602h-0.031
					v-1.414H24.41V26.108z"/>
				<path fill-rule="evenodd" clip-rule="evenodd" fill="#FFFFFF" d="M35.224,26.108h3.959v-8.183h-3.959V26.108L35.224,26.108z
					 M39.183,14.331h-3.959v2.732h3.959V14.331z"/>
				<path fill-rule="evenodd" clip-rule="evenodd" fill="#FFFFFF" d="M40.478,26.108h3.959v-4.712c0-0.471,0-1.114,0.703-1.114
					c0.691,0,0.691,0.644,0.691,1.114v4.712h3.959v-4.712c0-0.471,0-1.114,0.69-1.114c0.706,0,0.706,0.644,0.706,1.114v4.712h3.955
					v-4.901c0-1.6,0-3.469-2.889-3.469c-0.973,0-2.354,0.455-2.621,1.398h-0.031c-0.315-0.975-1.459-1.398-2.559-1.398
					c-1.242,0-2.323,0.455-2.795,1.602h-0.033v-1.414h-3.736V26.108z"/>
				<path fill-rule="evenodd" clip-rule="evenodd" fill="#FFFFFF" d="M59.802,21.238c-0.047-0.642,0.158-1.615,1.065-1.615
					c0.896,0,0.992,0.989,0.992,1.615H59.802L59.802,21.238z M65.281,22.964V22.48c0-2.764-1.116-4.742-4.288-4.742
					c-3.311,0-5.07,1.382-5.07,4.13c0,2.825,1.76,4.427,5.07,4.427c1.382,0,2.639-0.143,3.691-0.472v-2.119
					c-0.63,0.33-1.604,0.519-2.688,0.519c-1.161,0-2.118-0.234-2.184-1.258H65.281z"/>
				<path fill-rule="evenodd" clip-rule="evenodd" fill="#FFFFFF" d="M75.969,26.108V14.331h-3.956v4.648h-0.031
					c-0.613-0.88-1.416-1.241-2.466-1.241c-2.466,0-3.484,1.932-3.484,4.146c0,2.37,0.972,4.411,3.594,4.411
					c1.288,0,2.091-0.455,2.638-1.68h0.031v1.493H75.969L75.969,26.108z M72.125,21.979c0,0.769-0.128,1.68-0.977,1.68
					c-0.86,0-1.005-0.911-1.005-1.775c0-0.85,0.145-1.697,0.974-1.697C71.997,20.186,72.125,21.034,72.125,21.979z"/>
			</g>
			<rect x="12.273" y="28.208" fill-rule="evenodd" clip-rule="evenodd" fill="#FFFFFF" width="88.839" height="0.681"/>
			<g>
				<path fill="#FFFFFF" d="M32.425,34.892l0.652-0.089c0.018,0.417,0.096,0.703,0.235,0.857s0.332,0.231,0.578,0.231
					c0.182,0,0.338-0.042,0.47-0.125c0.132-0.083,0.223-0.196,0.272-0.34c0.05-0.143,0.075-0.371,0.075-0.684v-3.767h0.723v3.726
					c0,0.457-0.055,0.812-0.166,1.063c-0.111,0.251-0.286,0.442-0.526,0.574c-0.24,0.132-0.521,0.197-0.845,0.197
					c-0.48,0-0.847-0.138-1.102-0.413C32.537,35.847,32.415,35.437,32.425,34.892z"/>
				<path fill="#FFFFFF" d="M36.277,34.463c0-0.733,0.204-1.276,0.612-1.63c0.34-0.293,0.756-0.439,1.246-0.439
					c0.544,0,0.989,0.179,1.335,0.535s0.519,0.85,0.519,1.479c0,0.51-0.077,0.91-0.229,1.203c-0.153,0.292-0.375,0.519-0.667,0.68
					c-0.292,0.162-0.611,0.243-0.957,0.243c-0.555,0-1.002-0.178-1.345-0.533C36.448,35.645,36.277,35.132,36.277,34.463z
					 M36.967,34.463c0,0.508,0.111,0.888,0.332,1.14s0.5,0.378,0.835,0.378c0.333,0,0.61-0.126,0.832-0.38s0.332-0.641,0.332-1.16
					c0-0.489-0.111-0.86-0.334-1.113c-0.223-0.252-0.499-0.378-0.83-0.378c-0.336,0-0.614,0.125-0.835,0.377
					C37.078,33.578,36.967,33.957,36.967,34.463z"/>
				<path fill="#FFFFFF" d="M43.359,35.956c-0.249,0.211-0.488,0.36-0.718,0.447s-0.477,0.131-0.74,0.131
					c-0.436,0-0.77-0.106-1.003-0.319s-0.351-0.484-0.351-0.814c0-0.194,0.044-0.371,0.132-0.531
					c0.088-0.161,0.204-0.289,0.347-0.387c0.143-0.097,0.304-0.17,0.483-0.22c0.131-0.035,0.331-0.068,0.597-0.101
					c0.542-0.064,0.941-0.142,1.197-0.231c0.002-0.092,0.004-0.15,0.004-0.175c0-0.273-0.063-0.467-0.19-0.578
					c-0.171-0.151-0.426-0.228-0.764-0.228c-0.316,0-0.549,0.056-0.699,0.166s-0.262,0.307-0.334,0.587l-0.656-0.089
					c0.06-0.281,0.158-0.508,0.294-0.681s0.334-0.306,0.593-0.399c0.258-0.093,0.558-0.14,0.898-0.14
					c0.338,0,0.613,0.04,0.824,0.119c0.211,0.08,0.367,0.18,0.466,0.3c0.099,0.121,0.169,0.273,0.209,0.457
					c0.022,0.114,0.033,0.321,0.033,0.619v0.896c0,0.624,0.015,1.019,0.043,1.184c0.029,0.165,0.085,0.324,0.17,0.476h-0.701
					C43.423,36.304,43.379,36.142,43.359,35.956z M41.125,31.898c-0.002-0.259,0.068-0.465,0.212-0.619
					c0.142-0.154,0.323-0.231,0.544-0.231c0.154,0,0.364,0.067,0.63,0.202c0.146,0.074,0.264,0.111,0.351,0.111
					c0.08,0,0.141-0.021,0.183-0.065c0.042-0.043,0.072-0.13,0.09-0.259h0.484c-0.007,0.283-0.079,0.496-0.214,0.638
					c-0.135,0.142-0.308,0.213-0.517,0.213c-0.156,0-0.363-0.07-0.619-0.209c-0.167-0.09-0.289-0.135-0.366-0.135
					c-0.084,0-0.153,0.03-0.205,0.09c-0.055,0.06-0.081,0.147-0.078,0.265H41.125z M43.303,34.457
					c-0.244,0.099-0.609,0.184-1.096,0.253c-0.276,0.04-0.471,0.085-0.585,0.135s-0.203,0.122-0.265,0.218
					c-0.063,0.096-0.093,0.202-0.093,0.319c0,0.179,0.067,0.328,0.203,0.447c0.135,0.119,0.333,0.179,0.595,0.179
					c0.258,0,0.488-0.057,0.69-0.17c0.201-0.112,0.349-0.268,0.444-0.464c0.072-0.151,0.108-0.375,0.108-0.671V34.457z"/>
				<path fill="#FFFFFF" d="M44.772,34.463c0-0.733,0.204-1.276,0.612-1.63c0.34-0.293,0.756-0.439,1.246-0.439
					c0.544,0,0.989,0.179,1.335,0.535s0.519,0.85,0.519,1.479c0,0.51-0.077,0.91-0.229,1.203c-0.153,0.292-0.375,0.519-0.667,0.68
					c-0.292,0.162-0.611,0.243-0.957,0.243c-0.555,0-1.002-0.178-1.345-0.533C44.943,35.645,44.772,35.132,44.772,34.463z
					 M45.462,34.463c0,0.508,0.111,0.888,0.332,1.14s0.5,0.378,0.835,0.378c0.333,0,0.61-0.126,0.832-0.38s0.332-0.641,0.332-1.16
					c0-0.489-0.111-0.86-0.334-1.113c-0.223-0.252-0.499-0.378-0.83-0.378c-0.336,0-0.614,0.125-0.835,0.377
					C45.573,33.578,45.462,33.957,45.462,34.463z"/>
				<path fill="#FFFFFF" d="M51.478,36.444v-5.467h2.062c0.363,0,0.64,0.018,0.832,0.052c0.269,0.045,0.494,0.13,0.675,0.256
					c0.181,0.125,0.328,0.302,0.438,0.527c0.111,0.227,0.166,0.475,0.166,0.746c0,0.465-0.148,0.858-0.444,1.181
					c-0.296,0.321-0.83,0.482-1.604,0.482h-1.402v2.223H51.478z M52.201,33.576h1.414c0.467,0,0.799-0.087,0.996-0.261
					s0.295-0.419,0.295-0.734c0-0.229-0.058-0.425-0.174-0.588c-0.115-0.162-0.268-0.271-0.457-0.322
					c-0.122-0.032-0.347-0.049-0.675-0.049h-1.398V33.576z"/>
				<path fill="#FFFFFF" d="M59.196,35.168l0.694,0.086c-0.109,0.405-0.313,0.72-0.608,0.943s-0.674,0.336-1.134,0.336
					c-0.579,0-1.039-0.179-1.378-0.535c-0.339-0.357-0.509-0.857-0.509-1.501c0-0.667,0.171-1.184,0.515-1.552
					c0.343-0.368,0.788-0.552,1.335-0.552c0.529,0,0.962,0.18,1.298,0.541c0.335,0.36,0.503,0.867,0.503,1.521
					c0,0.039-0.001,0.099-0.004,0.179h-2.953c0.025,0.435,0.148,0.769,0.369,0.999c0.222,0.231,0.498,0.347,0.828,0.347
					c0.246,0,0.456-0.064,0.631-0.193C58.957,35.659,59.095,35.452,59.196,35.168z M56.993,34.083h2.211
					c-0.03-0.333-0.114-0.583-0.254-0.75c-0.214-0.259-0.491-0.388-0.831-0.388c-0.309,0-0.568,0.104-0.778,0.31
					S57.015,33.738,56.993,34.083z"/>
				<path fill="#FFFFFF" d="M60.465,35.261l0.664-0.104c0.037,0.266,0.141,0.47,0.311,0.611s0.408,0.212,0.715,0.212
					c0.308,0,0.537-0.063,0.686-0.188c0.149-0.126,0.224-0.273,0.224-0.442c0-0.151-0.065-0.271-0.197-0.357
					c-0.093-0.061-0.321-0.136-0.687-0.228c-0.492-0.125-0.834-0.232-1.023-0.323c-0.19-0.091-0.334-0.216-0.433-0.376
					c-0.099-0.161-0.147-0.338-0.147-0.532c0-0.176,0.041-0.34,0.121-0.49c0.081-0.15,0.191-0.275,0.33-0.375
					c0.104-0.076,0.247-0.142,0.428-0.195c0.18-0.054,0.373-0.08,0.58-0.08c0.311,0,0.583,0.045,0.818,0.134
					c0.234,0.09,0.408,0.211,0.52,0.364c0.112,0.152,0.189,0.357,0.231,0.613l-0.656,0.089c-0.03-0.203-0.116-0.362-0.259-0.477
					c-0.144-0.114-0.346-0.172-0.606-0.172c-0.309,0-0.528,0.051-0.66,0.153c-0.132,0.102-0.198,0.221-0.198,0.357
					c0,0.087,0.027,0.166,0.082,0.235c0.055,0.072,0.141,0.132,0.258,0.179c0.067,0.025,0.265,0.082,0.594,0.172
					c0.475,0.127,0.805,0.23,0.993,0.312c0.188,0.08,0.335,0.198,0.442,0.352c0.106,0.154,0.16,0.346,0.16,0.575
					c0,0.224-0.065,0.434-0.196,0.632c-0.13,0.197-0.319,0.351-0.565,0.459c-0.246,0.107-0.523,0.162-0.834,0.162
					c-0.516,0-0.908-0.107-1.178-0.321S60.539,35.682,60.465,35.261z"/>
				<path fill="#FFFFFF" d="M64.283,35.261l0.664-0.104c0.037,0.266,0.141,0.47,0.311,0.611c0.171,0.142,0.409,0.212,0.715,0.212
					c0.309,0,0.537-0.063,0.686-0.188c0.15-0.126,0.225-0.273,0.225-0.442c0-0.151-0.066-0.271-0.197-0.357
					c-0.093-0.061-0.321-0.136-0.688-0.228c-0.492-0.125-0.833-0.232-1.023-0.323c-0.189-0.091-0.334-0.216-0.432-0.376
					c-0.099-0.161-0.148-0.338-0.148-0.532c0-0.176,0.041-0.34,0.122-0.49s0.19-0.275,0.329-0.375
					c0.105-0.076,0.248-0.142,0.428-0.195s0.373-0.08,0.58-0.08c0.311,0,0.584,0.045,0.818,0.134c0.234,0.09,0.408,0.211,0.52,0.364
					c0.113,0.152,0.189,0.357,0.232,0.613l-0.656,0.089c-0.03-0.203-0.117-0.362-0.26-0.477s-0.346-0.172-0.605-0.172
					c-0.309,0-0.529,0.051-0.66,0.153c-0.133,0.102-0.198,0.221-0.198,0.357c0,0.087,0.027,0.166,0.082,0.235
					c0.055,0.072,0.141,0.132,0.257,0.179c0.068,0.025,0.266,0.082,0.594,0.172c0.475,0.127,0.806,0.23,0.994,0.312
					c0.188,0.08,0.334,0.198,0.441,0.352c0.107,0.154,0.16,0.346,0.16,0.575c0,0.224-0.064,0.434-0.195,0.632
					c-0.131,0.197-0.319,0.351-0.565,0.459c-0.246,0.107-0.524,0.162-0.835,0.162c-0.515,0-0.907-0.107-1.177-0.321
					C64.529,35.999,64.357,35.682,64.283,35.261z"/>
				<path fill="#FFFFFF" d="M68.121,34.463c0-0.733,0.203-1.276,0.611-1.63c0.34-0.293,0.756-0.439,1.246-0.439
					c0.544,0,0.988,0.179,1.334,0.535s0.52,0.85,0.52,1.479c0,0.51-0.077,0.91-0.23,1.203c-0.152,0.292-0.375,0.519-0.667,0.68
					c-0.292,0.162-0.611,0.243-0.956,0.243c-0.555,0-1.003-0.178-1.346-0.533C68.291,35.645,68.121,35.132,68.121,34.463z
					 M68.811,34.463c0,0.508,0.111,0.888,0.332,1.14s0.5,0.378,0.836,0.378c0.332,0,0.609-0.126,0.831-0.38s0.332-0.641,0.332-1.16
					c0-0.489-0.111-0.86-0.334-1.113c-0.223-0.252-0.499-0.378-0.829-0.378c-0.336,0-0.615,0.125-0.836,0.377
					C68.922,33.578,68.811,33.957,68.811,34.463z"/>
				<path fill="#FFFFFF" d="M75.203,35.956c-0.249,0.211-0.488,0.36-0.719,0.447c-0.229,0.087-0.477,0.131-0.74,0.131
					c-0.436,0-0.77-0.106-1.003-0.319s-0.351-0.484-0.351-0.814c0-0.194,0.045-0.371,0.133-0.531
					c0.088-0.161,0.203-0.289,0.347-0.387c0.143-0.097,0.304-0.17,0.483-0.22c0.131-0.035,0.33-0.068,0.596-0.101
					c0.543-0.064,0.941-0.142,1.197-0.231c0.002-0.092,0.004-0.15,0.004-0.175c0-0.273-0.063-0.467-0.19-0.578
					c-0.171-0.151-0.427-0.228-0.765-0.228c-0.315,0-0.549,0.056-0.699,0.166s-0.262,0.307-0.334,0.587l-0.656-0.089
					c0.061-0.281,0.158-0.508,0.295-0.681s0.334-0.306,0.594-0.399c0.258-0.093,0.558-0.14,0.898-0.14
					c0.338,0,0.612,0.04,0.824,0.119c0.211,0.08,0.366,0.18,0.466,0.3c0.099,0.121,0.169,0.273,0.209,0.457
					c0.022,0.114,0.033,0.321,0.033,0.619v0.896c0,0.624,0.015,1.019,0.043,1.184s0.085,0.324,0.17,0.476h-0.701
					C75.268,36.304,75.223,36.142,75.203,35.956z M75.146,34.457c-0.244,0.099-0.609,0.184-1.096,0.253
					c-0.276,0.04-0.472,0.085-0.586,0.135s-0.203,0.122-0.265,0.218c-0.063,0.096-0.093,0.202-0.093,0.319
					c0,0.179,0.066,0.328,0.203,0.447c0.135,0.119,0.333,0.179,0.594,0.179c0.259,0,0.488-0.057,0.69-0.17
					c0.201-0.112,0.349-0.268,0.444-0.464c0.071-0.151,0.107-0.375,0.107-0.671V34.457z"/>
			</g>
		</g>
	</g>
</g>
</svg>
