<svg width="41" height="37" viewBox="0 0 41 37" fill="none" xmlns="http://www.w3.org/2000/svg">
<path d="M35.1827 18.3712C36.044 18.3712 36.7492 19.0707 36.6762 19.929C36.3825 23.3808 35.1172 26.6909 33.0118 29.4685C30.5914 32.6618 27.1933 34.9762 23.3354 36.0589C19.4775 37.1417 15.3714 36.9334 11.6428 35.4659C7.9143 33.9984 4.76779 31.3521 2.68284 27.9303C0.5979 24.5085 -0.311137 20.4988 0.0942709 16.5124C0.499678 12.5261 2.1973 8.78151 4.92841 5.8495C7.65952 2.91749 11.2744 0.958796 15.222 0.271927C18.6558 -0.325532 22.1776 0.0677768 25.3797 1.38941C26.176 1.71803 26.4744 2.66548 26.0794 3.43098C25.6845 4.19648 24.7459 4.4887 23.9441 4.17394C21.3518 3.15634 18.5199 2.86432 15.7567 3.34511C12.4794 3.91535 9.47832 5.54146 7.21094 7.97563C4.94356 10.4098 3.53419 13.5185 3.19762 16.828C2.86104 20.1376 3.61573 23.4664 5.34666 26.3072C7.07759 29.1479 9.68983 31.3449 12.7853 32.5633C15.8807 33.7816 19.2896 33.9545 22.4925 33.0556C25.6953 32.1567 28.5164 30.2353 30.5259 27.5842C32.2201 25.349 33.259 22.6985 33.5433 19.9282C33.6312 19.0713 34.3213 18.3712 35.1827 18.3712Z" fill="white"/>
<path fill-rule="evenodd" clip-rule="evenodd" d="M39.4614 6.78148C40.633 5.60991 40.633 3.71041 39.4614 2.53884C38.2899 1.36726 36.3904 1.36726 35.2188 2.53884L20.2356 17.5221L13.0752 10.3618C11.9037 9.19018 10.0042 9.19018 8.8326 10.3618C7.66103 11.5333 7.66102 13.4328 8.8326 14.6044L18.1291 23.9009C19.3007 25.0725 21.2002 25.0725 22.3718 23.9009C22.4572 23.8154 22.5365 23.7261 22.6095 23.6334L39.4614 6.78148Z" fill="#B1D34B"/>
</svg>
