<svg width="311" height="248" viewBox="0 0 311 248" fill="none" xmlns="http://www.w3.org/2000/svg">
<g clip-path="url(#clip0_6625_77584)">
<path d="M150.17 92.73C149.525 92.73 148.907 92.986 148.452 93.4417C147.996 93.8974 147.74 94.5155 147.74 95.16C147.852 100.243 146.698 105.275 144.38 109.8C142.5 113.18 140.04 115.12 137.65 115.12H134.65C134.331 115.12 134.015 115.183 133.72 115.305C133.425 115.427 133.157 115.606 132.932 115.832C132.706 116.057 132.527 116.325 132.405 116.62C132.283 116.915 132.22 117.231 132.22 117.55V143.4H127.87C127.225 143.4 126.607 143.656 126.152 144.112C125.696 144.567 125.44 145.186 125.44 145.83C125.44 146.474 125.696 147.093 126.152 147.548C126.607 148.004 127.225 148.26 127.87 148.26H188.87C189.514 148.26 190.132 148.004 190.588 147.548C191.044 147.093 191.3 146.474 191.3 145.83C191.3 145.186 191.044 144.567 190.588 144.112C190.132 143.656 189.514 143.4 188.87 143.4H184.54V117.55C184.54 116.909 184.287 116.294 183.835 115.839C183.384 115.384 182.771 115.125 182.13 115.12H179.13C176.74 115.12 174.29 113.18 172.4 109.8C170.073 105.278 168.918 100.244 169.04 95.16C169.04 94.5155 168.784 93.8974 168.328 93.4417C167.872 92.986 167.254 92.73 166.61 92.73C165.965 92.73 165.347 92.986 164.892 93.4417C164.436 93.8974 164.18 94.5155 164.18 95.16C164.18 103.43 166.5 110.63 170.18 115.16H169.76C169.117 115.118 168.483 115.332 167.998 115.757C167.514 116.182 167.217 116.782 167.175 117.425C167.132 118.068 167.347 118.702 167.772 119.187C168.197 119.671 168.797 119.968 169.44 120.01H179.7V143.44H137.1V120H158.03C158.671 120.037 159.3 119.819 159.78 119.393C160.261 118.968 160.553 118.369 160.594 117.729C160.635 117.089 160.421 116.458 159.999 115.975C159.576 115.492 158.98 115.195 158.34 115.15C158.237 115.14 158.133 115.14 158.03 115.15H146.64C150.28 110.66 152.64 103.46 152.64 95.15C152.632 94.5064 152.37 93.8919 151.911 93.4405C151.452 92.9891 150.834 92.7373 150.19 92.74L150.17 92.73Z" fill="white"/>
<path d="M216.52 17.26H195.79C195.61 14.97 195.35 12.68 195.02 10.37C194.893 9.76457 194.54 9.23028 194.033 8.87604C193.526 8.5218 192.903 8.37427 192.291 8.46353C191.679 8.5528 191.124 8.87213 190.739 9.35644C190.354 9.84075 190.169 10.4536 190.22 11.07C194.61 41.53 184.83 65.43 175.12 76.64C169.78 82.8 163.84 86.19 158.41 86.19C152.98 86.19 147 82.8 141.69 76.64C132.21 65.64 122.69 42.64 126.32 13.15H157.51C157.829 13.15 158.145 13.0871 158.44 12.965C158.735 12.8429 159.003 12.6639 159.228 12.4383C159.454 12.2126 159.633 11.9447 159.755 11.6499C159.877 11.3551 159.94 11.0391 159.94 10.72C159.94 10.4009 159.877 10.0849 159.755 9.79008C159.633 9.49526 159.454 9.22738 159.228 9.00173C159.003 8.77609 158.735 8.59709 158.44 8.47497C158.145 8.35285 157.829 8.29 157.51 8.29H124.19C123.606 8.28903 123.042 8.49901 122.601 8.88123C122.16 9.26345 121.872 9.79218 121.79 10.37C121.35 13.37 121.05 16.37 120.86 19.42H100.29C99.6498 19.4173 99.0347 19.6684 98.5793 20.1182C98.1239 20.568 97.8652 21.1799 97.8599 21.82C97.7299 32.6 99.4399 42.07 102.93 50C105.604 56.1855 109.682 61.6634 114.84 66C119.916 70.3253 126.029 73.2577 132.58 74.51H132.91C133.252 74.5121 133.592 74.4476 133.91 74.32C135.16 76.2224 136.526 78.0458 138 79.78C144.3 87 151.54 91 158.41 91C165.28 91 172.51 87 178.79 79.77C180.802 77.4278 182.622 74.9263 184.23 72.29C190.792 71.044 196.916 68.1111 202 63.78C207.159 59.4447 211.237 53.9664 213.91 47.78C217.41 39.88 219.11 30.41 218.98 19.63C218.962 18.9916 218.694 18.3858 218.234 17.9427C217.774 17.4996 217.159 17.2545 216.52 17.26ZM117.75 62.09C108.01 53.87 102.96 41.16 102.75 24.28H120.75C120.577 33.2837 121.609 42.2702 123.82 51C125.422 57.2946 127.772 63.3745 130.82 69.11C126.021 67.7072 121.569 65.316 117.75 62.09ZM199.06 59.93C195.624 62.8207 191.685 65.0546 187.44 66.52C189.814 61.5419 191.696 56.3439 193.06 51C195.43 41.5721 196.44 31.8538 196.06 22.14H214.06C213.85 39 208.8 51.71 199.06 59.93Z" fill="white"/>
<path d="M133.86 19.43C133.542 19.4152 133.224 19.4633 132.925 19.5714C132.626 19.6796 132.351 19.8457 132.116 20.0603C131.881 20.2748 131.69 20.5336 131.556 20.8219C131.421 21.1101 131.344 21.4221 131.33 21.74C131.209 25.8308 131.34 29.9251 131.72 34C132.42 42.21 134.34 54.06 139.44 63.85C139.644 64.2446 139.952 64.5755 140.331 64.8066C140.71 65.0377 141.146 65.1599 141.59 65.16C141.981 65.1621 142.366 65.0658 142.71 64.88C143.274 64.5766 143.695 64.063 143.882 63.4507C144.07 62.8383 144.008 62.1769 143.71 61.61C138.98 52.53 137.19 41.35 136.52 33.61C136.182 29.7499 136.068 25.8733 136.18 22C136.215 21.3586 135.996 20.7292 135.568 20.2494C135.141 19.7697 134.541 19.4787 133.9 19.44L133.86 19.43Z" fill="white"/>
<path d="M151.58 35.64C151.574 36.052 151.726 36.4507 152.005 36.754C152.284 37.0572 152.669 37.2419 153.08 37.27C154.92 37.4 159.15 38.14 160.45 39.59C161.75 41.04 162.65 45.01 162.9 47.16C162.944 47.5551 163.133 47.9198 163.431 48.1838C163.728 48.4478 164.112 48.5925 164.51 48.59H164.56C164.967 48.5756 165.353 48.4096 165.644 48.1247C165.934 47.8397 166.108 47.4564 166.13 47.05C166.2 45.68 166.79 41.36 168.51 39.67C170.23 37.98 174.45 37.36 175.92 37.27C176.326 37.238 176.706 37.054 176.982 36.7546C177.259 36.4553 177.413 36.0626 177.413 35.655C177.413 35.2474 177.259 34.8547 176.982 34.5554C176.706 34.256 176.326 34.072 175.92 34.04C173.78 33.87 169.92 33.04 168.51 31.67C167.1 30.3 166.29 26.32 166.09 24.19C166.055 23.7894 165.871 23.4164 165.575 23.1444C165.279 22.8724 164.892 22.721 164.49 22.72C164.09 22.7203 163.704 22.8685 163.407 23.1362C163.11 23.4039 162.922 23.7722 162.88 24.17C162.72 25.68 161.97 29.97 160.42 31.72C159.12 33.19 155.23 33.92 153.09 34.04C152.681 34.0606 152.295 34.2386 152.014 34.5367C151.732 34.8348 151.577 35.2301 151.58 35.64ZM162.87 33.87C163.549 33.054 164.096 32.1361 164.49 31.15C164.889 32.1686 165.468 33.107 166.2 33.92C166.96 34.6573 167.852 35.2442 168.83 35.65C167.836 36.0497 166.934 36.6478 166.18 37.4078C165.425 38.1677 164.833 39.0736 164.44 40.07C164.053 39.1138 163.52 38.2232 162.86 37.43C162.131 36.6799 161.261 36.0817 160.3 35.67C161.268 35.2474 162.142 34.6354 162.87 33.87Z" fill="#A3D43A"/>
<path d="M165.86 12.34C167.71 12.47 170.72 13.11 171.62 14.11C172.52 15.11 173.33 18.37 173.53 20.11C173.574 20.5051 173.763 20.8698 174.061 21.1338C174.358 21.3978 174.742 21.5425 175.14 21.54H175.19C175.596 21.5234 175.981 21.3567 176.271 21.0722C176.561 20.7876 176.735 20.4056 176.76 20C176.81 18.92 177.27 15.53 178.59 14.23C179.91 12.93 182.78 12.47 184.39 12.38C184.796 12.348 185.176 12.164 185.452 11.8646C185.729 11.5653 185.883 11.1726 185.883 10.765C185.883 10.3574 185.729 9.96471 185.452 9.66537C185.176 9.36603 184.796 9.182 184.39 9.15C182.97 9.04 179.67 8.45 178.59 7.32C177.51 6.19 176.88 3.13 176.72 1.45C176.699 1.23681 176.635 1.02994 176.534 0.841358C176.432 0.65278 176.294 0.486244 176.128 0.351389C175.961 0.216535 175.77 0.11604 175.564 0.0557243C175.358 -0.00459188 175.143 -0.023532 174.93 3.36207e-07C174.564 0.0390601 174.223 0.202273 173.962 0.462462C173.702 0.722651 173.539 1.06412 173.5 1.43C173.32 3.09 172.65 6.17 171.58 7.37C170.51 8.57 167.67 9.04 165.86 9.14C165.43 9.14 165.018 9.31068 164.714 9.61449C164.411 9.9183 164.24 10.3303 164.24 10.76C164.24 11.1897 164.411 11.6017 164.714 11.9055C165.018 12.2093 165.43 12.38 165.86 12.38V12.34ZM174 9.48C174.431 8.97236 174.794 8.41101 175.08 7.81C175.378 8.44067 175.773 9.02097 176.25 9.53C176.73 10.0107 177.284 10.4124 177.89 10.72C177.3 11.0268 176.758 11.4176 176.28 11.88C175.779 12.3754 175.364 12.9497 175.05 13.58C174.766 13.0122 174.413 12.4816 174 12C173.545 11.4928 173.008 11.0667 172.41 10.74C173.009 10.4155 173.547 9.9891 174 9.48Z" fill="#A3D43A"/>
<path d="M203.23 153.26H113.58C112.935 153.26 112.317 153.516 111.862 153.972C111.406 154.427 111.15 155.046 111.15 155.69V245.34C111.15 245.659 111.213 245.975 111.335 246.27C111.457 246.565 111.636 246.833 111.862 247.058C112.087 247.284 112.355 247.463 112.65 247.585C112.945 247.707 113.261 247.77 113.58 247.77H203.23C203.549 247.77 203.865 247.707 204.16 247.585C204.455 247.463 204.723 247.284 204.948 247.058C205.174 246.833 205.353 246.565 205.475 246.27C205.597 245.975 205.66 245.659 205.66 245.34V155.69C205.66 155.371 205.597 155.055 205.475 154.76C205.353 154.465 205.174 154.197 204.948 153.972C204.723 153.746 204.455 153.567 204.16 153.445C203.865 153.323 203.549 153.26 203.23 153.26ZM200.8 242.91H116V158.12H200.8V242.91Z" fill="#A3D43A"/>
<path d="M40.6799 120.31C40.0355 120.31 39.4174 120.566 38.9617 121.022C38.5059 121.477 38.2499 122.096 38.2499 122.74C38.2499 131.43 34.4699 137.49 31.0699 137.49H28.7999C28.1555 137.49 27.5374 137.746 27.0817 138.202C26.6259 138.657 26.3699 139.276 26.3699 139.92V159.21H23.5999C23.2815 159.189 22.962 159.231 22.6597 159.333C22.3575 159.436 22.0784 159.597 21.8383 159.807C21.5983 160.017 21.402 160.273 21.2607 160.559C21.1195 160.845 21.0359 161.157 21.0149 161.475C20.9939 161.793 21.0358 162.113 21.1383 162.415C21.2407 162.717 21.4017 162.997 21.6121 163.237C21.8224 163.477 22.0779 163.673 22.3641 163.814C22.6503 163.955 22.9615 164.039 23.2799 164.06H70.4399C71.0562 164.02 71.6342 163.748 72.0566 163.297C72.479 162.847 72.7141 162.253 72.7141 161.635C72.7141 161.017 72.479 160.423 72.0566 159.973C71.6342 159.522 71.0562 159.25 70.4399 159.21H67.6699V139.92C67.6699 139.601 67.6071 139.285 67.485 138.99C67.3628 138.695 67.1838 138.427 66.9582 138.202C66.7326 137.976 66.4647 137.797 66.1699 137.675C65.875 137.553 65.559 137.49 65.2399 137.49H62.9999C59.5999 137.49 55.8199 131.43 55.8199 122.74C55.8199 122.096 55.5639 121.477 55.1082 121.022C54.6525 120.566 54.0344 120.31 53.3899 120.31C52.7455 120.31 52.1274 120.566 51.6717 121.022C51.2159 121.477 50.9599 122.096 50.9599 122.74C50.9599 128.74 52.5399 134.03 55.0699 137.6C54.5161 137.773 54.0423 138.137 53.7341 138.629C53.4259 139.12 53.3036 139.706 53.3894 140.279C53.4751 140.853 53.7632 141.377 54.2017 141.757C54.6401 142.137 55.1999 142.347 55.7799 142.35H62.8399V159.21H31.2299V142.35H46.7299C47.3744 142.35 47.9925 142.094 48.4482 141.638C48.9039 141.183 49.1599 140.564 49.1599 139.92C49.1599 139.276 48.9039 138.657 48.4482 138.202C47.9925 137.746 47.3744 137.49 46.7299 137.49H39.0799C41.5599 133.93 43.0799 128.68 43.0799 122.74C43.08 122.101 42.8281 121.487 42.3788 121.032C41.9296 120.577 41.3192 120.318 40.6799 120.31Z" fill="white"/>
<path d="M76.2099 62.39C76.0699 60.78 75.8899 59.18 75.6599 57.58C75.576 57.0031 75.2873 56.4755 74.8467 56.0937C74.4062 55.7118 73.843 55.5011 73.2599 55.5H20.7399C20.1552 55.4987 19.5896 55.7083 19.1469 56.0904C18.7042 56.4725 18.4142 57.0013 18.3299 57.58C18.0199 59.73 17.7999 61.89 17.6599 64.04H2.43993C2.12213 64.0374 1.80692 64.0974 1.5123 64.2165C1.21768 64.3357 0.949426 64.5118 0.722849 64.7346C0.496272 64.9575 0.315811 65.2228 0.191772 65.5154C0.0677332 65.808 0.0025447 66.1222 -7.09076e-05 66.44C-0.230071 85.53 7.06993 95.65 13.2399 100.78C17.2142 104.173 22.0056 106.468 27.1399 107.44C27.2497 107.45 27.3602 107.45 27.4699 107.44C27.6363 107.454 27.8036 107.454 27.9699 107.44C28.8807 108.813 29.8829 110.122 30.9699 111.36C35.8899 117.05 41.5999 120.18 47.0399 120.18C52.4799 120.18 58.1999 117 63.1199 111.31C64.628 109.557 65.9956 107.688 67.2099 105.72C72.2401 104.693 76.9308 102.416 80.8499 99.1C86.9999 94 94.3199 83.85 94.0799 64.77C94.0668 64.129 93.8009 63.5192 93.3401 63.0734C92.8793 62.6276 92.261 62.382 91.6199 62.39H76.2099ZM16.2999 97.05C8.99993 91 5.11993 81.49 4.82993 68.9H17.4399C17.3574 75.6774 18.1711 82.4359 19.8599 89C20.9778 93.4331 22.5738 97.7316 24.6199 101.82C21.588 100.731 18.7716 99.1163 16.2999 97.05ZM59.3999 108.15C55.3999 112.76 51.0099 115.29 46.9999 115.29C42.9899 115.29 38.5899 112.76 34.5999 108.15C27.4499 99.9 20.2499 82.55 22.8699 60.36H71.1299C73.7499 82.56 66.5499 99.9 59.4399 108.15H59.3999ZM77.8799 95.23C75.632 97.1304 73.0929 98.6566 70.3599 99.75C71.9229 96.2805 73.1875 92.6842 74.1399 89C75.9393 81.9029 76.7304 74.5877 76.4899 67.27H89.1699C88.8799 79.72 85.0899 89.13 77.8799 95.27V95.23Z" fill="white"/>
<path d="M30.7899 75.4C30.5184 72.4684 30.4215 69.5232 30.4999 66.58C30.5555 65.9397 30.3551 65.3034 29.9426 64.8105C29.5301 64.3176 28.9391 64.0081 28.299 63.9499C27.6589 63.8918 27.0218 64.0895 26.5272 64.5C26.0326 64.9104 25.7208 65.5001 25.6599 66.14C25.65 66.2163 25.65 66.2937 25.6599 66.37C25.5699 69.5232 25.6701 72.6789 25.9599 75.82C26.5099 82.18 27.9599 91.35 31.9599 98.95C32.2583 99.5215 32.7715 99.9511 33.3866 100.144C34.0017 100.337 34.6684 100.278 35.2399 99.98C35.8115 99.6816 36.2411 99.1684 36.4342 98.5533C36.6274 97.9382 36.5683 97.2715 36.2699 96.7C32.6599 89.82 31.2999 81.32 30.7899 75.4Z" fill="white"/>
<path d="M85.4399 166H8.57993C7.93545 166 7.31737 166.256 6.86166 166.712C6.40595 167.167 6.14993 167.786 6.14993 168.43V245.28C6.14993 245.924 6.40595 246.543 6.86166 246.998C7.31737 247.454 7.93545 247.71 8.57993 247.71H85.4399C85.759 247.71 86.075 247.647 86.3698 247.525C86.6647 247.403 86.9325 247.224 87.1582 246.998C87.3838 246.773 87.5628 246.505 87.685 246.21C87.8071 245.915 87.8699 245.599 87.8699 245.28V168.41C87.8621 167.77 87.6029 167.158 87.1483 166.708C86.6937 166.257 86.0802 166.003 85.4399 166ZM82.9999 242.84H10.9999V170.84H82.9999V242.84Z" fill="#A3D43A"/>
<path d="M260.08 134.12C259.761 134.12 259.445 134.183 259.15 134.305C258.855 134.427 258.587 134.606 258.362 134.832C258.136 135.057 257.957 135.325 257.835 135.62C257.713 135.915 257.65 136.231 257.65 136.55C257.65 144.69 254.15 150.36 251 150.36H248.86C248.542 150.357 248.226 150.418 247.932 150.538C247.637 150.658 247.369 150.835 247.143 151.059C246.917 151.283 246.738 151.549 246.615 151.843C246.493 152.137 246.43 152.452 246.43 152.77V170.86H244C243.355 170.86 242.737 171.116 242.282 171.572C241.826 172.027 241.57 172.646 241.57 173.29C241.57 173.934 241.826 174.553 242.282 175.008C242.737 175.464 243.355 175.72 244 175.72H288.22C288.864 175.72 289.482 175.464 289.938 175.008C290.394 174.553 290.65 173.934 290.65 173.29C290.65 172.646 290.394 172.027 289.938 171.572C289.482 171.116 288.864 170.86 288.22 170.86H285.73V152.78C285.73 152.138 285.475 151.523 285.021 151.069C284.567 150.615 283.952 150.36 283.31 150.36H281.16C278.01 150.36 274.51 144.69 274.51 136.55C274.51 135.906 274.254 135.287 273.798 134.832C273.342 134.376 272.724 134.12 272.08 134.12C271.435 134.12 270.817 134.376 270.362 134.832C269.906 135.287 269.65 135.906 269.65 136.55C269.65 142.17 271.11 147.13 273.46 150.55C272.936 150.757 272.5 151.14 272.227 151.633C271.954 152.126 271.861 152.699 271.963 153.253C272.066 153.808 272.358 154.309 272.79 154.671C273.222 155.034 273.766 155.235 274.33 155.24H280.88V170.9H251.29V155.21H265.8C266.12 155.233 266.44 155.192 266.744 155.09C267.048 154.988 267.329 154.826 267.57 154.616C267.811 154.405 268.008 154.148 268.15 153.861C268.292 153.573 268.375 153.261 268.396 152.941C268.416 152.621 268.373 152.301 268.269 151.997C268.165 151.694 268.002 151.415 267.79 151.175C267.577 150.935 267.32 150.74 267.031 150.6C266.743 150.46 266.43 150.378 266.11 150.36C266.007 150.35 265.903 150.35 265.8 150.36H258.8C261.339 146.21 262.62 141.413 262.49 136.55C262.49 135.909 262.237 135.294 261.785 134.839C261.334 134.384 260.721 134.125 260.08 134.12Z" fill="white"/>
<path d="M234 115.9C237.776 119.119 242.325 121.297 247.2 122.22C247.31 122.23 247.42 122.23 247.53 122.22C247.666 122.23 247.803 122.23 247.94 122.22C248.799 123.489 249.734 124.704 250.74 125.86C255.42 131.27 260.85 134.24 266.03 134.24C271.21 134.24 276.64 131.24 281.32 125.86C282.73 124.209 284.014 122.454 285.16 120.61C289.915 119.627 294.349 117.471 298.06 114.34C303.9 109.47 310.83 99.87 310.61 81.78C310.597 81.1433 310.335 80.5369 309.881 80.0904C309.427 79.6438 308.817 79.3925 308.18 79.39H293.79C293.66 77.91 293.49 76.39 293.28 74.96C293.194 74.3822 292.903 73.8545 292.461 73.4728C292.019 73.0911 291.454 72.8808 290.87 72.88H241.24C240.649 72.88 240.079 73.0953 239.635 73.4855C239.192 73.8757 238.905 74.4141 238.83 75C238.55 77 238.34 79 238.2 81H223.9C223.26 80.9973 222.645 81.2484 222.189 81.6982C221.734 82.148 221.475 82.7599 221.47 83.4C221.25 101.43 228.18 111 234 115.9ZM291.81 104.67C293.499 97.9934 294.25 91.1139 294.04 84.23H305.74C305.44 95.9 301.88 104.71 295.14 110.44C293.106 112.157 290.819 113.55 288.36 114.57C289.778 111.37 290.932 108.059 291.81 104.67ZM243.37 77.73H288.74C291.17 98.6 284.4 114.91 277.67 122.67C273.93 127 269.8 129.38 266.06 129.38C262.32 129.38 258.18 126.99 254.44 122.67C247.71 114.91 240.94 98.6 243.37 77.73ZM238 85.8C237.927 92.161 238.683 98.5044 240.25 104.67C241.287 108.759 242.752 112.728 244.62 116.51C241.885 115.503 239.344 114.032 237.11 112.16C230.24 106.45 226.62 97.59 226.32 85.8H238Z" fill="white"/>
<path d="M256 111.88C252.62 105.39 251.34 97.38 250.86 91.8C250.61 89.0342 250.52 86.2562 250.59 83.48C250.59 82.8546 250.349 82.2533 249.917 81.8013C249.485 81.3492 248.895 81.0811 248.27 81.0527C247.645 81.0244 247.034 81.238 246.562 81.6491C246.091 82.0602 245.797 82.6372 245.74 83.26C245.648 86.2629 245.742 89.2686 246.02 92.26C246.54 98.26 247.95 106.96 251.7 114.16C251.902 114.556 252.21 114.888 252.589 115.12C252.969 115.351 253.405 115.472 253.85 115.47C254.239 115.47 254.623 115.377 254.97 115.2C255.534 114.897 255.955 114.383 256.142 113.771C256.33 113.158 256.268 112.497 255.97 111.93L256 111.88Z" fill="white"/>
<path d="M303.33 177.71H228.78C228.135 177.71 227.517 177.966 227.062 178.422C226.606 178.877 226.35 179.496 226.35 180.14V245.26C226.35 245.904 226.606 246.523 227.062 246.978C227.517 247.434 228.135 247.69 228.78 247.69H303.33C303.974 247.69 304.592 247.434 305.048 246.978C305.504 246.523 305.76 245.904 305.76 245.26V180.14C305.76 179.496 305.504 178.877 305.048 178.422C304.592 177.966 303.974 177.71 303.33 177.71ZM300.9 242.83H231.21V182.57H300.9V242.83Z" fill="#A3D43A"/>
</g>
<defs>
<clipPath id="clip0_6625_77584">
<rect width="310.64" height="247.77" fill="white"/>
</clipPath>
</defs>
</svg>
