<svg width="463" height="1073" viewBox="0 0 463 1073" fill="none" xmlns="http://www.w3.org/2000/svg">
<path fill-rule="evenodd" clip-rule="evenodd" d="M463 0H0V1073H463V0ZM235.373 321C273.429 321.803 301.795 336.565 319.475 360.566C337.554 385.27 344.445 419.915 338.552 459.782C338.278 461.907 337.989 464.062 337.696 466.243C337.242 469.627 336.78 473.071 336.355 476.552C333.758 497.44 330.861 519.633 324.269 537.207C315.379 560.806 299.598 581.693 282.318 596.556C265.238 611.418 246.76 620.255 232.477 620.355H232.277H232.077C217.794 620.155 199.415 611.418 182.235 596.556C165.056 581.693 149.174 560.906 140.285 537.207C133.793 519.903 130.982 498.12 128.323 477.514L128.199 476.552C127.5 470.828 126.8 465.205 126.001 459.782C120.208 419.915 127.1 385.27 145.279 360.566C162.858 336.565 191.225 321.803 229.18 321H232.077H232.277H232.477H235.373Z" fill="#D9D9D9"/>
<path d="M319.475 360.566L321.896 358.794L321.89 358.787L319.475 360.566ZM235.373 321L235.436 318.001L235.405 318H235.373V321ZM229.18 321V318H229.148L229.117 318.001L229.18 321ZM145.279 360.566L147.695 362.344L147.699 362.339L145.279 360.566ZM126.001 459.782L123.032 460.213L123.033 460.219L126.001 459.782ZM128.199 476.552L125.221 476.916L125.223 476.936L128.199 476.552ZM232.077 620.355L232.035 623.355H232.077V620.355ZM232.477 620.355V623.355H232.498L232.477 620.355ZM282.318 596.556L280.362 594.282L280.355 594.287L280.349 594.293L282.318 596.556ZM324.269 537.207L327.076 538.265L327.078 538.261L324.269 537.207ZM336.355 476.552L339.332 476.922L339.333 476.916L336.355 476.552ZM338.552 459.782L335.584 459.343L335.58 459.371L335.577 459.398L338.552 459.782ZM321.89 358.787C303.585 333.937 274.292 318.821 235.436 318.001L235.31 323.999C272.566 324.785 300.005 339.193 317.06 362.345L321.89 358.787ZM235.373 318C235.371 318 235.369 318 235.367 318C235.365 318 235.363 318 235.361 318C235.359 318 235.357 318 235.355 318C235.355 318 235.352 318 235.35 318C235.348 318 235.346 318 235.344 318C235.342 318 235.34 318 235.338 318C235.336 318 235.334 318 235.332 318C235.33 318 235.328 318 235.326 318C235.324 318 235.322 318 235.32 318C235.318 318 235.317 318 235.315 318C235.313 318 235.311 318 235.309 318C235.307 318 235.305 318 235.303 318C235.301 318 235.299 318 235.297 318C235.295 318 235.293 318 235.291 318C235.289 318 235.287 318 235.285 318C235.285 318 235.282 318 235.28 318C235.278 318 235.276 318 235.274 318C235.272 318 235.27 318 235.268 318C235.266 318 235.264 318 235.262 318C235.26 318 235.258 318 235.256 318C235.254 318 235.253 318 235.251 318C235.249 318 235.247 318 235.245 318C235.243 318 235.241 318 235.239 318C235.237 318 235.235 318 235.233 318C235.231 318 235.229 318 235.227 318C235.225 318 235.222 318 235.222 318C235.22 318 235.218 318 235.216 318C235.214 318 235.212 318 235.21 318C235.208 318 235.206 318 235.204 318C235.202 318 235.2 318 235.198 318C235.196 318 235.195 318 235.193 318C235.191 318 235.189 318 235.187 318C235.185 318 235.183 318 235.181 318C235.179 318 235.177 318 235.175 318C235.173 318 235.171 318 235.169 318C235.169 318 235.166 318 235.164 318C235.162 318 235.16 318 235.158 318C235.156 318 235.154 318 235.152 318C235.15 318 235.148 318 235.146 318C235.144 318 235.143 318 235.141 318C235.139 318 235.137 318 235.135 318C235.133 318 235.131 318 235.129 318C235.127 318 235.125 318 235.123 318C235.121 318 235.118 318 235.118 318C235.116 318 235.114 318 235.112 318C235.11 318 235.108 318 235.106 318C235.104 318 235.102 318 235.1 318C235.098 318 235.095 318 235.095 318C235.093 318 235.091 318 235.089 318C235.087 318 235.085 318 235.083 318C235.081 318 235.079 318 235.077 318C235.075 318 235.072 318 235.072 318C235.07 318 235.068 318 235.066 318C235.064 318 235.062 318 235.06 318C235.058 318 235.056 318 235.054 318C235.052 318 235.049 318 235.049 318C235.047 318 235.045 318 235.043 318C235.041 318 235.039 318 235.037 318C235.035 318 235.033 318 235.031 318C235.029 318 235.028 318 235.026 318C235.024 318 235.022 318 235.02 318C235.018 318 235.016 318 235.014 318C235.012 318 235.01 318 235.008 318C235.006 318 235.005 318 235.003 318C235.001 318 234.999 318 234.997 318C234.995 318 234.993 318 234.991 318C234.989 318 234.986 318 234.986 318C234.984 318 234.982 318 234.98 318C234.978 318 234.976 318 234.974 318C234.972 318 234.97 318 234.968 318C234.966 318 234.965 318 234.963 318C234.961 318 234.959 318 234.957 318C234.955 318 234.953 318 234.951 318C234.949 318 234.946 318 234.946 318C234.944 318 234.942 318 234.94 318C234.938 318 234.936 318 234.934 318C234.932 318 234.93 318 234.928 318C234.926 318 234.925 318 234.923 318C234.921 318 234.919 318 234.917 318C234.915 318 234.913 318 234.911 318C234.909 318 234.906 318 234.906 318C234.904 318 234.902 318 234.9 318C234.898 318 234.896 318 234.894 318C234.892 318 234.889 318 234.889 318C234.887 318 234.885 318 234.883 318C234.881 318 234.879 318 234.877 318C234.875 318 234.873 318 234.871 318C234.871 318 234.868 318 234.866 318C234.864 318 234.862 318 234.86 318C234.858 318 234.856 318 234.854 318C234.852 318 234.851 318 234.849 318C234.847 318 234.845 318 234.843 318C234.841 318 234.839 318 234.837 318C234.835 318 234.834 318 234.832 318C234.83 318 234.828 318 234.826 318C234.824 318 234.822 318 234.82 318C234.818 318 234.817 318 234.815 318C234.813 318 234.811 318 234.809 318C234.807 318 234.805 318 234.803 318C234.801 318 234.8 318 234.798 318C234.796 318 234.794 318 234.792 318C234.79 318 234.788 318 234.786 318C234.784 318 234.781 318 234.781 318C234.779 318 234.777 318 234.775 318C234.773 318 234.771 318 234.769 318C234.767 318 234.766 318 234.764 318C234.762 318 234.76 318 234.758 318C234.756 318 234.754 318 234.752 318C234.75 318 234.749 318 234.747 318C234.745 318 234.743 318 234.741 318C234.739 318 234.737 318 234.735 318C234.733 318 234.732 318 234.73 318C234.728 318 234.726 318 234.724 318C234.722 318 234.72 318 234.718 318C234.716 318 234.715 318 234.713 318C234.711 318 234.709 318 234.707 318C234.705 318 234.703 318 234.701 318C234.701 318 234.698 318 234.696 318C234.694 318 234.692 318 234.69 318C234.688 318 234.686 318 234.684 318C234.684 318 234.681 318 234.679 318C234.677 318 234.675 318 234.673 318C234.671 318 234.668 318 234.668 318C234.666 318 234.664 318 234.662 318C234.66 318 234.658 318 234.656 318C234.654 318 234.653 318 234.651 318C234.649 318 234.647 318 234.645 318C234.643 318 234.641 318 234.639 318C234.639 318 234.636 318 234.634 318C234.632 318 234.63 318 234.628 318C234.626 318 234.624 318 234.622 318C234.622 318 234.619 318 234.617 318C234.615 318 234.613 318 234.611 318C234.609 318 234.606 318 234.606 318C234.604 318 234.602 318 234.6 318C234.598 318 234.596 318 234.594 318C234.592 318 234.591 318 234.589 318C234.587 318 234.585 318 234.583 318C234.581 318 234.579 318 234.577 318C234.577 318 234.574 318 234.572 318C234.57 318 234.568 318 234.566 318C234.564 318 234.563 318 234.561 318C234.559 318 234.557 318 234.555 318C234.553 318 234.551 318 234.549 318C234.549 318 234.546 318 234.544 318C234.542 318 234.54 318 234.538 318C234.536 318 234.533 318 234.533 318C234.531 318 234.529 318 234.527 318C234.525 318 234.523 318 234.521 318C234.519 318 234.518 318 234.516 318C234.514 318 234.512 318 234.51 318C234.508 318 234.505 318 234.505 318C234.503 318 234.501 318 234.499 318C234.497 318 234.495 318 234.493 318C234.491 318 234.49 318 234.488 318C234.486 318 234.484 318 234.482 318C234.48 318 234.478 318 234.476 318C234.476 318 234.473 318 234.471 318C234.469 318 234.467 318 234.465 318C234.463 318 234.462 318 234.46 318C234.458 318 234.456 318 234.454 318C234.452 318 234.45 318 234.448 318C234.448 318 234.445 318 234.443 318C234.441 318 234.439 318 234.437 318C234.435 318 234.434 318 234.432 318C234.43 318 234.428 318 234.426 318C234.424 318 234.422 318 234.42 318C234.42 318 234.417 318 234.415 318C234.413 318 234.411 318 234.409 318C234.407 318 234.406 318 234.404 318C234.402 318 234.4 318 234.398 318C234.396 318 234.393 318 234.393 318C234.391 318 234.389 318 234.387 318C234.385 318 234.383 318 234.381 318C234.379 318 234.378 318 234.376 318C234.374 318 234.372 318 234.37 318C234.368 318 234.365 318 234.365 318C234.363 318 234.361 318 234.359 318C234.357 318 234.355 318 234.353 318C234.353 318 234.35 318 234.348 318C234.346 318 234.344 318 234.342 318C234.34 318 234.337 318 234.337 318C234.335 318 234.333 318 234.331 318C234.329 318 234.327 318 234.325 318C234.325 318 234.322 318 234.32 318C234.318 318 234.316 318 234.314 318C234.312 318 234.311 318 234.309 318C234.307 318 234.305 318 234.303 318C234.301 318 234.298 318 234.298 318C234.296 318 234.294 318 234.292 318C234.29 318 234.288 318 234.286 318C234.286 318 234.283 318 234.281 318C234.279 318 234.277 318 234.275 318C234.273 318 234.272 318 234.27 318C234.268 318 234.266 318 234.264 318C234.262 318 234.259 318 234.259 318C234.257 318 234.255 318 234.253 318C234.251 318 234.249 318 234.247 318C234.247 318 234.244 318 234.242 318C234.24 318 234.238 318 234.236 318C234.234 318 234.231 318 234.231 318C234.229 318 234.227 318 234.225 318C234.223 318 234.221 318 234.219 318C234.219 318 234.216 318 234.214 318C234.212 318 234.21 318 234.208 318C234.206 318 234.205 318 234.203 318C234.201 318 234.199 318 234.197 318C234.195 318 234.192 318 234.192 318C234.19 318 234.188 318 234.186 318C234.184 318 234.181 318 234.181 318C234.179 318 234.177 318 234.175 318C234.173 318 234.171 318 234.169 318C234.169 318 234.166 318 234.164 318C234.162 318 234.16 318 234.158 318C234.156 318 234.155 318 234.153 318C234.151 318 234.149 318 234.147 318C234.145 318 234.142 318 234.142 318C234.14 318 234.138 318 234.136 318C234.134 318 234.132 318 234.13 318C234.13 318 234.127 318 234.125 318C234.123 318 234.121 318 234.119 318C234.117 318 234.116 318 234.114 318C234.112 318 234.11 318 234.108 318C234.106 318 234.103 318 234.103 318C234.101 318 234.099 318 234.097 318C234.095 318 234.093 318 234.091 318C234.091 318 234.088 318 234.086 318C234.084 318 234.082 318 234.08 318C234.078 318 234.077 318 234.075 318C234.073 318 234.071 318 234.069 318C234.067 318 234.064 318 234.064 318C234.062 318 234.06 318 234.058 318C234.056 318 234.053 318 234.053 318C234.051 318 234.049 318 234.047 318C234.045 318 234.043 318 234.041 318C234.041 318 234.038 318 234.036 318C234.034 318 234.032 318 234.03 318C234.028 318 234.027 318 234.025 318C234.023 318 234.021 318 234.019 318C234.017 318 234.014 318 234.014 318C234.012 318 234.01 318 234.008 318C234.006 318 234.004 318 234.002 318C234.002 318 233.999 318 233.997 318C233.995 318 233.993 318 233.991 318C233.989 318 233.988 318 233.986 318C233.984 318 233.982 318 233.98 318C233.978 318 233.977 318 233.975 318C233.973 318 233.971 318 233.969 318C233.967 318 233.964 318 233.964 318C233.962 318 233.96 318 233.958 318C233.956 318 233.954 318 233.952 318C233.952 318 233.949 318 233.947 318C233.945 318 233.943 318 233.941 318C233.939 318 233.938 318 233.936 318C233.934 318 233.932 318 233.93 318C233.928 318 233.925 318 233.925 318C233.923 318 233.921 318 233.919 318C233.917 318 233.914 318 233.914 318C233.912 318 233.91 318 233.908 318C233.906 318 233.904 318 233.902 318C233.902 318 233.899 318 233.897 318C233.895 318 233.893 318 233.891 318C233.889 318 233.888 318 233.886 318C233.884 318 233.882 318 233.88 318C233.878 318 233.875 318 233.875 318C233.873 318 233.871 318 233.869 318C233.867 318 233.865 318 233.863 318C233.863 318 233.86 318 233.858 318C233.856 318 233.854 318 233.852 318C233.852 318 233.849 318 233.847 318C233.845 318 233.843 318 233.841 318C233.839 318 233.838 318 233.836 318C233.834 318 233.832 318 233.83 318C233.828 318 233.825 318 233.825 318C233.823 318 233.821 318 233.819 318C233.817 318 233.815 318 233.813 318C233.813 318 233.81 318 233.808 318C233.806 318 233.804 318 233.802 318C233.8 318 233.799 318 233.797 318C233.795 318 233.793 318 233.791 318C233.789 318 233.786 318 233.786 318C233.784 318 233.782 318 233.78 318C233.778 318 233.775 318 233.775 318C233.773 318 233.771 318 233.769 318C233.767 318 233.765 318 233.763 318C233.763 318 233.76 318 233.758 318C233.756 318 233.754 318 233.752 318C233.75 318 233.749 318 233.747 318C233.745 318 233.743 318 233.741 318C233.739 318 233.736 318 233.736 318C233.734 318 233.732 318 233.73 318C233.728 318 233.726 318 233.724 318C233.724 318 233.721 318 233.719 318C233.717 318 233.715 318 233.713 318C233.711 318 233.71 318 233.708 318C233.706 318 233.704 318 233.702 318C233.7 318 233.697 318 233.697 318C233.695 318 233.693 318 233.691 318C233.689 318 233.687 318 233.685 318C233.685 318 233.682 318 233.68 318C233.678 318 233.676 318 233.674 318C233.672 318 233.671 318 233.669 318C233.667 318 233.665 318 233.663 318C233.661 318 233.658 318 233.658 318C233.656 318 233.654 318 233.652 318C233.65 318 233.647 318 233.647 318C233.645 318 233.643 318 233.641 318C233.639 318 233.637 318 233.635 318C233.635 318 233.632 318 233.63 318C233.628 318 233.626 318 233.624 318C233.622 318 233.621 318 233.619 318C233.617 318 233.615 318 233.613 318C233.611 318 233.608 318 233.608 318C233.606 318 233.604 318 233.602 318C233.6 318 233.598 318 233.596 318C233.596 318 233.593 318 233.591 318C233.589 318 233.587 318 233.585 318C233.583 318 233.58 318 233.58 318C233.578 318 233.576 318 233.574 318C233.572 318 233.57 318 233.568 318C233.568 318 233.565 318 233.563 318C233.561 318 233.559 318 233.557 318C233.555 318 233.554 318 233.552 318C233.55 318 233.548 318 233.546 318C233.544 318 233.541 318 233.541 318C233.539 318 233.537 318 233.535 318C233.533 318 233.531 318 233.529 318C233.529 318 233.526 318 233.524 318C233.522 318 233.52 318 233.518 318C233.516 318 233.515 318 233.513 318C233.511 318 233.509 318 233.507 318C233.505 318 233.502 318 233.502 318C233.5 318 233.498 318 233.496 318C233.494 318 233.492 318 233.49 318C233.488 318 233.487 318 233.485 318C233.483 318 233.481 318 233.479 318C233.477 318 233.474 318 233.474 318C233.472 318 233.47 318 233.468 318C233.466 318 233.464 318 233.462 318C233.462 318 233.459 318 233.457 318C233.455 318 233.453 318 233.451 318C233.449 318 233.448 318 233.446 318C233.444 318 233.442 318 233.44 318C233.438 318 233.436 318 233.434 318C233.434 318 233.431 318 233.429 318C233.427 318 233.425 318 233.423 318C233.421 318 233.42 318 233.418 318C233.416 318 233.414 318 233.412 318C233.41 318 233.408 318 233.406 318C233.406 318 233.403 318 233.401 318C233.399 318 233.397 318 233.395 318C233.393 318 233.392 318 233.39 318C233.388 318 233.386 318 233.384 318C233.382 318 233.38 318 233.378 318C233.378 318 233.375 318 233.373 318C233.371 318 233.369 318 233.367 318C233.365 318 233.364 318 233.362 318C233.36 318 233.358 318 233.356 318C233.354 318 233.352 318 233.35 318C233.35 318 233.347 318 233.345 318C233.343 318 233.341 318 233.339 318C233.337 318 233.336 318 233.334 318C233.332 318 233.33 318 233.328 318C233.326 318 233.324 318 233.322 318C233.322 318 233.319 318 233.317 318C233.315 318 233.313 318 233.311 318C233.309 318 233.306 318 233.306 318C233.304 318 233.302 318 233.3 318C233.298 318 233.296 318 233.294 318C233.294 318 233.291 318 233.289 318C233.287 318 233.285 318 233.283 318C233.281 318 233.278 318 233.278 318C233.276 318 233.274 318 233.272 318C233.27 318 233.268 318 233.266 318C233.264 318 233.263 318 233.261 318C233.259 318 233.257 318 233.255 318C233.253 318 233.251 318 233.249 318C233.249 318 233.246 318 233.244 318C233.242 318 233.24 318 233.238 318C233.236 318 233.233 318 233.233 318C233.231 318 233.229 318 233.227 318C233.225 318 233.223 318 233.221 318C233.219 318 233.218 318 233.216 318C233.214 318 233.212 318 233.21 318C233.208 318 233.206 318 233.204 318C233.204 318 233.201 318 233.199 318C233.197 318 233.195 318 233.193 318C233.191 318 233.188 318 233.188 318C233.186 318 233.184 318 233.182 318C233.18 318 233.178 318 233.176 318C233.174 318 233.171 318 233.171 318C233.169 318 233.167 318 233.165 318C233.163 318 233.161 318 233.159 318C233.157 318 233.156 318 233.154 318C233.152 318 233.15 318 233.148 318C233.146 318 233.144 318 233.142 318C233.142 318 233.139 318 233.137 318C233.135 318 233.133 318 233.131 318C233.129 318 233.127 318 233.125 318C233.125 318 233.122 318 233.12 318C233.118 318 233.116 318 233.114 318C233.112 318 233.109 318 233.109 318C233.107 318 233.105 318 233.103 318C233.101 318 233.099 318 233.097 318C233.095 318 233.092 318 233.092 318C233.09 318 233.088 318 233.086 318C233.084 318 233.082 318 233.08 318C233.078 318 233.075 318 233.075 318C233.073 318 233.071 318 233.069 318C233.067 318 233.065 318 233.063 318C233.061 318 233.058 318 233.058 318C233.056 318 233.054 318 233.052 318C233.05 318 233.048 318 233.046 318C233.044 318 233.041 318 233.041 318C233.039 318 233.037 318 233.035 318C233.033 318 233.031 318 233.029 318C233.027 318 233.024 318 233.024 318C233.022 318 233.02 318 233.018 318C233.016 318 233.014 318 233.012 318C233.01 318 233.007 318 233.007 318C233.005 318 233.003 318 233.001 318C232.999 318 232.997 318 232.995 318C232.993 318 232.99 318 232.99 318C232.988 318 232.986 318 232.984 318C232.982 318 232.98 318 232.978 318C232.976 318 232.974 318 232.972 318C232.972 318 232.969 318 232.967 318C232.965 318 232.963 318 232.961 318C232.959 318 232.957 318 232.955 318C232.955 318 232.952 318 232.95 318C232.948 318 232.946 318 232.944 318C232.942 318 232.94 318 232.938 318C232.936 318 232.935 318 232.933 318C232.931 318 232.929 318 232.927 318C232.925 318 232.923 318 232.921 318C232.919 318 232.916 318 232.916 318C232.914 318 232.912 318 232.91 318C232.908 318 232.906 318 232.904 318C232.902 318 232.9 318 232.898 318C232.898 318 232.895 318 232.893 318C232.891 318 232.889 318 232.887 318C232.885 318 232.883 318 232.881 318C232.879 318 232.876 318 232.876 318C232.874 318 232.872 318 232.87 318C232.868 318 232.866 318 232.864 318C232.862 318 232.86 318 232.858 318C232.858 318 232.855 318 232.853 318C232.851 318 232.849 318 232.847 318C232.845 318 232.843 318 232.841 318C232.839 318 232.836 318 232.836 318C232.834 318 232.832 318 232.83 318C232.828 318 232.826 318 232.824 318C232.822 318 232.82 318 232.818 318C232.816 318 232.815 318 232.813 318C232.811 318 232.809 318 232.807 318C232.805 318 232.803 318 232.801 318C232.799 318 232.797 318 232.795 318C232.795 318 232.792 318 232.79 318C232.788 318 232.786 318 232.784 318C232.782 318 232.78 318 232.778 318C232.776 318 232.774 318 232.772 318C232.772 318 232.769 318 232.767 318C232.765 318 232.763 318 232.761 318C232.759 318 232.757 318 232.755 318C232.753 318 232.751 318 232.749 318C232.749 318 232.746 318 232.744 318C232.742 318 232.74 318 232.738 318C232.736 318 232.734 318 232.732 318C232.73 318 232.728 318 232.726 318C232.726 318 232.723 318 232.721 318C232.719 318 232.717 318 232.715 318C232.713 318 232.711 318 232.709 318C232.707 318 232.705 318 232.703 318C232.703 318 232.7 318 232.698 318C232.696 318 232.694 318 232.692 318C232.69 318 232.688 318 232.686 318C232.684 318 232.682 318 232.68 318C232.678 318 232.675 318 232.675 318C232.673 318 232.671 318 232.669 318C232.667 318 232.665 318 232.663 318C232.661 318 232.659 318 232.657 318C232.655 318 232.653 318 232.651 318C232.651 318 232.648 318 232.646 318C232.644 318 232.642 318 232.64 318C232.638 318 232.636 318 232.634 318C232.632 318 232.63 318 232.628 318C232.626 318 232.623 318 232.623 318C232.621 318 232.619 318 232.617 318C232.615 318 232.613 318 232.611 318C232.609 318 232.607 318 232.605 318C232.603 318 232.601 318 232.599 318C232.597 318 232.594 318 232.594 318C232.592 318 232.59 318 232.588 318C232.586 318 232.584 318 232.582 318C232.58 318 232.578 318 232.576 318C232.574 318 232.572 318 232.57 318C232.568 318 232.566 318 232.564 318C232.564 318 232.561 318 232.559 318C232.557 318 232.555 318 232.553 318C232.551 318 232.549 318 232.547 318C232.545 318 232.543 318 232.541 318C232.539 318 232.537 318 232.535 318C232.533 318 232.53 318 232.53 318C232.528 318 232.526 318 232.524 318C232.522 318 232.52 318 232.518 318C232.516 318 232.514 318 232.512 318C232.51 318 232.508 318 232.506 318C232.504 318 232.502 318 232.5 318C232.498 318 232.495 318 232.495 318C232.493 318 232.491 318 232.489 318C232.487 318 232.485 318 232.483 318C232.481 318 232.479 318 232.477 318V324C232.479 324 232.481 324 232.483 324C232.485 324 232.487 324 232.489 324C232.491 324 232.493 324 232.495 324C232.495 324 232.498 324 232.5 324C232.502 324 232.504 324 232.506 324C232.508 324 232.51 324 232.512 324C232.514 324 232.516 324 232.518 324C232.52 324 232.522 324 232.524 324C232.526 324 232.528 324 232.53 324C232.53 324 232.533 324 232.535 324C232.537 324 232.539 324 232.541 324C232.543 324 232.545 324 232.547 324C232.549 324 232.551 324 232.553 324C232.555 324 232.557 324 232.559 324C232.561 324 232.564 324 232.564 324C232.566 324 232.568 324 232.57 324C232.572 324 232.574 324 232.576 324C232.578 324 232.58 324 232.582 324C232.584 324 232.586 324 232.588 324C232.59 324 232.592 324 232.594 324C232.594 324 232.597 324 232.599 324C232.601 324 232.603 324 232.605 324C232.607 324 232.609 324 232.611 324C232.613 324 232.615 324 232.617 324C232.619 324 232.621 324 232.623 324C232.623 324 232.626 324 232.628 324C232.63 324 232.632 324 232.634 324C232.636 324 232.638 324 232.64 324C232.642 324 232.644 324 232.646 324C232.648 324 232.651 324 232.651 324C232.653 324 232.655 324 232.657 324C232.659 324 232.661 324 232.663 324C232.665 324 232.667 324 232.669 324C232.671 324 232.673 324 232.675 324C232.675 324 232.678 324 232.68 324C232.682 324 232.684 324 232.686 324C232.688 324 232.69 324 232.692 324C232.694 324 232.696 324 232.698 324C232.7 324 232.703 324 232.703 324C232.705 324 232.707 324 232.709 324C232.711 324 232.713 324 232.715 324C232.717 324 232.719 324 232.721 324C232.723 324 232.726 324 232.726 324C232.728 324 232.73 324 232.732 324C232.734 324 232.736 324 232.738 324C232.74 324 232.742 324 232.744 324C232.746 324 232.749 324 232.749 324C232.751 324 232.753 324 232.755 324C232.757 324 232.759 324 232.761 324C232.763 324 232.765 324 232.767 324C232.769 324 232.772 324 232.772 324C232.774 324 232.776 324 232.778 324C232.78 324 232.782 324 232.784 324C232.786 324 232.788 324 232.79 324C232.792 324 232.795 324 232.795 324C232.797 324 232.799 324 232.801 324C232.803 324 232.805 324 232.807 324C232.809 324 232.811 324 232.813 324C232.815 324 232.816 324 232.818 324C232.82 324 232.822 324 232.824 324C232.826 324 232.828 324 232.83 324C232.832 324 232.834 324 232.836 324C232.836 324 232.839 324 232.841 324C232.843 324 232.845 324 232.847 324C232.849 324 232.851 324 232.853 324C232.855 324 232.858 324 232.858 324C232.86 324 232.862 324 232.864 324C232.866 324 232.868 324 232.87 324C232.872 324 232.874 324 232.876 324C232.876 324 232.879 324 232.881 324C232.883 324 232.885 324 232.887 324C232.889 324 232.891 324 232.893 324C232.895 324 232.898 324 232.898 324C232.9 324 232.902 324 232.904 324C232.906 324 232.908 324 232.91 324C232.912 324 232.914 324 232.916 324C232.916 324 232.919 324 232.921 324C232.923 324 232.925 324 232.927 324C232.929 324 232.931 324 232.933 324C232.935 324 232.936 324 232.938 324C232.94 324 232.942 324 232.944 324C232.946 324 232.948 324 232.95 324C232.952 324 232.955 324 232.955 324C232.957 324 232.959 324 232.961 324C232.963 324 232.965 324 232.967 324C232.969 324 232.972 324 232.972 324C232.974 324 232.976 324 232.978 324C232.98 324 232.982 324 232.984 324C232.986 324 232.988 324 232.99 324C232.99 324 232.993 324 232.995 324C232.997 324 232.999 324 233.001 324C233.003 324 233.005 324 233.007 324C233.007 324 233.01 324 233.012 324C233.014 324 233.016 324 233.018 324C233.02 324 233.022 324 233.024 324C233.024 324 233.027 324 233.029 324C233.031 324 233.033 324 233.035 324C233.037 324 233.039 324 233.041 324C233.041 324 233.044 324 233.046 324C233.048 324 233.05 324 233.052 324C233.054 324 233.056 324 233.058 324C233.058 324 233.061 324 233.063 324C233.065 324 233.067 324 233.069 324C233.071 324 233.073 324 233.075 324C233.075 324 233.078 324 233.08 324C233.082 324 233.084 324 233.086 324C233.088 324 233.09 324 233.092 324C233.092 324 233.095 324 233.097 324C233.099 324 233.101 324 233.103 324C233.105 324 233.107 324 233.109 324C233.109 324 233.112 324 233.114 324C233.116 324 233.118 324 233.12 324C233.122 324 233.125 324 233.125 324C233.127 324 233.129 324 233.131 324C233.133 324 233.135 324 233.137 324C233.139 324 233.142 324 233.142 324C233.144 324 233.146 324 233.148 324C233.15 324 233.152 324 233.154 324C233.156 324 233.157 324 233.159 324C233.161 324 233.163 324 233.165 324C233.167 324 233.169 324 233.171 324C233.171 324 233.174 324 233.176 324C233.178 324 233.18 324 233.182 324C233.184 324 233.186 324 233.188 324C233.188 324 233.191 324 233.193 324C233.195 324 233.197 324 233.199 324C233.201 324 233.204 324 233.204 324C233.206 324 233.208 324 233.21 324C233.212 324 233.214 324 233.216 324C233.218 324 233.219 324 233.221 324C233.223 324 233.225 324 233.227 324C233.229 324 233.231 324 233.233 324C233.233 324 233.236 324 233.238 324C233.24 324 233.242 324 233.244 324C233.246 324 233.249 324 233.249 324C233.251 324 233.253 324 233.255 324C233.257 324 233.259 324 233.261 324C233.263 324 233.264 324 233.266 324C233.268 324 233.27 324 233.272 324C233.274 324 233.276 324 233.278 324C233.278 324 233.281 324 233.283 324C233.285 324 233.287 324 233.289 324C233.291 324 233.294 324 233.294 324C233.296 324 233.298 324 233.3 324C233.302 324 233.304 324 233.306 324C233.306 324 233.309 324 233.311 324C233.313 324 233.315 324 233.317 324C233.319 324 233.322 324 233.322 324C233.324 324 233.326 324 233.328 324C233.33 324 233.332 324 233.334 324C233.336 324 233.337 324 233.339 324C233.341 324 233.343 324 233.345 324C233.347 324 233.35 324 233.35 324C233.352 324 233.354 324 233.356 324C233.358 324 233.36 324 233.362 324C233.364 324 233.365 324 233.367 324C233.369 324 233.371 324 233.373 324C233.375 324 233.378 324 233.378 324C233.38 324 233.382 324 233.384 324C233.386 324 233.388 324 233.39 324C233.392 324 233.393 324 233.395 324C233.397 324 233.399 324 233.401 324C233.403 324 233.406 324 233.406 324C233.408 324 233.41 324 233.412 324C233.414 324 233.416 324 233.418 324C233.42 324 233.421 324 233.423 324C233.425 324 233.427 324 233.429 324C233.431 324 233.434 324 233.434 324C233.436 324 233.438 324 233.44 324C233.442 324 233.444 324 233.446 324C233.448 324 233.449 324 233.451 324C233.453 324 233.455 324 233.457 324C233.459 324 233.462 324 233.462 324C233.464 324 233.466 324 233.468 324C233.47 324 233.472 324 233.474 324C233.474 324 233.477 324 233.479 324C233.481 324 233.483 324 233.485 324C233.487 324 233.488 324 233.49 324C233.492 324 233.494 324 233.496 324C233.498 324 233.5 324 233.502 324C233.502 324 233.505 324 233.507 324C233.509 324 233.511 324 233.513 324C233.515 324 233.516 324 233.518 324C233.52 324 233.522 324 233.524 324C233.526 324 233.529 324 233.529 324C233.531 324 233.533 324 233.535 324C233.537 324 233.539 324 233.541 324C233.541 324 233.544 324 233.546 324C233.548 324 233.55 324 233.552 324C233.554 324 233.555 324 233.557 324C233.559 324 233.561 324 233.563 324C233.565 324 233.568 324 233.568 324C233.57 324 233.572 324 233.574 324C233.576 324 233.578 324 233.58 324C233.58 324 233.583 324 233.585 324C233.587 324 233.589 324 233.591 324C233.593 324 233.596 324 233.596 324C233.598 324 233.6 324 233.602 324C233.604 324 233.606 324 233.608 324C233.608 324 233.611 324 233.613 324C233.615 324 233.617 324 233.619 324C233.621 324 233.622 324 233.624 324C233.626 324 233.628 324 233.63 324C233.632 324 233.635 324 233.635 324C233.637 324 233.639 324 233.641 324C233.643 324 233.645 324 233.647 324C233.647 324 233.65 324 233.652 324C233.654 324 233.656 324 233.658 324C233.658 324 233.661 324 233.663 324C233.665 324 233.667 324 233.669 324C233.671 324 233.672 324 233.674 324C233.676 324 233.678 324 233.68 324C233.682 324 233.685 324 233.685 324C233.687 324 233.689 324 233.691 324C233.693 324 233.695 324 233.697 324C233.697 324 233.7 324 233.702 324C233.704 324 233.706 324 233.708 324C233.71 324 233.711 324 233.713 324C233.715 324 233.717 324 233.719 324C233.721 324 233.724 324 233.724 324C233.726 324 233.728 324 233.73 324C233.732 324 233.734 324 233.736 324C233.736 324 233.739 324 233.741 324C233.743 324 233.745 324 233.747 324C233.749 324 233.75 324 233.752 324C233.754 324 233.756 324 233.758 324C233.76 324 233.763 324 233.763 324C233.765 324 233.767 324 233.769 324C233.771 324 233.773 324 233.775 324C233.775 324 233.778 324 233.78 324C233.782 324 233.784 324 233.786 324C233.786 324 233.789 324 233.791 324C233.793 324 233.795 324 233.797 324C233.799 324 233.8 324 233.802 324C233.804 324 233.806 324 233.808 324C233.81 324 233.813 324 233.813 324C233.815 324 233.817 324 233.819 324C233.821 324 233.823 324 233.825 324C233.825 324 233.828 324 233.83 324C233.832 324 233.834 324 233.836 324C233.838 324 233.839 324 233.841 324C233.843 324 233.845 324 233.847 324C233.849 324 233.852 324 233.852 324C233.854 324 233.856 324 233.858 324C233.86 324 233.863 324 233.863 324C233.865 324 233.867 324 233.869 324C233.871 324 233.873 324 233.875 324C233.875 324 233.878 324 233.88 324C233.882 324 233.884 324 233.886 324C233.888 324 233.889 324 233.891 324C233.893 324 233.895 324 233.897 324C233.899 324 233.902 324 233.902 324C233.904 324 233.906 324 233.908 324C233.91 324 233.912 324 233.914 324C233.914 324 233.917 324 233.919 324C233.921 324 233.923 324 233.925 324C233.925 324 233.928 324 233.93 324C233.932 324 233.934 324 233.936 324C233.938 324 233.939 324 233.941 324C233.943 324 233.945 324 233.947 324C233.949 324 233.952 324 233.952 324C233.954 324 233.956 324 233.958 324C233.96 324 233.962 324 233.964 324C233.964 324 233.967 324 233.969 324C233.971 324 233.973 324 233.975 324C233.977 324 233.978 324 233.98 324C233.982 324 233.984 324 233.986 324C233.988 324 233.989 324 233.991 324C233.993 324 233.995 324 233.997 324C233.999 324 234.002 324 234.002 324C234.004 324 234.006 324 234.008 324C234.01 324 234.012 324 234.014 324C234.014 324 234.017 324 234.019 324C234.021 324 234.023 324 234.025 324C234.027 324 234.028 324 234.03 324C234.032 324 234.034 324 234.036 324C234.038 324 234.041 324 234.041 324C234.043 324 234.045 324 234.047 324C234.049 324 234.051 324 234.053 324C234.053 324 234.056 324 234.058 324C234.06 324 234.062 324 234.064 324C234.064 324 234.067 324 234.069 324C234.071 324 234.073 324 234.075 324C234.077 324 234.078 324 234.08 324C234.082 324 234.084 324 234.086 324C234.088 324 234.091 324 234.091 324C234.093 324 234.095 324 234.097 324C234.099 324 234.101 324 234.103 324C234.103 324 234.106 324 234.108 324C234.11 324 234.112 324 234.114 324C234.116 324 234.117 324 234.119 324C234.121 324 234.123 324 234.125 324C234.127 324 234.13 324 234.13 324C234.132 324 234.134 324 234.136 324C234.138 324 234.14 324 234.142 324C234.142 324 234.145 324 234.147 324C234.149 324 234.151 324 234.153 324C234.155 324 234.156 324 234.158 324C234.16 324 234.162 324 234.164 324C234.166 324 234.169 324 234.169 324C234.171 324 234.173 324 234.175 324C234.177 324 234.179 324 234.181 324C234.181 324 234.184 324 234.186 324C234.188 324 234.19 324 234.192 324C234.192 324 234.195 324 234.197 324C234.199 324 234.201 324 234.203 324C234.205 324 234.206 324 234.208 324C234.21 324 234.212 324 234.214 324C234.216 324 234.219 324 234.219 324C234.221 324 234.223 324 234.225 324C234.227 324 234.229 324 234.231 324C234.231 324 234.234 324 234.236 324C234.238 324 234.24 324 234.242 324C234.244 324 234.247 324 234.247 324C234.249 324 234.251 324 234.253 324C234.255 324 234.257 324 234.259 324C234.259 324 234.262 324 234.264 324C234.266 324 234.268 324 234.27 324C234.272 324 234.273 324 234.275 324C234.277 324 234.279 324 234.281 324C234.283 324 234.286 324 234.286 324C234.288 324 234.29 324 234.292 324C234.294 324 234.296 324 234.298 324C234.298 324 234.301 324 234.303 324C234.305 324 234.307 324 234.309 324C234.311 324 234.312 324 234.314 324C234.316 324 234.318 324 234.32 324C234.322 324 234.325 324 234.325 324C234.327 324 234.329 324 234.331 324C234.333 324 234.335 324 234.337 324C234.337 324 234.34 324 234.342 324C234.344 324 234.346 324 234.348 324C234.35 324 234.353 324 234.353 324C234.355 324 234.357 324 234.359 324C234.361 324 234.363 324 234.365 324C234.365 324 234.368 324 234.37 324C234.372 324 234.374 324 234.376 324C234.378 324 234.379 324 234.381 324C234.383 324 234.385 324 234.387 324C234.389 324 234.391 324 234.393 324C234.393 324 234.396 324 234.398 324C234.4 324 234.402 324 234.404 324C234.406 324 234.407 324 234.409 324C234.411 324 234.413 324 234.415 324C234.417 324 234.42 324 234.42 324C234.422 324 234.424 324 234.426 324C234.428 324 234.43 324 234.432 324C234.434 324 234.435 324 234.437 324C234.439 324 234.441 324 234.443 324C234.445 324 234.448 324 234.448 324C234.45 324 234.452 324 234.454 324C234.456 324 234.458 324 234.46 324C234.462 324 234.463 324 234.465 324C234.467 324 234.469 324 234.471 324C234.473 324 234.476 324 234.476 324C234.478 324 234.48 324 234.482 324C234.484 324 234.486 324 234.488 324C234.49 324 234.491 324 234.493 324C234.495 324 234.497 324 234.499 324C234.501 324 234.503 324 234.505 324C234.505 324 234.508 324 234.51 324C234.512 324 234.514 324 234.516 324C234.518 324 234.519 324 234.521 324C234.523 324 234.525 324 234.527 324C234.529 324 234.531 324 234.533 324C234.533 324 234.536 324 234.538 324C234.54 324 234.542 324 234.544 324C234.546 324 234.549 324 234.549 324C234.551 324 234.553 324 234.555 324C234.557 324 234.559 324 234.561 324C234.563 324 234.564 324 234.566 324C234.568 324 234.57 324 234.572 324C234.574 324 234.577 324 234.577 324C234.579 324 234.581 324 234.583 324C234.585 324 234.587 324 234.589 324C234.591 324 234.592 324 234.594 324C234.596 324 234.598 324 234.6 324C234.602 324 234.604 324 234.606 324C234.606 324 234.609 324 234.611 324C234.613 324 234.615 324 234.617 324C234.619 324 234.622 324 234.622 324C234.624 324 234.626 324 234.628 324C234.63 324 234.632 324 234.634 324C234.636 324 234.639 324 234.639 324C234.641 324 234.643 324 234.645 324C234.647 324 234.649 324 234.651 324C234.653 324 234.654 324 234.656 324C234.658 324 234.66 324 234.662 324C234.664 324 234.666 324 234.668 324C234.668 324 234.671 324 234.673 324C234.675 324 234.677 324 234.679 324C234.681 324 234.684 324 234.684 324C234.686 324 234.688 324 234.69 324C234.692 324 234.694 324 234.696 324C234.698 324 234.701 324 234.701 324C234.703 324 234.705 324 234.707 324C234.709 324 234.711 324 234.713 324C234.715 324 234.716 324 234.718 324C234.72 324 234.722 324 234.724 324C234.726 324 234.728 324 234.73 324C234.732 324 234.733 324 234.735 324C234.737 324 234.739 324 234.741 324C234.743 324 234.745 324 234.747 324C234.749 324 234.75 324 234.752 324C234.754 324 234.756 324 234.758 324C234.76 324 234.762 324 234.764 324C234.766 324 234.767 324 234.769 324C234.771 324 234.773 324 234.775 324C234.777 324 234.779 324 234.781 324C234.781 324 234.784 324 234.786 324C234.788 324 234.79 324 234.792 324C234.794 324 234.796 324 234.798 324C234.8 324 234.801 324 234.803 324C234.805 324 234.807 324 234.809 324C234.811 324 234.813 324 234.815 324C234.817 324 234.818 324 234.82 324C234.822 324 234.824 324 234.826 324C234.828 324 234.83 324 234.832 324C234.834 324 234.835 324 234.837 324C234.839 324 234.841 324 234.843 324C234.845 324 234.847 324 234.849 324C234.851 324 234.852 324 234.854 324C234.856 324 234.858 324 234.86 324C234.862 324 234.864 324 234.866 324C234.868 324 234.871 324 234.871 324C234.873 324 234.875 324 234.877 324C234.879 324 234.881 324 234.883 324C234.885 324 234.887 324 234.889 324C234.889 324 234.892 324 234.894 324C234.896 324 234.898 324 234.9 324C234.902 324 234.904 324 234.906 324C234.906 324 234.909 324 234.911 324C234.913 324 234.915 324 234.917 324C234.919 324 234.921 324 234.923 324C234.925 324 234.926 324 234.928 324C234.93 324 234.932 324 234.934 324C234.936 324 234.938 324 234.94 324C234.942 324 234.944 324 234.946 324C234.946 324 234.949 324 234.951 324C234.953 324 234.955 324 234.957 324C234.959 324 234.961 324 234.963 324C234.965 324 234.966 324 234.968 324C234.97 324 234.972 324 234.974 324C234.976 324 234.978 324 234.98 324C234.982 324 234.984 324 234.986 324C234.986 324 234.989 324 234.991 324C234.993 324 234.995 324 234.997 324C234.999 324 235.001 324 235.003 324C235.005 324 235.006 324 235.008 324C235.01 324 235.012 324 235.014 324C235.016 324 235.018 324 235.02 324C235.022 324 235.024 324 235.026 324C235.028 324 235.029 324 235.031 324C235.033 324 235.035 324 235.037 324C235.039 324 235.041 324 235.043 324C235.045 324 235.047 324 235.049 324C235.049 324 235.052 324 235.054 324C235.056 324 235.058 324 235.06 324C235.062 324 235.064 324 235.066 324C235.068 324 235.07 324 235.072 324C235.072 324 235.075 324 235.077 324C235.079 324 235.081 324 235.083 324C235.085 324 235.087 324 235.089 324C235.091 324 235.093 324 235.095 324C235.095 324 235.098 324 235.1 324C235.102 324 235.104 324 235.106 324C235.108 324 235.11 324 235.112 324C235.114 324 235.116 324 235.118 324C235.118 324 235.121 324 235.123 324C235.125 324 235.127 324 235.129 324C235.131 324 235.133 324 235.135 324C235.137 324 235.139 324 235.141 324C235.143 324 235.144 324 235.146 324C235.148 324 235.15 324 235.152 324C235.154 324 235.156 324 235.158 324C235.16 324 235.162 324 235.164 324C235.166 324 235.169 324 235.169 324C235.171 324 235.173 324 235.175 324C235.177 324 235.179 324 235.181 324C235.183 324 235.185 324 235.187 324C235.189 324 235.191 324 235.193 324C235.195 324 235.196 324 235.198 324C235.2 324 235.202 324 235.204 324C235.206 324 235.208 324 235.21 324C235.212 324 235.214 324 235.216 324C235.218 324 235.22 324 235.222 324C235.222 324 235.225 324 235.227 324C235.229 324 235.231 324 235.233 324C235.235 324 235.237 324 235.239 324C235.241 324 235.243 324 235.245 324C235.247 324 235.249 324 235.251 324C235.253 324 235.254 324 235.256 324C235.258 324 235.26 324 235.262 324C235.264 324 235.266 324 235.268 324C235.27 324 235.272 324 235.274 324C235.276 324 235.278 324 235.28 324C235.282 324 235.285 324 235.285 324C235.287 324 235.289 324 235.291 324C235.293 324 235.295 324 235.297 324C235.299 324 235.301 324 235.303 324C235.305 324 235.307 324 235.309 324C235.311 324 235.313 324 235.315 324C235.317 324 235.318 324 235.32 324C235.322 324 235.324 324 235.326 324C235.328 324 235.33 324 235.332 324C235.334 324 235.336 324 235.338 324C235.34 324 235.342 324 235.344 324C235.346 324 235.348 324 235.35 324C235.352 324 235.355 324 235.355 324C235.357 324 235.359 324 235.361 324C235.363 324 235.365 324 235.367 324C235.369 324 235.371 324 235.373 324V318ZM232.477 318H232.476H232.474H232.472H232.471H232.469H232.467H232.465H232.463H232.461H232.459H232.458H232.452H232.45H232.448H232.446H232.443H232.441H232.439H232.437H232.435H232.433H232.431H232.43H232.428H232.426H232.424H232.422H232.42H232.418H232.416H232.415H232.413H232.411H232.409H232.407H232.405H232.403H232.402H232.4H232.398H232.396H232.394H232.392H232.39H232.388H232.387H232.385H232.383H232.379H232.377H232.375H232.372H232.37H232.368H232.366H232.364H232.362H232.361H232.359H232.357H232.355H232.353H232.351H232.349H232.347H232.346H232.344H232.342H232.34H232.338H232.336H232.334H232.333H232.331H232.329H232.327H232.325H232.323H232.321H232.319H232.318H232.316H232.314H232.312H232.31H232.308H232.306H232.305H232.303H232.297H232.295H232.293H232.291H232.29H232.288H232.286H232.284H232.282H232.28H232.278H232.277V324H232.278H232.279H232.281H232.283H232.285H232.287H232.289H232.291H232.292H232.294H232.296H232.302H232.304H232.306H232.307H232.309H232.311H232.313H232.315H232.317H232.319H232.32H232.322H232.324H232.326H232.328H232.33H232.332H232.334H232.335H232.337H232.339H232.341H232.343H232.345H232.347H232.348H232.35H232.352H232.354H232.356H232.358H232.36H232.362H232.363H232.365H232.367H232.369H232.371H232.375H232.376H232.378H232.382H232.384H232.386H232.388H232.389H232.391H232.393H232.395H232.397H232.399H232.401H232.403H232.404H232.406H232.408H232.41H232.412H232.414H232.416H232.417H232.419H232.421H232.423H232.425H232.427H232.429H232.431H232.432H232.434H232.436H232.438H232.44H232.442H232.445H232.447H232.449H232.451H232.457H232.459H232.46H232.462H232.464H232.466H232.468H232.47H232.472H232.473H232.475H232.477V318ZM232.277 318H232.275H232.273H232.271H232.269H232.267H232.265H232.263H232.262H232.26H232.258H232.252H232.25H232.249H232.247H232.245H232.243H232.241H232.239H232.237H232.236H232.234H232.232H232.23H232.226H232.224H232.222H232.221H232.219H232.217H232.215H232.213H232.211H232.209H232.208H232.206H232.204H232.202H232.2H232.198H232.196H232.194H232.193H232.191H232.189H232.187H232.185H232.183H232.181H232.18H232.178H232.176H232.174H232.172H232.17H232.168H232.166H232.165H232.163H232.161H232.159H232.157H232.155H232.153H232.152H232.15H232.148H232.146H232.144H232.142H232.14H232.138H232.137H232.135H232.133H232.131H232.129H232.127H232.125H232.124H232.122H232.12H232.118H232.116H232.114H232.112H232.111H232.109H232.107H232.105H232.103H232.096H232.094H232.092H232.09H232.088H232.086H232.084H232.083H232.081H232.079H232.077V324H232.078H232.08H232.082H232.084H232.085H232.087H232.089H232.091H232.093H232.095H232.102H232.104H232.106H232.108H232.11H232.112H232.113H232.115H232.117H232.119H232.121H232.123H232.125H232.126H232.128H232.13H232.132H232.134H232.136H232.138H232.139H232.141H232.143H232.145H232.147H232.149H232.151H232.153H232.154H232.156H232.158H232.16H232.162H232.164H232.166H232.167H232.169H232.171H232.173H232.175H232.177H232.179H232.181H232.182H232.184H232.186H232.188H232.19H232.192H232.194H232.195H232.197H232.199H232.201H232.203H232.205H232.207H232.209H232.21H232.212H232.214H232.216H232.218H232.22H232.222H232.223H232.225H232.229H232.231H232.233H232.235H232.237H232.238H232.24H232.242H232.244H232.246H232.248H232.25H232.251H232.257H232.259H232.261H232.263H232.264H232.266H232.268H232.27H232.272H232.274H232.277V318ZM232.077 318C232.075 318 232.073 318 232.071 318C232.069 318 232.067 318 232.065 318C232.063 318 232.061 318 232.059 318C232.057 318 232.056 318 232.054 318C232.052 318 232.05 318 232.048 318C232.046 318 232.044 318 232.042 318C232.04 318 232.038 318 232.036 318C232.034 318 232.032 318 232.03 318C232.028 318 232.026 318 232.024 318C232.022 318 232.021 318 232.019 318C232.017 318 232.015 318 232.013 318C232.011 318 232.009 318 232.007 318C232.005 318 232.003 318 232.001 318C231.999 318 231.997 318 231.995 318C231.993 318 231.991 318 231.989 318C231.989 318 231.986 318 231.984 318C231.982 318 231.98 318 231.978 318C231.976 318 231.974 318 231.972 318C231.97 318 231.968 318 231.966 318C231.964 318 231.962 318 231.96 318C231.958 318 231.955 318 231.955 318C231.953 318 231.951 318 231.949 318C231.947 318 231.945 318 231.943 318C231.941 318 231.939 318 231.937 318C231.935 318 231.933 318 231.931 318C231.929 318 231.926 318 231.926 318C231.924 318 231.922 318 231.92 318C231.918 318 231.916 318 231.914 318C231.912 318 231.91 318 231.908 318C231.906 318 231.904 318 231.902 318C231.9 318 231.899 318 231.897 318C231.895 318 231.893 318 231.891 318C231.889 318 231.887 318 231.885 318C231.883 318 231.881 318 231.879 318C231.877 318 231.875 318 231.873 318C231.873 318 231.87 318 231.868 318C231.866 318 231.864 318 231.862 318C231.86 318 231.858 318 231.856 318C231.854 318 231.852 318 231.85 318C231.848 318 231.847 318 231.845 318C231.843 318 231.841 318 231.839 318C231.837 318 231.835 318 231.833 318C231.831 318 231.829 318 231.827 318C231.825 318 231.822 318 231.822 318C231.82 318 231.818 318 231.816 318C231.814 318 231.812 318 231.81 318C231.808 318 231.806 318 231.804 318C231.802 318 231.8 318 231.798 318C231.798 318 231.795 318 231.793 318C231.791 318 231.789 318 231.787 318C231.785 318 231.783 318 231.781 318C231.779 318 231.777 318 231.775 318C231.775 318 231.772 318 231.77 318C231.768 318 231.766 318 231.764 318C231.762 318 231.76 318 231.758 318C231.756 318 231.753 318 231.753 318C231.751 318 231.749 318 231.747 318C231.745 318 231.743 318 231.741 318C231.739 318 231.737 318 231.735 318C231.733 318 231.73 318 231.73 318C231.728 318 231.726 318 231.724 318C231.722 318 231.72 318 231.718 318C231.716 318 231.714 318 231.712 318C231.71 318 231.709 318 231.707 318C231.705 318 231.703 318 231.701 318C231.699 318 231.697 318 231.695 318C231.693 318 231.691 318 231.689 318C231.689 318 231.686 318 231.684 318C231.682 318 231.68 318 231.678 318C231.676 318 231.674 318 231.672 318C231.67 318 231.669 318 231.667 318C231.665 318 231.663 318 231.661 318C231.659 318 231.657 318 231.655 318C231.653 318 231.651 318 231.649 318C231.649 318 231.646 318 231.644 318C231.642 318 231.64 318 231.638 318C231.636 318 231.634 318 231.632 318C231.63 318 231.629 318 231.627 318C231.625 318 231.623 318 231.621 318C231.619 318 231.617 318 231.615 318C231.613 318 231.61 318 231.61 318C231.608 318 231.606 318 231.604 318C231.602 318 231.6 318 231.598 318C231.596 318 231.594 318 231.592 318C231.592 318 231.589 318 231.587 318C231.585 318 231.583 318 231.581 318C231.579 318 231.577 318 231.575 318C231.575 318 231.572 318 231.57 318C231.568 318 231.566 318 231.564 318C231.562 318 231.56 318 231.558 318C231.556 318 231.555 318 231.553 318C231.551 318 231.549 318 231.547 318C231.545 318 231.543 318 231.541 318C231.539 318 231.538 318 231.536 318C231.534 318 231.532 318 231.53 318C231.528 318 231.526 318 231.524 318C231.522 318 231.521 318 231.519 318C231.517 318 231.515 318 231.513 318C231.511 318 231.509 318 231.507 318C231.505 318 231.502 318 231.502 318C231.5 318 231.498 318 231.496 318C231.494 318 231.492 318 231.49 318C231.488 318 231.485 318 231.485 318C231.483 318 231.481 318 231.479 318C231.477 318 231.475 318 231.473 318C231.471 318 231.468 318 231.468 318C231.466 318 231.464 318 231.462 318C231.46 318 231.458 318 231.456 318C231.454 318 231.453 318 231.451 318C231.449 318 231.447 318 231.445 318C231.443 318 231.441 318 231.439 318C231.437 318 231.436 318 231.434 318C231.432 318 231.43 318 231.428 318C231.426 318 231.424 318 231.422 318C231.42 318 231.419 318 231.417 318C231.415 318 231.413 318 231.411 318C231.409 318 231.407 318 231.405 318C231.405 318 231.402 318 231.4 318C231.398 318 231.396 318 231.394 318C231.392 318 231.39 318 231.388 318C231.388 318 231.385 318 231.383 318C231.381 318 231.379 318 231.377 318C231.375 318 231.372 318 231.372 318C231.37 318 231.368 318 231.366 318C231.364 318 231.362 318 231.36 318C231.358 318 231.357 318 231.355 318C231.353 318 231.351 318 231.349 318C231.347 318 231.345 318 231.343 318C231.341 318 231.34 318 231.338 318C231.336 318 231.334 318 231.332 318C231.33 318 231.328 318 231.326 318C231.326 318 231.323 318 231.321 318C231.319 318 231.317 318 231.315 318C231.313 318 231.31 318 231.31 318C231.308 318 231.306 318 231.304 318C231.302 318 231.3 318 231.298 318C231.296 318 231.295 318 231.293 318C231.291 318 231.289 318 231.287 318C231.285 318 231.283 318 231.281 318C231.281 318 231.278 318 231.276 318C231.274 318 231.272 318 231.27 318C231.268 318 231.265 318 231.265 318C231.263 318 231.261 318 231.259 318C231.257 318 231.255 318 231.253 318C231.251 318 231.25 318 231.248 318C231.246 318 231.244 318 231.242 318C231.24 318 231.237 318 231.237 318C231.235 318 231.233 318 231.231 318C231.229 318 231.227 318 231.225 318C231.223 318 231.222 318 231.22 318C231.218 318 231.216 318 231.214 318C231.212 318 231.21 318 231.208 318C231.208 318 231.205 318 231.203 318C231.201 318 231.199 318 231.197 318C231.195 318 231.194 318 231.192 318C231.19 318 231.188 318 231.186 318C231.184 318 231.182 318 231.18 318C231.18 318 231.177 318 231.175 318C231.173 318 231.171 318 231.169 318C231.167 318 231.164 318 231.164 318C231.162 318 231.16 318 231.158 318C231.156 318 231.154 318 231.152 318C231.152 318 231.149 318 231.147 318C231.145 318 231.143 318 231.141 318C231.139 318 231.136 318 231.136 318C231.134 318 231.132 318 231.13 318C231.128 318 231.126 318 231.124 318C231.124 318 231.121 318 231.119 318C231.117 318 231.115 318 231.113 318C231.111 318 231.11 318 231.108 318C231.106 318 231.104 318 231.102 318C231.1 318 231.098 318 231.096 318C231.096 318 231.093 318 231.091 318C231.089 318 231.087 318 231.085 318C231.083 318 231.082 318 231.08 318C231.078 318 231.076 318 231.074 318C231.072 318 231.069 318 231.069 318C231.067 318 231.065 318 231.063 318C231.061 318 231.059 318 231.057 318C231.055 318 231.054 318 231.052 318C231.05 318 231.048 318 231.046 318C231.044 318 231.041 318 231.041 318C231.039 318 231.037 318 231.035 318C231.033 318 231.031 318 231.029 318C231.029 318 231.026 318 231.024 318C231.022 318 231.02 318 231.018 318C231.016 318 231.015 318 231.013 318C231.011 318 231.009 318 231.007 318C231.005 318 231.003 318 231.001 318C231.001 318 230.998 318 230.996 318C230.994 318 230.992 318 230.99 318C230.988 318 230.987 318 230.985 318C230.983 318 230.981 318 230.979 318C230.977 318 230.974 318 230.974 318C230.972 318 230.97 318 230.968 318C230.966 318 230.964 318 230.962 318C230.962 318 230.959 318 230.957 318C230.955 318 230.953 318 230.951 318C230.949 318 230.948 318 230.946 318C230.944 318 230.942 318 230.94 318C230.938 318 230.935 318 230.935 318C230.933 318 230.931 318 230.929 318C230.927 318 230.925 318 230.923 318C230.923 318 230.92 318 230.918 318C230.916 318 230.914 318 230.912 318C230.91 318 230.909 318 230.907 318C230.905 318 230.903 318 230.901 318C230.899 318 230.896 318 230.896 318C230.894 318 230.892 318 230.89 318C230.888 318 230.886 318 230.884 318C230.884 318 230.881 318 230.879 318C230.877 318 230.875 318 230.873 318C230.871 318 230.87 318 230.868 318C230.866 318 230.864 318 230.862 318C230.86 318 230.857 318 230.857 318C230.855 318 230.853 318 230.851 318C230.849 318 230.847 318 230.845 318C230.845 318 230.842 318 230.84 318C230.838 318 230.836 318 230.834 318C230.832 318 230.831 318 230.829 318C230.827 318 230.825 318 230.823 318C230.821 318 230.818 318 230.818 318C230.816 318 230.814 318 230.812 318C230.81 318 230.808 318 230.806 318C230.806 318 230.803 318 230.801 318C230.799 318 230.797 318 230.795 318C230.793 318 230.792 318 230.79 318C230.788 318 230.786 318 230.784 318C230.782 318 230.781 318 230.779 318C230.777 318 230.775 318 230.773 318C230.771 318 230.768 318 230.768 318C230.766 318 230.764 318 230.762 318C230.76 318 230.758 318 230.756 318C230.756 318 230.753 318 230.751 318C230.749 318 230.747 318 230.745 318C230.743 318 230.742 318 230.74 318C230.738 318 230.736 318 230.734 318C230.732 318 230.729 318 230.729 318C230.727 318 230.725 318 230.723 318C230.721 318 230.719 318 230.717 318C230.717 318 230.714 318 230.712 318C230.71 318 230.708 318 230.706 318C230.704 318 230.703 318 230.701 318C230.699 318 230.697 318 230.695 318C230.693 318 230.692 318 230.69 318C230.688 318 230.686 318 230.684 318C230.682 318 230.679 318 230.679 318C230.677 318 230.675 318 230.673 318C230.671 318 230.669 318 230.667 318C230.667 318 230.664 318 230.662 318C230.66 318 230.658 318 230.656 318C230.654 318 230.653 318 230.651 318C230.649 318 230.647 318 230.645 318C230.643 318 230.64 318 230.64 318C230.638 318 230.636 318 230.634 318C230.632 318 230.63 318 230.628 318C230.628 318 230.625 318 230.623 318C230.621 318 230.619 318 230.617 318C230.617 318 230.614 318 230.612 318C230.61 318 230.608 318 230.606 318C230.604 318 230.603 318 230.601 318C230.599 318 230.597 318 230.595 318C230.593 318 230.59 318 230.59 318C230.588 318 230.586 318 230.584 318C230.582 318 230.58 318 230.578 318C230.578 318 230.575 318 230.573 318C230.571 318 230.569 318 230.567 318C230.565 318 230.564 318 230.562 318C230.56 318 230.558 318 230.556 318C230.554 318 230.551 318 230.551 318C230.549 318 230.547 318 230.545 318C230.543 318 230.54 318 230.54 318C230.538 318 230.536 318 230.534 318C230.532 318 230.53 318 230.528 318C230.528 318 230.525 318 230.523 318C230.521 318 230.519 318 230.517 318C230.515 318 230.514 318 230.512 318C230.51 318 230.508 318 230.506 318C230.504 318 230.501 318 230.501 318C230.499 318 230.497 318 230.495 318C230.493 318 230.491 318 230.489 318C230.489 318 230.486 318 230.484 318C230.482 318 230.48 318 230.478 318C230.476 318 230.475 318 230.473 318C230.471 318 230.469 318 230.467 318C230.465 318 230.462 318 230.462 318C230.46 318 230.458 318 230.456 318C230.454 318 230.451 318 230.451 318C230.449 318 230.447 318 230.445 318C230.443 318 230.441 318 230.439 318C230.439 318 230.436 318 230.434 318C230.432 318 230.43 318 230.428 318C230.426 318 230.425 318 230.423 318C230.421 318 230.419 318 230.417 318C230.415 318 230.412 318 230.412 318C230.41 318 230.408 318 230.406 318C230.404 318 230.402 318 230.4 318C230.4 318 230.397 318 230.395 318C230.393 318 230.391 318 230.389 318C230.387 318 230.386 318 230.384 318C230.382 318 230.38 318 230.378 318C230.376 318 230.373 318 230.373 318C230.371 318 230.369 318 230.367 318C230.365 318 230.363 318 230.361 318C230.361 318 230.358 318 230.356 318C230.354 318 230.352 318 230.35 318C230.348 318 230.347 318 230.345 318C230.343 318 230.341 318 230.339 318C230.337 318 230.334 318 230.334 318C230.332 318 230.33 318 230.328 318C230.326 318 230.324 318 230.322 318C230.322 318 230.319 318 230.317 318C230.315 318 230.313 318 230.311 318C230.309 318 230.308 318 230.306 318C230.304 318 230.302 318 230.3 318C230.298 318 230.295 318 230.295 318C230.293 318 230.291 318 230.289 318C230.287 318 230.285 318 230.283 318C230.283 318 230.28 318 230.278 318C230.276 318 230.274 318 230.272 318C230.27 318 230.269 318 230.267 318C230.265 318 230.263 318 230.261 318C230.259 318 230.257 318 230.255 318C230.255 318 230.252 318 230.25 318C230.248 318 230.246 318 230.244 318C230.242 318 230.241 318 230.239 318C230.237 318 230.235 318 230.233 318C230.231 318 230.228 318 230.228 318C230.226 318 230.224 318 230.222 318C230.22 318 230.218 318 230.216 318C230.216 318 230.213 318 230.211 318C230.209 318 230.207 318 230.205 318C230.203 318 230.202 318 230.2 318C230.198 318 230.196 318 230.194 318C230.192 318 230.19 318 230.188 318C230.188 318 230.185 318 230.183 318C230.181 318 230.179 318 230.177 318C230.175 318 230.174 318 230.172 318C230.17 318 230.168 318 230.166 318C230.164 318 230.161 318 230.161 318C230.159 318 230.157 318 230.155 318C230.153 318 230.151 318 230.149 318C230.147 318 230.146 318 230.144 318C230.142 318 230.14 318 230.138 318C230.136 318 230.133 318 230.133 318C230.131 318 230.129 318 230.127 318C230.125 318 230.123 318 230.121 318C230.119 318 230.118 318 230.116 318C230.114 318 230.112 318 230.11 318C230.108 318 230.105 318 230.105 318C230.103 318 230.101 318 230.099 318C230.097 318 230.095 318 230.093 318C230.091 318 230.09 318 230.088 318C230.086 318 230.084 318 230.082 318C230.08 318 230.077 318 230.077 318C230.075 318 230.073 318 230.071 318C230.069 318 230.067 318 230.065 318C230.063 318 230.062 318 230.06 318C230.058 318 230.056 318 230.054 318C230.052 318 230.049 318 230.049 318C230.047 318 230.045 318 230.043 318C230.041 318 230.039 318 230.037 318C230.035 318 230.034 318 230.032 318C230.03 318 230.028 318 230.026 318C230.024 318 230.022 318 230.02 318C230.02 318 230.017 318 230.015 318C230.013 318 230.011 318 230.009 318C230.007 318 230.004 318 230.004 318C230.002 318 230 318 229.998 318C229.996 318 229.994 318 229.992 318C229.992 318 229.989 318 229.987 318C229.985 318 229.983 318 229.981 318C229.979 318 229.976 318 229.976 318C229.974 318 229.972 318 229.97 318C229.968 318 229.966 318 229.964 318C229.962 318 229.961 318 229.959 318C229.957 318 229.955 318 229.953 318C229.951 318 229.949 318 229.947 318C229.947 318 229.944 318 229.942 318C229.94 318 229.938 318 229.936 318C229.934 318 229.931 318 229.931 318C229.929 318 229.927 318 229.925 318C229.923 318 229.921 318 229.919 318C229.917 318 229.914 318 229.914 318C229.912 318 229.91 318 229.908 318C229.906 318 229.904 318 229.902 318C229.9 318 229.899 318 229.897 318C229.895 318 229.893 318 229.891 318C229.889 318 229.887 318 229.885 318C229.885 318 229.882 318 229.88 318C229.878 318 229.876 318 229.874 318C229.872 318 229.869 318 229.869 318C229.867 318 229.865 318 229.863 318C229.861 318 229.859 318 229.857 318C229.855 318 229.852 318 229.852 318C229.85 318 229.848 318 229.846 318C229.844 318 229.842 318 229.84 318C229.838 318 229.837 318 229.835 318C229.833 318 229.831 318 229.829 318C229.827 318 229.825 318 229.823 318C229.821 318 229.82 318 229.818 318C229.816 318 229.814 318 229.812 318C229.81 318 229.808 318 229.806 318C229.804 318 229.803 318 229.801 318C229.799 318 229.797 318 229.795 318C229.793 318 229.791 318 229.789 318C229.787 318 229.786 318 229.784 318C229.782 318 229.78 318 229.778 318C229.776 318 229.774 318 229.772 318C229.772 318 229.769 318 229.767 318C229.765 318 229.763 318 229.761 318C229.759 318 229.757 318 229.755 318C229.755 318 229.752 318 229.75 318C229.748 318 229.746 318 229.744 318C229.742 318 229.74 318 229.738 318C229.736 318 229.735 318 229.733 318C229.731 318 229.729 318 229.727 318C229.725 318 229.723 318 229.721 318C229.719 318 229.718 318 229.716 318C229.714 318 229.712 318 229.71 318C229.708 318 229.706 318 229.704 318C229.702 318 229.701 318 229.699 318C229.697 318 229.695 318 229.693 318C229.691 318 229.689 318 229.687 318C229.685 318 229.682 318 229.682 318C229.68 318 229.678 318 229.676 318C229.674 318 229.672 318 229.67 318C229.668 318 229.666 318 229.664 318C229.664 318 229.661 318 229.659 318C229.657 318 229.655 318 229.653 318C229.651 318 229.649 318 229.647 318C229.647 318 229.644 318 229.642 318C229.64 318 229.638 318 229.636 318C229.634 318 229.632 318 229.63 318C229.628 318 229.627 318 229.625 318C229.623 318 229.621 318 229.619 318C229.617 318 229.615 318 229.613 318C229.611 318 229.609 318 229.607 318C229.607 318 229.604 318 229.602 318C229.6 318 229.598 318 229.596 318C229.594 318 229.592 318 229.59 318C229.588 318 229.587 318 229.585 318C229.583 318 229.581 318 229.579 318C229.577 318 229.575 318 229.573 318C229.571 318 229.569 318 229.567 318C229.567 318 229.564 318 229.562 318C229.56 318 229.558 318 229.556 318C229.554 318 229.552 318 229.55 318C229.548 318 229.547 318 229.545 318C229.543 318 229.541 318 229.539 318C229.537 318 229.535 318 229.533 318C229.531 318 229.529 318 229.527 318C229.525 318 229.524 318 229.522 318C229.52 318 229.518 318 229.516 318C229.514 318 229.512 318 229.51 318C229.508 318 229.506 318 229.504 318C229.504 318 229.501 318 229.499 318C229.497 318 229.495 318 229.493 318C229.491 318 229.489 318 229.487 318C229.485 318 229.483 318 229.481 318C229.481 318 229.478 318 229.476 318C229.474 318 229.472 318 229.47 318C229.468 318 229.466 318 229.464 318C229.462 318 229.46 318 229.458 318C229.458 318 229.455 318 229.453 318C229.451 318 229.449 318 229.447 318C229.445 318 229.443 318 229.441 318C229.439 318 229.437 318 229.435 318C229.435 318 229.432 318 229.43 318C229.428 318 229.426 318 229.424 318C229.422 318 229.42 318 229.418 318C229.416 318 229.414 318 229.412 318C229.41 318 229.409 318 229.407 318C229.405 318 229.403 318 229.401 318C229.399 318 229.397 318 229.395 318C229.393 318 229.391 318 229.389 318C229.387 318 229.384 318 229.384 318C229.382 318 229.38 318 229.378 318C229.376 318 229.374 318 229.372 318C229.37 318 229.368 318 229.366 318C229.364 318 229.362 318 229.36 318C229.358 318 229.357 318 229.355 318C229.353 318 229.351 318 229.349 318C229.347 318 229.345 318 229.343 318C229.341 318 229.339 318 229.337 318C229.335 318 229.333 318 229.331 318C229.331 318 229.328 318 229.326 318C229.324 318 229.322 318 229.32 318C229.318 318 229.316 318 229.314 318C229.312 318 229.31 318 229.308 318C229.306 318 229.304 318 229.302 318C229.3 318 229.299 318 229.297 318C229.295 318 229.293 318 229.291 318C229.289 318 229.287 318 229.285 318C229.283 318 229.281 318 229.279 318C229.277 318 229.275 318 229.273 318C229.271 318 229.268 318 229.268 318C229.266 318 229.264 318 229.262 318C229.26 318 229.258 318 229.256 318C229.254 318 229.252 318 229.25 318C229.248 318 229.246 318 229.244 318C229.242 318 229.24 318 229.238 318C229.236 318 229.235 318 229.233 318C229.231 318 229.229 318 229.227 318C229.225 318 229.223 318 229.221 318C229.219 318 229.217 318 229.215 318C229.213 318 229.211 318 229.209 318C229.207 318 229.205 318 229.203 318C229.201 318 229.198 318 229.198 318C229.196 318 229.194 318 229.192 318C229.19 318 229.188 318 229.186 318C229.184 318 229.182 318 229.18 318V324C229.182 324 229.184 324 229.186 324C229.188 324 229.19 324 229.192 324C229.194 324 229.196 324 229.198 324C229.198 324 229.201 324 229.203 324C229.205 324 229.207 324 229.209 324C229.211 324 229.213 324 229.215 324C229.217 324 229.219 324 229.221 324C229.223 324 229.225 324 229.227 324C229.229 324 229.231 324 229.233 324C229.235 324 229.236 324 229.238 324C229.24 324 229.242 324 229.244 324C229.246 324 229.248 324 229.25 324C229.252 324 229.254 324 229.256 324C229.258 324 229.26 324 229.262 324C229.264 324 229.266 324 229.268 324C229.268 324 229.271 324 229.273 324C229.275 324 229.277 324 229.279 324C229.281 324 229.283 324 229.285 324C229.287 324 229.289 324 229.291 324C229.293 324 229.295 324 229.297 324C229.299 324 229.3 324 229.302 324C229.304 324 229.306 324 229.308 324C229.31 324 229.312 324 229.314 324C229.316 324 229.318 324 229.32 324C229.322 324 229.324 324 229.326 324C229.328 324 229.331 324 229.331 324C229.333 324 229.335 324 229.337 324C229.339 324 229.341 324 229.343 324C229.345 324 229.347 324 229.349 324C229.351 324 229.353 324 229.355 324C229.357 324 229.358 324 229.36 324C229.362 324 229.364 324 229.366 324C229.368 324 229.37 324 229.372 324C229.374 324 229.376 324 229.378 324C229.38 324 229.382 324 229.384 324C229.384 324 229.387 324 229.389 324C229.391 324 229.393 324 229.395 324C229.397 324 229.399 324 229.401 324C229.403 324 229.405 324 229.407 324C229.409 324 229.41 324 229.412 324C229.414 324 229.416 324 229.418 324C229.42 324 229.422 324 229.424 324C229.426 324 229.428 324 229.43 324C229.432 324 229.435 324 229.435 324C229.437 324 229.439 324 229.441 324C229.443 324 229.445 324 229.447 324C229.449 324 229.451 324 229.453 324C229.455 324 229.458 324 229.458 324C229.46 324 229.462 324 229.464 324C229.466 324 229.468 324 229.47 324C229.472 324 229.474 324 229.476 324C229.478 324 229.481 324 229.481 324C229.483 324 229.485 324 229.487 324C229.489 324 229.491 324 229.493 324C229.495 324 229.497 324 229.499 324C229.501 324 229.504 324 229.504 324C229.506 324 229.508 324 229.51 324C229.512 324 229.514 324 229.516 324C229.518 324 229.52 324 229.522 324C229.524 324 229.525 324 229.527 324C229.529 324 229.531 324 229.533 324C229.535 324 229.537 324 229.539 324C229.541 324 229.543 324 229.545 324C229.547 324 229.548 324 229.55 324C229.552 324 229.554 324 229.556 324C229.558 324 229.56 324 229.562 324C229.564 324 229.567 324 229.567 324C229.569 324 229.571 324 229.573 324C229.575 324 229.577 324 229.579 324C229.581 324 229.583 324 229.585 324C229.587 324 229.588 324 229.59 324C229.592 324 229.594 324 229.596 324C229.598 324 229.6 324 229.602 324C229.604 324 229.607 324 229.607 324C229.609 324 229.611 324 229.613 324C229.615 324 229.617 324 229.619 324C229.621 324 229.623 324 229.625 324C229.627 324 229.628 324 229.63 324C229.632 324 229.634 324 229.636 324C229.638 324 229.64 324 229.642 324C229.644 324 229.647 324 229.647 324C229.649 324 229.651 324 229.653 324C229.655 324 229.657 324 229.659 324C229.661 324 229.664 324 229.664 324C229.666 324 229.668 324 229.67 324C229.672 324 229.674 324 229.676 324C229.678 324 229.68 324 229.682 324C229.682 324 229.685 324 229.687 324C229.689 324 229.691 324 229.693 324C229.695 324 229.697 324 229.699 324C229.701 324 229.702 324 229.704 324C229.706 324 229.708 324 229.71 324C229.712 324 229.714 324 229.716 324C229.718 324 229.719 324 229.721 324C229.723 324 229.725 324 229.727 324C229.729 324 229.731 324 229.733 324C229.735 324 229.736 324 229.738 324C229.74 324 229.742 324 229.744 324C229.746 324 229.748 324 229.75 324C229.752 324 229.755 324 229.755 324C229.757 324 229.759 324 229.761 324C229.763 324 229.765 324 229.767 324C229.769 324 229.772 324 229.772 324C229.774 324 229.776 324 229.778 324C229.78 324 229.782 324 229.784 324C229.786 324 229.787 324 229.789 324C229.791 324 229.793 324 229.795 324C229.797 324 229.799 324 229.801 324C229.803 324 229.804 324 229.806 324C229.808 324 229.81 324 229.812 324C229.814 324 229.816 324 229.818 324C229.82 324 229.821 324 229.823 324C229.825 324 229.827 324 229.829 324C229.831 324 229.833 324 229.835 324C229.837 324 229.838 324 229.84 324C229.842 324 229.844 324 229.846 324C229.848 324 229.85 324 229.852 324C229.852 324 229.855 324 229.857 324C229.859 324 229.861 324 229.863 324C229.865 324 229.867 324 229.869 324C229.869 324 229.872 324 229.874 324C229.876 324 229.878 324 229.88 324C229.882 324 229.885 324 229.885 324C229.887 324 229.889 324 229.891 324C229.893 324 229.895 324 229.897 324C229.899 324 229.9 324 229.902 324C229.904 324 229.906 324 229.908 324C229.91 324 229.912 324 229.914 324C229.914 324 229.917 324 229.919 324C229.921 324 229.923 324 229.925 324C229.927 324 229.929 324 229.931 324C229.931 324 229.934 324 229.936 324C229.938 324 229.94 324 229.942 324C229.944 324 229.947 324 229.947 324C229.949 324 229.951 324 229.953 324C229.955 324 229.957 324 229.959 324C229.961 324 229.962 324 229.964 324C229.966 324 229.968 324 229.97 324C229.972 324 229.974 324 229.976 324C229.976 324 229.979 324 229.981 324C229.983 324 229.985 324 229.987 324C229.989 324 229.992 324 229.992 324C229.994 324 229.996 324 229.998 324C230 324 230.002 324 230.004 324C230.004 324 230.007 324 230.009 324C230.011 324 230.013 324 230.015 324C230.017 324 230.02 324 230.02 324C230.022 324 230.024 324 230.026 324C230.028 324 230.03 324 230.032 324C230.034 324 230.035 324 230.037 324C230.039 324 230.041 324 230.043 324C230.045 324 230.047 324 230.049 324C230.049 324 230.052 324 230.054 324C230.056 324 230.058 324 230.06 324C230.062 324 230.063 324 230.065 324C230.067 324 230.069 324 230.071 324C230.073 324 230.075 324 230.077 324C230.077 324 230.08 324 230.082 324C230.084 324 230.086 324 230.088 324C230.09 324 230.091 324 230.093 324C230.095 324 230.097 324 230.099 324C230.101 324 230.103 324 230.105 324C230.105 324 230.108 324 230.11 324C230.112 324 230.114 324 230.116 324C230.118 324 230.119 324 230.121 324C230.123 324 230.125 324 230.127 324C230.129 324 230.131 324 230.133 324C230.133 324 230.136 324 230.138 324C230.14 324 230.142 324 230.144 324C230.146 324 230.147 324 230.149 324C230.151 324 230.153 324 230.155 324C230.157 324 230.159 324 230.161 324C230.161 324 230.164 324 230.166 324C230.168 324 230.17 324 230.172 324C230.174 324 230.175 324 230.177 324C230.179 324 230.181 324 230.183 324C230.185 324 230.188 324 230.188 324C230.19 324 230.192 324 230.194 324C230.196 324 230.198 324 230.2 324C230.202 324 230.203 324 230.205 324C230.207 324 230.209 324 230.211 324C230.213 324 230.216 324 230.216 324C230.218 324 230.22 324 230.222 324C230.224 324 230.226 324 230.228 324C230.228 324 230.231 324 230.233 324C230.235 324 230.237 324 230.239 324C230.241 324 230.242 324 230.244 324C230.246 324 230.248 324 230.25 324C230.252 324 230.255 324 230.255 324C230.257 324 230.259 324 230.261 324C230.263 324 230.265 324 230.267 324C230.269 324 230.27 324 230.272 324C230.274 324 230.276 324 230.278 324C230.28 324 230.283 324 230.283 324C230.285 324 230.287 324 230.289 324C230.291 324 230.293 324 230.295 324C230.295 324 230.298 324 230.3 324C230.302 324 230.304 324 230.306 324C230.308 324 230.309 324 230.311 324C230.313 324 230.315 324 230.317 324C230.319 324 230.322 324 230.322 324C230.324 324 230.326 324 230.328 324C230.33 324 230.332 324 230.334 324C230.334 324 230.337 324 230.339 324C230.341 324 230.343 324 230.345 324C230.347 324 230.348 324 230.35 324C230.352 324 230.354 324 230.356 324C230.358 324 230.361 324 230.361 324C230.363 324 230.365 324 230.367 324C230.369 324 230.371 324 230.373 324C230.373 324 230.376 324 230.378 324C230.38 324 230.382 324 230.384 324C230.386 324 230.387 324 230.389 324C230.391 324 230.393 324 230.395 324C230.397 324 230.4 324 230.4 324C230.402 324 230.404 324 230.406 324C230.408 324 230.41 324 230.412 324C230.412 324 230.415 324 230.417 324C230.419 324 230.421 324 230.423 324C230.425 324 230.426 324 230.428 324C230.43 324 230.432 324 230.434 324C230.436 324 230.439 324 230.439 324C230.441 324 230.443 324 230.445 324C230.447 324 230.449 324 230.451 324C230.451 324 230.454 324 230.456 324C230.458 324 230.46 324 230.462 324C230.462 324 230.465 324 230.467 324C230.469 324 230.471 324 230.473 324C230.475 324 230.476 324 230.478 324C230.48 324 230.482 324 230.484 324C230.486 324 230.489 324 230.489 324C230.491 324 230.493 324 230.495 324C230.497 324 230.499 324 230.501 324C230.501 324 230.504 324 230.506 324C230.508 324 230.51 324 230.512 324C230.514 324 230.515 324 230.517 324C230.519 324 230.521 324 230.523 324C230.525 324 230.528 324 230.528 324C230.53 324 230.532 324 230.534 324C230.536 324 230.538 324 230.54 324C230.54 324 230.543 324 230.545 324C230.547 324 230.549 324 230.551 324C230.551 324 230.554 324 230.556 324C230.558 324 230.56 324 230.562 324C230.564 324 230.565 324 230.567 324C230.569 324 230.571 324 230.573 324C230.575 324 230.578 324 230.578 324C230.58 324 230.582 324 230.584 324C230.586 324 230.588 324 230.59 324C230.59 324 230.593 324 230.595 324C230.597 324 230.599 324 230.601 324C230.603 324 230.604 324 230.606 324C230.608 324 230.61 324 230.612 324C230.614 324 230.617 324 230.617 324C230.619 324 230.621 324 230.623 324C230.625 324 230.628 324 230.628 324C230.63 324 230.632 324 230.634 324C230.636 324 230.638 324 230.64 324C230.64 324 230.643 324 230.645 324C230.647 324 230.649 324 230.651 324C230.653 324 230.654 324 230.656 324C230.658 324 230.66 324 230.662 324C230.664 324 230.667 324 230.667 324C230.669 324 230.671 324 230.673 324C230.675 324 230.677 324 230.679 324C230.679 324 230.682 324 230.684 324C230.686 324 230.688 324 230.69 324C230.692 324 230.693 324 230.695 324C230.697 324 230.699 324 230.701 324C230.703 324 230.704 324 230.706 324C230.708 324 230.71 324 230.712 324C230.714 324 230.717 324 230.717 324C230.719 324 230.721 324 230.723 324C230.725 324 230.727 324 230.729 324C230.729 324 230.732 324 230.734 324C230.736 324 230.738 324 230.74 324C230.742 324 230.743 324 230.745 324C230.747 324 230.749 324 230.751 324C230.753 324 230.756 324 230.756 324C230.758 324 230.76 324 230.762 324C230.764 324 230.766 324 230.768 324C230.768 324 230.771 324 230.773 324C230.775 324 230.777 324 230.779 324C230.781 324 230.782 324 230.784 324C230.786 324 230.788 324 230.79 324C230.792 324 230.793 324 230.795 324C230.797 324 230.799 324 230.801 324C230.803 324 230.806 324 230.806 324C230.808 324 230.81 324 230.812 324C230.814 324 230.816 324 230.818 324C230.818 324 230.821 324 230.823 324C230.825 324 230.827 324 230.829 324C230.831 324 230.832 324 230.834 324C230.836 324 230.838 324 230.84 324C230.842 324 230.845 324 230.845 324C230.847 324 230.849 324 230.851 324C230.853 324 230.855 324 230.857 324C230.857 324 230.86 324 230.862 324C230.864 324 230.866 324 230.868 324C230.87 324 230.871 324 230.873 324C230.875 324 230.877 324 230.879 324C230.881 324 230.884 324 230.884 324C230.886 324 230.888 324 230.89 324C230.892 324 230.894 324 230.896 324C230.896 324 230.899 324 230.901 324C230.903 324 230.905 324 230.907 324C230.909 324 230.91 324 230.912 324C230.914 324 230.916 324 230.918 324C230.92 324 230.923 324 230.923 324C230.925 324 230.927 324 230.929 324C230.931 324 230.933 324 230.935 324C230.935 324 230.938 324 230.94 324C230.942 324 230.944 324 230.946 324C230.948 324 230.949 324 230.951 324C230.953 324 230.955 324 230.957 324C230.959 324 230.962 324 230.962 324C230.964 324 230.966 324 230.968 324C230.97 324 230.972 324 230.974 324C230.974 324 230.977 324 230.979 324C230.981 324 230.983 324 230.985 324C230.987 324 230.988 324 230.99 324C230.992 324 230.994 324 230.996 324C230.998 324 231.001 324 231.001 324C231.003 324 231.005 324 231.007 324C231.009 324 231.011 324 231.013 324C231.015 324 231.016 324 231.018 324C231.02 324 231.022 324 231.024 324C231.026 324 231.029 324 231.029 324C231.031 324 231.033 324 231.035 324C231.037 324 231.039 324 231.041 324C231.041 324 231.044 324 231.046 324C231.048 324 231.05 324 231.052 324C231.054 324 231.055 324 231.057 324C231.059 324 231.061 324 231.063 324C231.065 324 231.067 324 231.069 324C231.069 324 231.072 324 231.074 324C231.076 324 231.078 324 231.08 324C231.082 324 231.083 324 231.085 324C231.087 324 231.089 324 231.091 324C231.093 324 231.096 324 231.096 324C231.098 324 231.1 324 231.102 324C231.104 324 231.106 324 231.108 324C231.11 324 231.111 324 231.113 324C231.115 324 231.117 324 231.119 324C231.121 324 231.124 324 231.124 324C231.126 324 231.128 324 231.13 324C231.132 324 231.134 324 231.136 324C231.136 324 231.139 324 231.141 324C231.143 324 231.145 324 231.147 324C231.149 324 231.152 324 231.152 324C231.154 324 231.156 324 231.158 324C231.16 324 231.162 324 231.164 324C231.164 324 231.167 324 231.169 324C231.171 324 231.173 324 231.175 324C231.177 324 231.18 324 231.18 324C231.182 324 231.184 324 231.186 324C231.188 324 231.19 324 231.192 324C231.194 324 231.195 324 231.197 324C231.199 324 231.201 324 231.203 324C231.205 324 231.208 324 231.208 324C231.21 324 231.212 324 231.214 324C231.216 324 231.218 324 231.22 324C231.222 324 231.223 324 231.225 324C231.227 324 231.229 324 231.231 324C231.233 324 231.235 324 231.237 324C231.237 324 231.24 324 231.242 324C231.244 324 231.246 324 231.248 324C231.25 324 231.251 324 231.253 324C231.255 324 231.257 324 231.259 324C231.261 324 231.263 324 231.265 324C231.265 324 231.268 324 231.27 324C231.272 324 231.274 324 231.276 324C231.278 324 231.281 324 231.281 324C231.283 324 231.285 324 231.287 324C231.289 324 231.291 324 231.293 324C231.295 324 231.296 324 231.298 324C231.3 324 231.302 324 231.304 324C231.306 324 231.308 324 231.31 324C231.31 324 231.313 324 231.315 324C231.317 324 231.319 324 231.321 324C231.323 324 231.326 324 231.326 324C231.328 324 231.33 324 231.332 324C231.334 324 231.336 324 231.338 324C231.34 324 231.341 324 231.343 324C231.345 324 231.347 324 231.349 324C231.351 324 231.353 324 231.355 324C231.357 324 231.358 324 231.36 324C231.362 324 231.364 324 231.366 324C231.368 324 231.37 324 231.372 324C231.372 324 231.375 324 231.377 324C231.379 324 231.381 324 231.383 324C231.385 324 231.388 324 231.388 324C231.39 324 231.392 324 231.394 324C231.396 324 231.398 324 231.4 324C231.402 324 231.405 324 231.405 324C231.407 324 231.409 324 231.411 324C231.413 324 231.415 324 231.417 324C231.419 324 231.42 324 231.422 324C231.424 324 231.426 324 231.428 324C231.43 324 231.432 324 231.434 324C231.436 324 231.437 324 231.439 324C231.441 324 231.443 324 231.445 324C231.447 324 231.449 324 231.451 324C231.453 324 231.454 324 231.456 324C231.458 324 231.46 324 231.462 324C231.464 324 231.466 324 231.468 324C231.468 324 231.471 324 231.473 324C231.475 324 231.477 324 231.479 324C231.481 324 231.483 324 231.485 324C231.485 324 231.488 324 231.49 324C231.492 324 231.494 324 231.496 324C231.498 324 231.5 324 231.502 324C231.502 324 231.505 324 231.507 324C231.509 324 231.511 324 231.513 324C231.515 324 231.517 324 231.519 324C231.521 324 231.522 324 231.524 324C231.526 324 231.528 324 231.53 324C231.532 324 231.534 324 231.536 324C231.538 324 231.539 324 231.541 324C231.543 324 231.545 324 231.547 324C231.549 324 231.551 324 231.553 324C231.555 324 231.556 324 231.558 324C231.56 324 231.562 324 231.564 324C231.566 324 231.568 324 231.57 324C231.572 324 231.575 324 231.575 324C231.577 324 231.579 324 231.581 324C231.583 324 231.585 324 231.587 324C231.589 324 231.592 324 231.592 324C231.594 324 231.596 324 231.598 324C231.6 324 231.602 324 231.604 324C231.606 324 231.608 324 231.61 324C231.61 324 231.613 324 231.615 324C231.617 324 231.619 324 231.621 324C231.623 324 231.625 324 231.627 324C231.629 324 231.63 324 231.632 324C231.634 324 231.636 324 231.638 324C231.64 324 231.642 324 231.644 324C231.646 324 231.649 324 231.649 324C231.651 324 231.653 324 231.655 324C231.657 324 231.659 324 231.661 324C231.663 324 231.665 324 231.667 324C231.669 324 231.67 324 231.672 324C231.674 324 231.676 324 231.678 324C231.68 324 231.682 324 231.684 324C231.686 324 231.689 324 231.689 324C231.691 324 231.693 324 231.695 324C231.697 324 231.699 324 231.701 324C231.703 324 231.705 324 231.707 324C231.709 324 231.71 324 231.712 324C231.714 324 231.716 324 231.718 324C231.72 324 231.722 324 231.724 324C231.726 324 231.728 324 231.73 324C231.73 324 231.733 324 231.735 324C231.737 324 231.739 324 231.741 324C231.743 324 231.745 324 231.747 324C231.749 324 231.751 324 231.753 324C231.753 324 231.756 324 231.758 324C231.76 324 231.762 324 231.764 324C231.766 324 231.768 324 231.77 324C231.772 324 231.775 324 231.775 324C231.777 324 231.779 324 231.781 324C231.783 324 231.785 324 231.787 324C231.789 324 231.791 324 231.793 324C231.795 324 231.798 324 231.798 324C231.8 324 231.802 324 231.804 324C231.806 324 231.808 324 231.81 324C231.812 324 231.814 324 231.816 324C231.818 324 231.82 324 231.822 324C231.822 324 231.825 324 231.827 324C231.829 324 231.831 324 231.833 324C231.835 324 231.837 324 231.839 324C231.841 324 231.843 324 231.845 324C231.847 324 231.848 324 231.85 324C231.852 324 231.854 324 231.856 324C231.858 324 231.86 324 231.862 324C231.864 324 231.866 324 231.868 324C231.87 324 231.873 324 231.873 324C231.875 324 231.877 324 231.879 324C231.881 324 231.883 324 231.885 324C231.887 324 231.889 324 231.891 324C231.893 324 231.895 324 231.897 324C231.899 324 231.9 324 231.902 324C231.904 324 231.906 324 231.908 324C231.91 324 231.912 324 231.914 324C231.916 324 231.918 324 231.92 324C231.922 324 231.924 324 231.926 324C231.926 324 231.929 324 231.931 324C231.933 324 231.935 324 231.937 324C231.939 324 231.941 324 231.943 324C231.945 324 231.947 324 231.949 324C231.951 324 231.953 324 231.955 324C231.955 324 231.958 324 231.96 324C231.962 324 231.964 324 231.966 324C231.968 324 231.97 324 231.972 324C231.974 324 231.976 324 231.978 324C231.98 324 231.982 324 231.984 324C231.986 324 231.989 324 231.989 324C231.991 324 231.993 324 231.995 324C231.997 324 231.999 324 232.001 324C232.003 324 232.005 324 232.007 324C232.009 324 232.011 324 232.013 324C232.015 324 232.017 324 232.019 324C232.021 324 232.022 324 232.024 324C232.026 324 232.028 324 232.03 324C232.032 324 232.034 324 232.036 324C232.038 324 232.04 324 232.042 324C232.044 324 232.046 324 232.048 324C232.05 324 232.052 324 232.054 324C232.056 324 232.057 324 232.059 324C232.061 324 232.063 324 232.065 324C232.067 324 232.069 324 232.071 324C232.073 324 232.075 324 232.077 324V318ZM229.117 318.001C190.362 318.821 161.064 333.937 142.858 358.793L147.699 362.339C164.652 339.193 192.088 324.785 229.243 323.999L229.117 318.001ZM142.862 358.788C124.092 384.297 117.16 419.802 123.032 460.213L128.97 459.351C123.256 420.028 130.108 386.243 147.695 362.344L142.862 358.788ZM123.033 460.219C123.826 465.601 124.522 471.191 125.221 476.916L131.177 476.188C130.477 470.465 129.774 464.809 128.969 459.345L123.033 460.219ZM125.223 476.936C127.906 497.715 130.736 520.293 137.476 538.261L143.093 536.153C136.649 518.973 133.885 497.165 131.174 476.168L125.223 476.936ZM137.476 538.261C146.565 562.492 162.769 583.681 180.272 598.825L184.198 594.287C167.343 579.705 151.783 559.32 143.093 536.153L137.476 538.261ZM180.272 598.825C197.695 613.897 216.738 623.141 232.035 623.355L232.119 617.355C218.85 617.17 201.135 608.939 184.198 594.287L180.272 598.825ZM232.077 623.355H232.078H232.08H232.082H232.084H232.085H232.087H232.089H232.091H232.093H232.095H232.102H232.104H232.106H232.108H232.11H232.112H232.113H232.115H232.117H232.119H232.121H232.123H232.125H232.126H232.128H232.13H232.132H232.134H232.136H232.138H232.139H232.141H232.143H232.145H232.147H232.149H232.151H232.153H232.154H232.156H232.158H232.16H232.162H232.164H232.166H232.167H232.169H232.171H232.173H232.175H232.177H232.179H232.181H232.182H232.184H232.186H232.188H232.19H232.192H232.194H232.195H232.197H232.199H232.201H232.203H232.205H232.207H232.209H232.21H232.212H232.214H232.216H232.218H232.22H232.222H232.223H232.225H232.229H232.231H232.233H232.235H232.237H232.238H232.24H232.242H232.244H232.246H232.248H232.25H232.251H232.257H232.259H232.261H232.263H232.264H232.266H232.268H232.27H232.272H232.274H232.276L232.277 617.355H232.275H232.273H232.271H232.269H232.267H232.265H232.263H232.262H232.26H232.258H232.252H232.25H232.249H232.247H232.245H232.243H232.241H232.239H232.237H232.236H232.234H232.232H232.23H232.226H232.224H232.222H232.221H232.219H232.217H232.215H232.213H232.211H232.209H232.208H232.206H232.204H232.202H232.2H232.198H232.196H232.194H232.193H232.191H232.189H232.187H232.185H232.183H232.181H232.18H232.178H232.176H232.174H232.172H232.17H232.168H232.166H232.165H232.163H232.161H232.159H232.157H232.155H232.153H232.152H232.15H232.148H232.146H232.144H232.142H232.14H232.138H232.137H232.135H232.133H232.131H232.129H232.127H232.125H232.124H232.122H232.119H232.118H232.116H232.114H232.112H232.111H232.109H232.107H232.105H232.103H232.096H232.094H232.092H232.09H232.088H232.086H232.084H232.083H232.081H232.079H232.077V623.355ZM232.276 623.355H232.278H232.279H232.281H232.283H232.285H232.287H232.289H232.291H232.292H232.294H232.296H232.302H232.304H232.306H232.307H232.309H232.311H232.313H232.315H232.317H232.319H232.32H232.322H232.324H232.326H232.328H232.33H232.332H232.334H232.335H232.337H232.339H232.341H232.343H232.345H232.347H232.348H232.35H232.352H232.354H232.356H232.358H232.36H232.362H232.363H232.365H232.367H232.369H232.371H232.375H232.376H232.378H232.382H232.384H232.386H232.388H232.389H232.391H232.393H232.395H232.397H232.399H232.401H232.403H232.404H232.406H232.408H232.41H232.412H232.414H232.416H232.417H232.419H232.421H232.423H232.425H232.427H232.429H232.431H232.432H232.434H232.436H232.438H232.44H232.442H232.445H232.447H232.449H232.451H232.457H232.459H232.46H232.462H232.464H232.466H232.468H232.47H232.472H232.473H232.475H232.477V617.355H232.476H232.474H232.472H232.471H232.469H232.467H232.465H232.463H232.461H232.459H232.458H232.456H232.452H232.45H232.448H232.446H232.443H232.441H232.439H232.437H232.435H232.433H232.431H232.43H232.428H232.426H232.424H232.422H232.42H232.418H232.416H232.415H232.413H232.411H232.409H232.407H232.405H232.403H232.402H232.4H232.398H232.396H232.394H232.392H232.39H232.388H232.387H232.385H232.383H232.379H232.377H232.375H232.372H232.37H232.368H232.366H232.364H232.362H232.361H232.359H232.357H232.355H232.353H232.351H232.349H232.347H232.346H232.344H232.342H232.34H232.338H232.336H232.334H232.333H232.331H232.329H232.327H232.325H232.323H232.321H232.319H232.318H232.316H232.314H232.312H232.31H232.308H232.306H232.305H232.303H232.297H232.295H232.293H232.291H232.29H232.288H232.286H232.284H232.282H232.28H232.278H232.277L232.276 623.355ZM232.498 623.355C247.815 623.248 266.968 613.89 284.287 598.819L280.349 594.293C263.508 608.946 245.705 617.262 232.456 617.355L232.498 623.355ZM284.274 598.83C301.893 583.676 317.99 562.384 327.076 538.265L321.462 536.149C312.768 559.228 297.303 579.71 280.362 594.282L284.274 598.83ZM327.078 538.261C333.817 520.293 336.745 497.729 339.332 476.922L333.378 476.182C330.771 497.151 327.905 518.973 321.46 536.153L327.078 538.261ZM339.333 476.916C340.032 471.191 340.82 465.654 341.527 460.166L335.577 459.398C334.886 464.756 334.076 470.465 333.377 476.188L339.333 476.916ZM341.52 460.221C347.494 419.805 340.562 384.301 321.896 358.794L317.054 362.338C334.546 386.239 341.396 420.025 335.584 459.343L341.52 460.221Z" fill="#24FF00"/>
</svg>
